<svg width="69" height="69" viewBox="0 0 69 69" fill="none" xmlns="http://www.w3.org/2000/svg">
<g clip-path="url(#clip0)">
<path d="M49.8791 11.4606C49.3613 10.9413 48.5203 10.9413 48.001 11.4606C47.4827 11.9789 47.4827 12.8198 48.001 13.3392C48.0155 13.3537 48.0316 13.3682 48.0461 13.3827C48.5681 13.8585 49.3758 13.844 49.8791 13.3392C50.3735 12.8448 50.3973 12.0588 49.9496 11.5379C49.9283 11.5114 49.9045 11.486 49.8791 11.4606Z" fill="black"/>
<path d="M64.9078 3.94629C59.7281 -1.2334 51.3013 -1.2334 46.1216 3.94629L35.7311 14.3363C31.9828 18.0851 30.843 23.7032 32.7573 28.5825L29.3136 32.0268C24.4337 30.1124 18.8157 31.2522 15.0674 35.0005L4.67636 45.3911C-0.502798 50.5702 -0.502798 58.9976 4.67636 64.1773C9.85604 69.3564 18.2829 69.3564 23.4626 64.1773L33.853 53.7868C37.6019 50.0379 38.7412 44.4199 36.8268 39.5406L40.2706 36.0968C45.1893 38.0262 50.7959 36.8438 54.5168 33.1225L64.9078 22.732C70.0869 17.5528 70.0869 9.12546 64.9078 3.94629ZM31.9745 51.9082L21.584 62.2982C17.431 66.4517 10.7089 66.4522 6.55545 62.2982C2.40195 58.1452 2.40143 51.4236 6.55545 47.2696L16.9459 36.8791C19.6587 34.1658 23.5959 33.1619 27.2119 34.1284L23.5181 37.8223C22.1002 38.0241 20.7824 38.6778 19.763 39.6978L9.37408 50.0877C6.78113 52.6791 6.78061 56.8882 9.37356 59.4796C11.965 62.0725 16.174 62.0735 18.7659 59.4801L29.1564 49.0911C30.1758 48.0712 30.83 46.7534 31.0313 45.3361L34.7257 41.6422C35.6917 45.2582 34.6878 49.1949 31.9745 51.9082ZM21.6421 47.2105C22.7082 48.2776 24.1681 48.8514 25.7354 48.7544L16.8868 57.6015C15.3335 59.1558 12.8064 59.1563 11.2521 57.601C9.69833 56.0482 9.69729 53.5211 11.2526 51.9668L20.0997 43.1182C20.0017 44.6969 20.5843 46.1537 21.6421 47.2105ZM28.8212 43.789L27.2773 45.3324C26.2438 46.3664 24.5593 46.3716 23.5207 45.3319C22.4846 44.2974 22.4846 42.6124 23.5212 41.5763L42.3069 22.7906C43.3403 21.7572 45.0248 21.7515 46.0635 22.7911C47.0995 23.8261 47.0995 25.5107 46.063 26.5467L28.8212 43.789ZM52.6387 31.2439C49.9254 33.9567 45.9888 34.9611 42.3727 33.9946L46.0666 30.3008C47.4834 30.0995 48.8006 29.4458 49.8201 28.4268C49.8206 28.4263 49.8211 28.4258 49.8211 28.4253L60.2101 18.0353C62.8025 15.4444 62.804 11.2354 60.2106 8.64349C58.0685 6.49982 54.7487 6.07855 52.1376 7.61887C51.5057 7.99136 51.2961 8.80588 51.6686 9.43777C52.0416 10.0697 52.8561 10.2798 53.4875 9.90729C55.0542 8.98279 57.0464 9.23544 58.332 10.5221C59.8863 12.0753 59.8868 14.6024 58.332 16.1567L49.4849 25.0049C49.5825 23.4267 49.0004 21.9699 47.942 20.9126C46.9402 19.9097 45.6064 19.3572 44.1854 19.3572C44.0728 19.3572 43.9608 19.3624 43.8492 19.3691L46.1221 17.0963C46.6409 16.5775 46.6409 15.7365 46.1221 15.2177C45.6033 14.6989 44.7623 14.6989 44.2435 15.2177L40.4283 19.0324C39.4083 20.0524 38.7546 21.3701 38.5528 22.7875L34.859 26.4814C33.8925 22.8653 34.8969 18.9282 37.6097 16.2154L48.0001 5.82486C52.1531 1.67188 58.8752 1.67084 63.0292 5.82486C67.1822 9.97836 67.1827 16.6999 63.0292 20.8539L52.6387 31.2439Z" fill="black"/>
<path d="M22.583 21.851C23.1013 21.3328 23.1013 20.4913 22.583 19.9725L16.9468 14.3362C16.428 13.8174 15.5865 13.8174 15.0677 14.3362C14.5489 14.855 14.5489 15.696 15.0677 16.2148L20.7039 21.851C21.2227 22.3698 22.0642 22.3704 22.583 21.851Z" fill="black"/>
<path d="M7.87659 27.5526C7.87659 28.2862 8.47113 28.8808 9.20471 28.8808H17.175C17.9086 28.8808 18.5031 28.2862 18.5031 27.5526C18.5031 26.8191 17.9086 26.224 17.175 26.224H9.20471C8.47113 26.224 7.87659 26.8191 7.87659 27.5526Z" fill="black"/>
<path d="M29.6122 16.4436V8.4733C29.6122 7.73972 29.0177 7.14465 28.2841 7.14465C27.5505 7.14465 26.9554 7.73972 26.9554 8.4733V16.4436C26.9554 17.1772 27.5505 17.7717 28.2841 17.7717C29.0177 17.7717 29.6122 17.1772 29.6122 16.4436Z" fill="black"/>
<path d="M47.0034 46.2715C46.4846 46.7903 46.4846 47.6318 47.0034 48.1506L52.6396 53.7868C53.1584 54.3056 53.9993 54.3056 54.5181 53.7868C55.0369 53.268 55.0369 52.427 54.5181 51.9082L48.8819 46.2715C48.3631 45.7532 47.5216 45.7532 47.0034 46.2715Z" fill="black"/>
<path d="M40.1066 51.6794V59.6497C40.1066 60.3833 40.7011 60.9783 41.4347 60.9783C42.1688 60.9783 42.7633 60.3833 42.7633 59.6497V51.6794C42.7633 50.9458 42.1688 50.3513 41.4347 50.3513C40.7011 50.3513 40.1066 50.9458 40.1066 51.6794Z" fill="black"/>
<path d="M61.7097 40.7032C61.7097 39.9696 61.1146 39.3751 60.3811 39.3751H52.4113C51.6772 39.3751 51.0826 39.9696 51.0826 40.7032C51.0826 41.4368 51.6772 42.0318 52.4113 42.0318H60.3811C61.1146 42.0318 61.7097 41.4368 61.7097 40.7032Z" fill="black"/>
</g>
<defs>
<clipPath id="clip0">
<rect width="68" height="68" fill="white" transform="translate(0.792969 0.0615234)"/>
</clipPath>
</defs>
</svg>
