<svg width="71" height="71" viewBox="0 0 71 71" fill="none" xmlns="http://www.w3.org/2000/svg">
<g clip-path="url(#clip0)">
<path d="M18.7153 54.8215C18.3627 50.9759 16.5933 48.1619 14.7978 45.276C11.246 39.6414 7.48524 33.6738 15.9731 18.3892C16.2804 17.8068 16.0584 17.0855 15.4768 16.7765C14.9003 16.4555 14.1727 16.6626 13.8516 17.2391C13.8514 17.2394 13.8513 17.2398 13.8511 17.2401C4.6712 33.7522 8.8237 40.327 12.7412 46.5492C14.4061 49.1608 16.0057 51.7725 16.3322 55.037C16.3917 55.6951 16.9733 56.1804 17.6314 56.1208C18.2896 56.0613 18.7749 55.4797 18.7153 54.8215Z" fill="black"/>
<path d="M47.5606 18.4349C47.1803 19.4807 46.6431 20.4627 45.9675 21.3469C44.7771 22.9508 43.0474 24.0707 41.0968 24.5005C39.0206 24.951 36.5265 24.6702 33.6798 23.384C29.5599 21.5232 24.761 17.6188 19.4855 10.9004C22.4889 10.5935 27.8232 9.6272 31.7994 6.60423C35.1619 4.04483 38.1979 3.10464 40.7116 3.33969C41.7917 3.42554 42.8396 3.74873 43.7803 4.2864C44.7085 4.8244 45.5191 5.54391 46.1634 6.40183C47.1961 7.80819 47.8809 9.43932 48.1613 11.1615C49.013 11.3218 49.853 11.5399 50.675 11.8144C50.4442 9.32425 49.5415 6.94342 48.0634 4.92625C47.2209 3.80962 46.1616 2.87465 44.949 2.17751C43.7021 1.46486 42.313 1.03688 40.8814 0.923923C37.8127 0.669289 34.2086 1.74659 30.3238 4.70427C25.4531 8.40626 18.121 8.62172 17.2199 8.62172C16.5579 8.5783 15.9859 9.07973 15.9425 9.74178C15.9239 10.0253 16.0063 10.3062 16.1753 10.5347C22.2865 18.7026 27.8819 23.3644 32.6873 25.5516C36.0433 27.0599 39.0402 27.3798 41.593 26.8575C44.1077 26.3051 46.3369 24.8601 47.8675 22.7898C48.6711 21.7266 49.3116 20.5492 49.7674 19.2968L49.5781 19.2054C48.9281 18.893 48.2533 18.6352 47.5606 18.4349Z" fill="black"/>
<path d="M64.8894 28.7704C55.1611 12.5587 47.3915 12.8591 40.0462 13.1463C36.9253 13.2704 33.8893 13.3879 30.9055 12.0103C30.2826 11.7924 29.601 12.1208 29.3833 12.7436C29.1957 13.28 29.4118 13.8743 29.9 14.1649C33.4062 15.7776 36.7229 15.6535 40.1311 15.5164C46.7908 15.2813 53.8422 15.0071 62.8327 29.9979C63.1718 30.5658 63.9069 30.7515 64.4748 30.4125C65.0427 30.0736 65.2284 29.3385 64.8894 28.7704Z" fill="black"/>
<path d="M27.1705 46.7123C26.8049 43.056 25.5774 40.3008 23.8211 38.3616C22.0913 36.4617 19.733 35.2513 17.181 34.9534C15.8603 34.7883 14.5223 34.8212 13.2113 35.0514C13.2113 35.1232 13.2113 35.1885 13.2113 35.2603C13.2678 35.9872 13.3858 36.708 13.5639 37.4149C14.6563 37.2176 15.7725 37.1867 16.8741 37.3235C18.8537 37.5443 20.6874 38.4716 22.0386 39.9351C23.462 41.5086 24.4674 43.8069 24.7808 46.9147C25.2313 51.4067 24.252 57.5114 21.0854 65.4704C19.316 63.0155 15.8099 58.876 11.2069 56.9434C7.28941 55.3046 4.97159 53.1565 3.90082 50.8779C3.43088 49.9106 3.17902 48.8519 3.16303 47.7766C3.16841 46.7009 3.39057 45.6371 3.81594 44.6491C4.517 43.0508 5.58646 41.6413 6.93684 40.5358C6.66213 39.7115 6.4439 38.8696 6.28393 38.0156C4.24131 39.4598 2.62993 41.4324 1.62216 43.722C1.07617 45.004 0.794111 46.3831 0.792969 47.7766C0.798845 49.2136 1.12203 50.6316 1.73969 51.9291C3.0455 54.717 5.79425 57.3025 10.2863 59.1894C16.28 61.6966 20.2627 68.5587 20.3019 68.6305C20.628 69.2042 21.3573 69.4048 21.9311 69.0789C22.1612 68.9479 22.3416 68.7444 22.4434 68.4999C26.4588 59.1306 27.6993 51.9552 27.1705 46.7123Z" fill="black"/>
<path d="M61.164 44.4892C60.7835 43.9483 60.0367 43.8182 59.4958 44.1986C56.3422 46.4251 54.7948 49.3697 53.2018 52.3926C50.0939 58.2688 46.8098 64.5302 29.3314 64.7979C28.6715 64.8087 28.1454 65.3524 28.1562 66.0123C28.1669 66.6722 28.7107 67.1983 29.3706 67.1876C48.2723 66.8742 51.8959 60.0056 55.3237 53.4765C56.7732 50.7277 58.19 48.0377 60.8734 46.1574C61.4144 45.7771 61.5445 45.0301 61.164 44.4892Z" fill="black"/>
<path d="M70.1867 34.2351C69.9642 34.1081 69.707 34.0556 69.4527 34.0851L69.4853 34.1178C59.3587 35.3191 52.5227 37.8393 48.2135 40.9341C45.2297 43.0822 43.4538 45.5045 42.6573 48.0051C41.8766 50.4511 42.0063 53.097 43.0229 55.4548C43.5421 56.6816 44.2419 57.8237 45.0992 58.8434L45.2689 58.7259C45.8706 58.3129 46.4363 57.85 46.96 57.3417C46.2453 56.4982 45.6621 55.5518 45.2297 54.5342C44.4368 52.6948 44.3371 50.6305 44.949 48.7233C45.6019 46.6993 47.084 44.6883 49.6238 42.8471C53.2866 40.2355 59.0584 38.0091 67.5331 36.7751C66.2991 39.5369 64.4644 44.61 65.0978 49.5852C65.6331 53.7834 64.9345 56.8781 63.4916 58.9544C62.878 59.8455 62.0754 60.5899 61.1411 61.1351C60.2091 61.6703 59.1786 62.0123 58.1116 62.1406C56.3755 62.3309 54.6192 62.1071 52.9863 61.4877C52.413 62.1408 51.7957 62.7538 51.1386 63.3224C53.4092 64.367 55.9208 64.7754 58.4054 64.5041C59.7855 64.3353 61.1176 63.8914 62.3229 63.1983C63.5642 62.4739 64.6299 61.4839 65.4438 60.2994C67.2001 57.7661 68.0554 54.1098 67.4548 49.2718C66.6321 42.808 70.6214 35.8937 70.6344 35.8741C70.9633 35.2979 70.7629 34.5642 70.1867 34.2351Z" fill="black"/>
</g>
<defs>
<clipPath id="clip0">
<rect width="70" height="70" fill="white" transform="translate(0.792969 0.0615234)"/>
</clipPath>
</defs>
</svg>
