<svg width="84" height="84" viewBox="0 0 84 84" fill="none" xmlns="http://www.w3.org/2000/svg">
<g clip-path="url(#clip0)">
<path d="M74.508 25.4149L76.2053 23.4405L77.8593 24.8627C78.082 25.0543 78.3655 25.1585 78.6572 25.1585C78.6879 25.1585 78.7186 25.1574 78.7493 25.1551C79.0729 25.1306 79.3736 24.9787 79.5853 24.7325L82.213 21.676C82.6536 21.1635 82.5954 20.3908 82.0828 19.9502L73.0452 12.1804C72.799 11.9687 72.479 11.8623 72.1552 11.8879C71.8316 11.9123 71.5309 12.0643 71.3192 12.3104L68.6915 15.3669C68.2509 15.8794 68.3091 16.6521 68.8217 17.0927L70.4757 18.5148L68.6485 20.6401C64.9058 18.2495 60.6465 16.5991 56.0785 15.8982V12.2001H60.2935C62.2609 12.2001 63.8612 10.5996 63.8612 8.63226V5.78471C63.8612 3.81736 62.2607 2.21686 60.2935 2.21686H41.9055C39.9381 2.21686 38.3376 3.81736 38.3376 5.78471V8.63226C38.3376 10.5996 39.9381 12.2001 41.9055 12.2001H46.1207V15.8982C41.4626 16.6129 37.1262 18.3159 33.3303 20.7833L31.3801 18.5148L33.0343 17.0927C33.2804 16.881 33.4323 16.5803 33.4568 16.2567C33.4811 15.9331 33.376 15.6129 33.1644 15.3667L30.5366 12.3103C30.0959 11.7979 29.3234 11.7394 28.8106 12.1802L19.7732 19.95C19.5271 20.1617 19.3752 20.4624 19.3507 20.786C19.3264 21.1096 19.4315 21.4298 19.6431 21.676L22.2709 24.7325C22.5129 25.014 22.8553 25.1584 23.1994 25.1584C23.4819 25.1584 23.7658 25.0611 23.9967 24.8625L25.6508 23.4405L27.5089 25.6017C25.9009 27.2788 24.47 29.1268 23.2453 31.1147C23.204 31.1105 23.162 31.1084 23.1194 31.1084H15.3906C14.7147 31.1084 14.1667 31.6564 14.1667 32.3323C14.1667 33.0082 14.7147 33.5561 15.3906 33.5561H21.8819C21.2374 34.8355 20.6748 36.1625 20.2004 37.5306H7.83451C7.15861 37.5306 6.61063 38.0786 6.61063 38.7545C6.61063 39.4304 7.15861 39.9784 7.83451 39.9784H19.4574C19.0155 41.6749 18.7088 43.425 18.5451 45.2161H2.01685C1.34094 45.2161 0.792969 45.7641 0.792969 46.44C0.792969 47.1159 1.34094 47.6639 2.01685 47.6639H18.4134C18.4103 47.8468 18.4064 48.0294 18.4064 48.2131C18.4064 49.805 18.523 51.3699 18.744 52.9016H6.69223C6.01632 52.9016 5.46835 53.4495 5.46835 54.1255C5.46835 54.8014 6.01632 55.3493 6.69223 55.3493H19.1931C19.4966 56.7077 19.8842 58.0345 20.3515 59.3237H14.2483C13.5724 59.3237 13.0244 59.8716 13.0244 60.5476C13.0244 61.2235 13.5724 61.7714 14.2483 61.7714H21.3533C26.5148 73.0505 37.9065 80.9064 51.0998 80.9064C57.9905 80.9064 64.581 78.7876 70.159 74.7791C70.7078 74.3847 70.8331 73.6199 70.4387 73.0711C70.0438 72.522 69.2792 72.3971 68.7305 72.7916C63.5714 76.4991 57.4747 78.4588 51.0998 78.4588C34.4222 78.4588 20.8541 64.8907 20.8541 48.2133C20.8541 31.5358 34.4222 17.9677 51.0998 17.9677C59.1729 17.9677 66.5175 21.1473 71.9471 26.3199C71.9582 26.3317 71.9706 26.3424 71.9822 26.3539C77.7483 31.8646 81.3452 39.6267 81.3452 48.2133C81.3452 56.302 78.1925 63.9041 72.4677 69.6188C71.9892 70.0964 71.9886 70.8712 72.4662 71.3497C72.9437 71.828 73.7187 71.8288 74.197 71.3511C80.385 65.1738 83.793 56.9567 83.793 48.2131C83.793 39.3542 80.2498 31.3088 74.508 25.4149ZM72.3776 14.8342L79.5592 21.0083L78.5272 22.2085L71.3456 16.0344L72.3776 14.8342ZM72.3321 20.1106L74.3492 21.8448L72.7337 23.724C72.0695 23.1365 71.3825 22.5742 70.672 22.0414L72.3321 20.1106ZM45.6871 9.75236V4.66461H47.6636V9.75236H45.6871ZM50.1114 4.66461H52.0878V9.75236H50.1114V4.66461ZM54.5356 9.75236V4.66461H56.5122V9.75236H54.5356ZM61.4138 5.78471V8.63226C61.4138 9.24992 60.9113 9.75236 60.2939 9.75236H58.9602V4.66461H60.2939C60.9113 4.66461 61.4138 5.16706 61.4138 5.78471ZM40.7856 8.63226V5.78471C40.7856 5.16706 41.288 4.66461 41.9057 4.66461H43.2394V9.75236H41.9057C41.288 9.75236 40.7856 9.24992 40.7856 8.63226ZM23.329 22.2087L22.297 21.0084L29.4784 14.8344L30.5104 16.0346L28.8565 17.4566C28.8565 17.4566 28.8563 17.4568 28.8562 17.4568L24.983 20.7867C24.9828 20.7868 24.9828 20.7868 24.9827 20.787L23.329 22.2087ZM27.5435 21.8133L29.5239 20.1106L31.3204 22.2002C30.6143 22.7384 29.9304 23.3041 29.271 23.8968L27.5068 21.8449L27.5435 21.8133ZM48.5684 15.6169V12.2001H53.6309V15.617C52.7954 15.5527 51.9512 15.5198 51.0996 15.5198C50.2479 15.5198 49.4039 15.5527 48.5684 15.6169Z" fill="black"/>
<path d="M40.8496 25.9156C40.5364 25.3165 39.7969 25.0848 39.198 25.3978C31.7571 29.2871 26.6681 36.5733 25.5846 44.8881C23.7512 58.9572 33.7057 71.8949 47.7748 73.7281C48.8988 73.8746 50.0133 73.9458 51.1178 73.9456C63.8378 73.9445 74.9277 64.4829 76.6147 51.5379C77.5028 44.7225 75.6838 37.9693 71.4924 32.5221C67.3012 27.075 61.2397 23.586 54.4242 22.6978C51.0992 22.2643 47.7831 22.4734 44.5674 23.3183C43.9137 23.4902 43.523 24.1594 43.6947 24.8131C43.8665 25.4668 44.5361 25.8572 45.1895 25.6858C46.7296 25.2811 48.296 25.0394 49.8756 24.9583V28.1739C49.8756 28.8498 50.4234 29.3978 51.0995 29.3978C51.7756 29.3978 52.3234 28.8498 52.3234 28.1739V24.9613C52.9175 24.9934 53.5125 25.0473 54.1081 25.1248C58.8744 25.7459 63.2325 27.7739 66.7176 30.9382L64.5011 33.1546C64.023 33.6325 64.023 34.4073 64.501 34.8853C64.74 35.1244 65.0532 35.2438 65.3665 35.2438C65.6796 35.2438 65.9929 35.1244 66.2318 34.8853L68.442 32.6751C68.8265 33.1056 69.1971 33.5523 69.5526 34.0144C72.479 37.8177 74.1259 42.3249 74.3569 47.0183H71.3211C70.645 47.0183 70.0972 47.5663 70.0972 48.2422C70.0972 48.9181 70.645 49.4661 71.3211 49.4661H74.3502C74.3179 50.05 74.2639 50.6353 74.1875 51.2211C73.557 56.0594 71.4743 60.3589 68.4368 63.7404L66.34 61.6437C65.8619 61.1657 65.0871 61.1657 64.6091 61.6437C64.1312 62.1217 64.1312 62.8966 64.6091 63.3744L66.7082 65.4735C62.8533 68.9542 57.8617 71.1385 52.4763 71.4554V68.4635C52.4763 67.7876 51.9285 67.2396 51.2524 67.2396C50.5763 67.2396 50.0285 67.7876 50.0285 68.4635V71.4705C49.3861 71.4404 48.74 71.3851 48.0912 71.3004C43.3062 70.6769 39.0474 68.6335 35.683 65.6502L37.8508 63.4824C38.3287 63.0045 38.3287 62.2297 37.8508 61.7517C37.3728 61.2738 36.5978 61.2738 36.12 61.7517L33.9399 63.9317C30.407 60.0688 28.1847 55.0442 27.8585 49.6187H31.031C31.7069 49.6187 32.2549 49.0707 32.2549 48.3948C32.2549 47.7189 31.7069 47.1709 31.031 47.1709H27.8406C27.8703 46.5188 27.9259 45.8628 28.0118 45.2041C28.6245 40.5026 30.6527 36.1643 33.731 32.7123L36.012 34.9932C36.2509 35.2322 36.5642 35.3517 36.8774 35.3517C37.1905 35.3517 37.5038 35.2322 37.7427 34.9932C38.2207 34.5152 38.2207 33.7402 37.7427 33.2624L35.4555 30.9753C36.9134 29.6504 38.5469 28.4996 40.3318 27.5667C40.9308 27.254 41.1627 26.5145 40.8496 25.9156Z" fill="black"/>
<path d="M51.0998 36.9864C50.4237 36.9864 49.8759 37.5344 49.8759 38.2103V45.4801C48.8324 45.9494 48.1028 46.9966 48.1028 48.2131C48.1028 49.8657 49.4473 51.2101 51.0998 51.2101C51.5528 51.2101 51.981 51.1062 52.3665 50.9254L60.5317 59.0906C60.7707 59.3297 61.0839 59.4491 61.3972 59.4491C61.7104 59.4491 62.0237 59.3297 62.2627 59.0906C62.7407 58.6127 62.7407 57.8377 62.2627 57.3599L53.971 49.068C54.052 48.7968 54.0969 48.5103 54.0969 48.2131C54.0969 46.9967 53.3673 45.9494 52.3239 45.4803V38.2104C52.3237 37.5344 51.7757 36.9864 51.0998 36.9864ZM50.5505 48.2129C50.5505 47.9101 50.7969 47.6637 51.0998 47.6637C51.4025 47.6637 51.6489 47.9101 51.6489 48.2129C51.6489 48.5158 51.4025 48.7622 51.0998 48.7622C50.7968 48.7622 50.5505 48.5158 50.5505 48.2129Z" fill="black"/>
</g>
<defs>
<clipPath id="clip0">
<rect width="83" height="83" fill="white" transform="translate(0.792969 0.0615234)"/>
</clipPath>
</defs>
</svg>
