<svg width="90" height="90" viewBox="0 0 90 90" fill="none" xmlns="http://www.w3.org/2000/svg">
<path d="M16.2197 31.5083C16.2197 33.7982 18.0831 35.6616 20.3731 35.6616C22.663 35.6616 24.5264 33.7982 24.5264 31.5083C24.5264 29.2183 22.663 27.3549 20.3731 27.3549C18.0831 27.3549 16.2197 29.2183 16.2197 31.5083ZM20.3731 29.7283C21.3547 29.7283 22.1531 30.5266 22.1531 31.5083C22.1531 32.4899 21.3547 33.2883 20.3731 33.2883C19.3914 33.2883 18.5931 32.4899 18.5931 31.5083C18.5931 30.5266 19.3914 29.7283 20.3731 29.7283Z" fill="black"/>
<path d="M16.8128 17.4252C17.5548 17.4252 18.1564 16.8235 18.1564 16.0816C18.1564 15.3393 17.5548 14.7377 16.8128 14.7377C16.0709 14.7377 15.4692 15.3393 15.4692 16.0816C15.4692 16.8235 16.0709 17.4252 16.8128 17.4252Z" fill="black"/>
<path d="M49.4467 38.0349C50.1026 38.0349 50.6334 37.5036 50.6334 36.8482V26.1682C50.6334 25.5129 50.1026 24.9816 49.4467 24.9816C48.7907 24.9816 48.26 25.5129 48.26 26.1682V36.8482C48.26 37.5036 48.7907 38.0349 49.4467 38.0349Z" fill="black"/>
<path d="M58.9396 34.4749C59.5955 34.4749 60.1263 33.9436 60.1263 33.2882V29.7282C60.1263 29.0729 59.5955 28.5416 58.9396 28.5416C58.2837 28.5416 57.7529 29.0729 57.7529 29.7282V33.2882C57.7529 33.9436 58.2837 34.4749 58.9396 34.4749Z" fill="black"/>
<path d="M54.1933 27.3549C54.8492 27.3549 55.3799 26.8236 55.3799 26.1683V17.8616C55.3799 17.2063 54.8492 16.6749 54.1933 16.6749C53.5373 16.6749 53.0066 17.2063 53.0066 17.8616V26.1683C53.0066 26.8236 53.5373 27.3549 54.1933 27.3549Z" fill="black"/>
<path d="M82.6731 56.4283C82.6731 54.2214 80.8975 52.428 78.672 52.2995C78.9458 51.7516 79.1131 51.1443 79.1131 50.4949C79.1131 48.2049 77.2011 46.3416 74.8497 46.3416H71.9931H66.6682C67.0355 45.7551 67.2464 45.0716 67.2464 44.342C67.2464 42.3657 65.694 40.7408 63.6864 40.4652V19.0482H80.2998C80.9557 19.0482 81.4864 18.5169 81.4864 17.8616C81.4864 17.2062 80.9557 16.6749 80.2998 16.6749H63.6864V9.55491H80.2998C80.9557 9.55491 81.4864 9.02358 81.4864 8.36825C81.4864 7.71291 80.9557 7.18158 80.2998 7.18158H62.4998C52.0307 7.18158 43.5131 15.6992 43.5131 26.1682V42.2061C42.4887 42.7323 41.5156 43.3628 40.6265 44.0934L39.8653 44.7179C39.6905 44.2798 39.2672 43.9683 38.7664 43.9683H30.4598C29.8038 43.9683 29.2731 44.4996 29.2731 45.1549H20.9664C20.3105 45.1549 19.7798 45.6862 19.7798 46.3416V53.4616H18.5931C17.9372 53.4616 17.4064 53.9929 17.4064 54.6483H9.09975C8.44382 54.6483 7.91309 55.1796 7.91309 55.8349V78.3816C7.91309 79.0369 8.44382 79.5683 9.09975 79.5683H17.4064C17.4064 80.2236 17.9372 80.7549 18.5931 80.7549H26.8998C27.5557 80.7549 28.0864 80.2236 28.0864 79.5683V79.1586C30.6653 80.9555 33.7272 81.9416 36.9087 81.9416H47.0731H60.1264H60.6097C62.9611 81.9416 64.8731 80.0782 64.8731 77.7883C64.8731 77.0558 64.6607 76.3773 64.3177 75.7792C65.8251 75.2909 66.9512 74.0161 67.1847 72.4483H72.4761C74.8275 72.4483 76.7395 70.5849 76.7395 68.2949C76.7395 67.5625 76.5271 66.884 76.1841 66.2859C77.8796 65.7365 79.1131 64.1947 79.1131 62.3616C79.1131 61.7122 78.9458 61.1049 78.672 60.557C80.8975 60.4285 82.6731 58.6352 82.6731 56.4283ZM71.9931 48.7149H74.8497C75.8916 48.7149 76.7398 49.5132 76.7398 50.4949C76.7398 51.4766 75.8916 52.2749 74.8497 52.2749H65.8411C65.3498 50.8966 64.0448 49.9016 62.4998 49.9016H56.5664C55.5785 49.9016 54.6844 50.3071 54.0388 50.9592C53.2975 50.3086 52.3143 49.9016 51.2264 49.9016H49.7072C50.2765 49.2703 50.6331 48.4432 50.6331 47.5283V42.7816H53.0064V45.1549C53.0064 45.5691 53.0913 45.961 53.2218 46.3312L52.9542 46.3428C52.3099 46.3707 51.8058 46.9088 51.8198 47.5544C51.8337 48.1993 52.3609 48.7149 53.0064 48.7149H61.3131H71.9931ZM62.4998 64.1416V72.4483C62.4998 73.1024 61.9678 73.6349 61.3131 73.6349C60.6584 73.6349 60.1264 73.1024 60.1264 72.4483V64.1416H62.4998ZM60.1264 55.8349H55.3798V53.4616C55.3798 52.8074 55.9117 52.2749 56.5664 52.2749H62.4998C63.1545 52.2749 63.6864 52.8074 63.6864 53.4616V55.904C63.4565 55.8664 63.2239 55.8349 62.983 55.8349H60.1264ZM64.8731 67.7016V64.1416H66.557C67.5917 64.1416 68.4331 64.9399 68.4331 65.9216C68.4331 66.9033 67.5917 67.7016 66.557 67.7016H64.8731ZM64.8731 44.342C64.8731 45.2018 64.0748 45.9019 63.0409 45.9031L60.003 46.0357C60.0757 45.7521 60.1264 45.4605 60.1264 45.1549V42.7816H63.0931C64.0748 42.7816 64.8731 43.4814 64.8731 44.342ZM45.8864 26.1682C45.8864 17.4068 52.7038 10.2079 61.3131 9.59674V40.4083H60.1264V38.0349C60.1264 37.3796 59.5957 36.8483 58.9398 36.8483C58.2838 36.8483 57.7531 37.3796 57.7531 38.0349V45.1549C57.7531 45.5886 57.5078 45.9524 57.1598 46.1594L56.0455 46.2081C55.6554 46.0135 55.3801 45.6198 55.3801 45.1549V38.0349C55.3801 37.3796 54.8493 36.8483 54.1934 36.8483C53.5375 36.8483 53.0067 37.3796 53.0067 38.0349V40.4083H49.4467C48.7908 40.4083 48.2601 40.9396 48.2601 41.5949V47.5283C48.2601 48.1824 47.7281 48.7149 47.0734 48.7149C46.4186 48.7149 45.8867 48.1824 45.8867 47.5283V26.1682H45.8864ZM42.1306 45.9277C42.5688 45.5688 43.034 45.2433 43.5131 44.9398V47.5283C43.5131 48.4432 43.8697 49.2703 44.439 49.9016H39.9531V47.7149L42.1306 45.9277ZM37.5798 46.3416V47.1533V49.9731C35.5055 50.1644 33.4923 50.7646 31.6464 51.7115V46.3416H37.5798ZM22.1531 47.5283H29.2731V53.2017C29.1025 53.3308 28.9257 53.4509 28.7599 53.5868L27.9986 54.2113C27.8239 53.7731 27.4005 53.4616 26.8998 53.4616H22.1531V47.5283ZM10.2864 77.1949V57.0216H17.4064V77.1949H10.2864ZM25.7131 78.3816H19.7798V55.8349H25.7131V78.3816ZM60.6097 79.5683H47.0731H36.9087C33.6356 79.5683 30.5028 78.3528 28.0864 76.1462V57.1723C28.1253 57.1474 28.1701 57.1385 28.2069 57.1085L30.2651 55.4211C32.737 53.3919 35.8612 52.2749 39.0607 52.2749H51.2264C52.2081 52.2749 53.0064 52.9748 53.0064 53.8354C53.0064 54.6951 52.2081 55.3953 51.1742 55.3964L41.0875 55.8361C40.4432 55.864 39.9391 56.4021 39.9531 57.0477C39.967 57.6926 40.4942 58.2083 41.1398 58.2083H62.983C64.0249 58.2083 64.8731 59.0066 64.8731 59.9883C64.8731 60.9699 64.0249 61.7683 62.983 61.7683H49.4464C48.7905 61.7683 48.2598 62.2996 48.2598 62.9549C48.2598 63.6103 48.7905 64.1416 49.4464 64.1416H57.7531V67.7016H50.6331C49.9772 67.7016 49.4464 68.2329 49.4464 68.8883C49.4464 69.5436 49.9772 70.0749 50.6331 70.0749H57.7531V72.4483C57.7531 72.8663 57.8388 73.262 57.9717 73.6349H49.4464C48.7905 73.6349 48.2598 74.1663 48.2598 74.8216C48.2598 75.4769 48.7905 76.0083 49.4464 76.0083H60.6097C61.6516 76.0083 62.4998 76.8066 62.4998 77.7883C62.4998 78.7699 61.6516 79.5683 60.6097 79.5683ZM72.4764 70.0749H66.8296C66.8255 70.0666 66.8228 70.0574 66.8186 70.0491C68.8333 69.9266 70.4596 68.4382 70.745 66.5149H72.4764C73.5183 66.5149 74.3664 67.3133 74.3664 68.2949C74.3664 69.2766 73.5183 70.0749 72.4764 70.0749ZM74.8497 64.1416H72.4764H70.3804C69.7301 62.814 68.3862 61.884 66.8053 61.7929C66.9937 61.4164 67.1209 61.0109 67.185 60.5816H74.8497C75.8916 60.5816 76.7398 61.3799 76.7398 62.3616C76.7398 63.3433 75.8916 64.1416 74.8497 64.1416ZM78.4236 58.2083H66.8189C66.619 57.8015 66.3609 57.428 66.0426 57.1073C66.0446 57.0777 66.0598 57.0521 66.0598 57.0216V54.6483H78.4236C79.4584 54.6483 80.2998 55.4466 80.2998 56.4283C80.2998 57.4099 79.4584 58.2083 78.4236 58.2083Z" fill="black"/>
<path d="M34.0199 20.0902C34.6758 20.0902 35.2066 19.5589 35.2066 18.9035V17.2244C35.2066 16.5691 34.6758 16.0377 34.0199 16.0377C33.364 16.0377 32.8333 16.5691 32.8333 17.2244V18.9035C32.8333 19.5589 33.364 20.0902 34.0199 20.0902Z" fill="black"/>
<path d="M34.0199 26.8055C34.6758 26.8055 35.2066 26.2742 35.2066 25.6188V23.9397C35.2066 23.2844 34.6758 22.7531 34.0199 22.7531C33.364 22.7531 32.8333 23.2844 32.8333 23.9397V25.6188C32.8333 26.2742 33.364 26.8055 34.0199 26.8055Z" fill="black"/>
<path d="M29.8227 22.6083H31.5018C32.1577 22.6083 32.6884 22.0769 32.6884 21.4216C32.6884 20.7663 32.1577 20.2349 31.5018 20.2349H29.8227C29.1667 20.2349 28.636 20.7663 28.636 21.4216C28.636 22.0769 29.1667 22.6083 29.8227 22.6083Z" fill="black"/>
<path d="M36.5377 22.6083H38.2169C38.8728 22.6083 39.4035 22.0769 39.4035 21.4216C39.4035 20.7663 38.8728 20.2349 38.2169 20.2349H36.5377C35.8818 20.2349 35.3511 20.7663 35.3511 21.4216C35.3511 22.0769 35.8818 22.6083 36.5377 22.6083Z" fill="black"/>
</svg>
