<svg width="58" height="44" viewBox="0 0 58 44" fill="none" xmlns="http://www.w3.org/2000/svg">
<path d="M57.19 41.01C57.19 42.12 56.28 43.02 55.15 43.02H2.54001C1.41001 43.02 0.5 42.12 0.5 41.01V2.51C0.5 1.4 1.41001 0.5 2.54001 0.5H55.15C56.28 0.5 57.19 1.4 57.19 2.51V41.01Z" fill="black"/>
<path d="M55.15 43.52H2.54001C1.14001 43.52 0 42.39 0 41.01V2.51C0 1.13 1.14001 0 2.54001 0H55.15C56.55 0 57.69 1.13 57.69 2.51V41.01C57.69 42.4 56.55 43.52 55.15 43.52ZM2.54001 1C1.69001 1 1 1.68 1 2.51V41.01C1 41.84 1.69001 42.52 2.54001 42.52H55.15C56 42.52 56.69 41.84 56.69 41.01V2.51C56.69 1.68 56 1 55.15 1H2.54001V1Z" fill="url(#paint0_linear)"/>
<path d="M45.5601 20.7701L42.4801 20.6801C42.4701 20.0501 42.4301 19.4301 42.3501 18.8301L45.4301 18.9201C45.5101 19.5101 45.5501 20.1301 45.5601 20.7701Z" fill="#8A8A8A"/>
<path d="M45.5601 20.7701L42.4801 20.6801C42.4701 20.0501 42.4301 19.4301 42.3501 18.8301L45.4301 18.9201C45.5101 19.5101 45.5501 20.1301 45.5601 20.7701Z" fill="#8A8A8A"/>
<path d="M45.4303 18.9201L42.3503 18.8301C41.7203 13.9901 38.7803 10.4801 35.2803 10.3801L38.3603 10.4701C41.8603 10.5701 44.8003 14.0701 45.4303 18.9201Z" fill="#858585"/>
<path d="M45.4303 18.9201L42.3503 18.8301C41.7203 13.9901 38.7803 10.4801 35.2803 10.3801L38.3603 10.4701C41.8603 10.5701 44.8003 14.0701 45.4303 18.9201Z" fill="#858585"/>
<path d="M45.4303 18.9201L42.3503 18.8301C41.7203 13.9901 38.7803 10.4801 35.2803 10.3801L38.3603 10.4701C41.8603 10.5701 44.8003 14.0701 45.4303 18.9201Z" fill="#858585"/>
<path d="M45.4303 18.9201L42.3503 18.8301C41.7203 13.9901 38.7803 10.4801 35.2803 10.3801L38.3603 10.4701C41.8603 10.5701 44.8003 14.0701 45.4303 18.9201Z" fill="#858585"/>
<path d="M45.4303 18.9201L42.3503 18.8301C41.7203 13.9901 38.7803 10.4801 35.2803 10.3801L38.3603 10.4701C41.8603 10.5701 44.8003 14.0701 45.4303 18.9201Z" fill="#858585"/>
<path d="M45.4303 18.9201L42.3503 18.8301C41.7203 13.9901 38.7803 10.4801 35.2803 10.3801L38.3603 10.4701C41.8603 10.5701 44.8003 14.0701 45.4303 18.9201Z" fill="#858585"/>
<path d="M45.4303 18.9201L42.3503 18.8301C41.7203 13.9901 38.7803 10.4801 35.2803 10.3801L38.3603 10.4701C41.8603 10.5701 44.8003 14.0701 45.4303 18.9201Z" fill="#858585"/>
<path d="M45.4303 18.9201L42.3503 18.8301C41.7203 13.9901 38.7803 10.4801 35.2803 10.3801L38.3603 10.4701C41.8603 10.5701 44.8003 14.0701 45.4303 18.9201Z" fill="#858585"/>
<path d="M45.4303 18.9201L42.3503 18.8301C41.7203 13.9901 38.7803 10.4801 35.2803 10.3801L38.3603 10.4701C41.8603 10.5701 44.8003 14.0701 45.4303 18.9201Z" fill="#858585"/>
<path d="M45.4303 18.9201L42.3503 18.8301C41.7203 13.9901 38.7803 10.4801 35.2803 10.3801L38.3603 10.4701C41.8603 10.5701 44.8003 14.0701 45.4303 18.9201Z" fill="#858585"/>
<path d="M45.4303 18.9201L42.3503 18.8301C41.7203 13.9901 38.7803 10.4801 35.2803 10.3801L38.3603 10.4701C41.8603 10.5701 44.8003 14.0701 45.4303 18.9201Z" fill="#858585"/>
<path d="M45.4303 18.9201L42.3503 18.8301C41.7203 13.9901 38.7803 10.4801 35.2803 10.3801L38.3603 10.4701C41.8603 10.5701 44.8003 14.0701 45.4303 18.9201Z" fill="#858585"/>
<path d="M45.4303 18.9201L42.3503 18.8301C41.7203 13.9901 38.7803 10.4801 35.2803 10.3801L38.3603 10.4701C41.8603 10.5701 44.8003 14.0701 45.4303 18.9201Z" fill="#858585"/>
<path d="M45.4303 18.9201L42.3503 18.8301C41.7203 13.9901 38.7803 10.4801 35.2803 10.3801L38.3603 10.4701C41.8603 10.5701 44.8003 14.0701 45.4303 18.9201Z" fill="#858585"/>
<path d="M41.5699 20.92L38.4899 20.83C38.4899 20.36 38.4599 19.92 38.3999 19.51L41.4799 19.6C41.5399 20.01 41.5699 20.45 41.5699 20.92Z" fill="#8A8A8A"/>
<path d="M45.4303 18.9201L42.3503 18.8301C41.7203 13.9901 38.7803 10.4801 35.2803 10.3801L38.3603 10.4701C41.8603 10.5701 44.8003 14.0701 45.4303 18.9201Z" fill="#858585"/>
<path d="M45.4303 18.9201L42.3503 18.8301C41.7203 13.9901 38.7803 10.4801 35.2803 10.3801L38.3603 10.4701C41.8603 10.5701 44.8003 14.0701 45.4303 18.9201Z" fill="#858585"/>
<path d="M41.4903 19.6001L38.4103 19.5101C38.0403 16.6901 36.5503 15.1201 34.5303 15.0701L37.6103 15.1601C39.6203 15.2101 41.1203 16.7801 41.4903 19.6001Z" fill="#858585"/>
<path d="M45.4303 18.9201L42.3503 18.8301C41.7203 13.9901 38.7803 10.4801 35.2803 10.3801L38.3603 10.4701C41.8603 10.5701 44.8003 14.0701 45.4303 18.9201Z" fill="#858585"/>
<path d="M37.9902 10.4701L34.9102 10.3801C34.9402 10.3801 34.9702 10.3801 35.0002 10.3801L38.0802 10.4701C38.0502 10.4701 38.0202 10.4701 37.9902 10.4701Z" fill="#949494"/>
<path d="M37.9902 10.4701L34.9102 10.3801C34.9702 10.3801 35.0202 10.3801 35.0802 10.3801C35.1102 10.3801 35.1402 10.3801 35.1702 10.3801C35.1902 10.3801 35.2002 10.3801 35.2202 10.3801L38.3002 10.4701C38.2802 10.4701 38.2702 10.4701 38.2502 10.4701C38.2202 10.4701 38.1902 10.4701 38.1602 10.4701C38.1102 10.4601 38.0502 10.4701 37.9902 10.4701Z" fill="#8A8A8A"/>
<path d="M38.3002 10.4601L35.2202 10.3701C35.2402 10.3701 35.2502 10.3701 35.2702 10.3701C35.2702 10.3701 35.2702 10.3701 35.2802 10.3701L38.3602 10.4601C38.3302 10.4601 38.3102 10.4601 38.3002 10.4601Z" fill="#878787"/>
<path d="M38.1303 10.4601L35.0503 10.3701C35.0903 10.3701 35.1403 10.3701 35.1803 10.3701L38.2603 10.4601C38.2203 10.4601 38.1803 10.4601 38.1303 10.4601Z" fill="#949494"/>
<path d="M41.4903 19.6001L38.4103 19.5101C38.0403 16.6901 36.5503 15.1201 34.5303 15.0701L37.6103 15.1601C39.6203 15.2101 41.1203 16.7801 41.4903 19.6001Z" fill="#858585"/>
<path d="M45.4303 18.9201L42.3503 18.8301C41.7203 13.9901 38.7803 10.4801 35.2803 10.3801L38.3603 10.4701C41.8603 10.5701 44.8003 14.0701 45.4303 18.9201Z" fill="#858585"/>
<path d="M45.4303 18.9201L42.3503 18.8301C41.7203 13.9901 38.7803 10.4801 35.2803 10.3801L38.3603 10.4701C41.8603 10.5701 44.8003 14.0701 45.4303 18.9201Z" fill="#858585"/>
<path d="M41.4903 19.6001L38.4103 19.5101C38.0403 16.6901 36.5503 15.1201 34.5303 15.0701L37.6103 15.1601C39.6203 15.2101 41.1203 16.7801 41.4903 19.6001Z" fill="#858585"/>
<path d="M45.4303 18.9201L42.3503 18.8301C41.7203 13.9901 38.7803 10.4801 35.2803 10.3801L38.3603 10.4701C41.8603 10.5701 44.8003 14.0701 45.4303 18.9201Z" fill="#858585"/>
<path d="M45.4303 18.9201L42.3503 18.8301C41.7203 13.9901 38.7803 10.4801 35.2803 10.3801L38.3603 10.4701C41.8603 10.5701 44.8003 14.0701 45.4303 18.9201Z" fill="#858585"/>
<path d="M41.4903 19.6001L38.4103 19.5101C38.0403 16.6901 36.5503 15.1201 34.5303 15.0701L37.6103 15.1601C39.6203 15.2101 41.1203 16.7801 41.4903 19.6001Z" fill="#858585"/>
<path d="M45.4303 18.9201L42.3503 18.8301C41.7203 13.9901 38.7803 10.4801 35.2803 10.3801L38.3603 10.4701C41.8603 10.5701 44.8003 14.0701 45.4303 18.9201Z" fill="#858585"/>
<path d="M45.4303 18.9201L42.3503 18.8301C41.7203 13.9901 38.7803 10.4801 35.2803 10.3801L38.3603 10.4701C41.8603 10.5701 44.8003 14.0701 45.4303 18.9201Z" fill="#858585"/>
<path d="M41.4903 19.6001L38.4103 19.5101C38.0403 16.6901 36.5503 15.1201 34.5303 15.0701L37.6103 15.1601C39.6203 15.2101 41.1203 16.7801 41.4903 19.6001Z" fill="#858585"/>
<path d="M45.4303 18.9201L42.3503 18.8301C41.7203 13.9901 38.7803 10.4801 35.2803 10.3801L38.3603 10.4701C41.8603 10.5701 44.8003 14.0701 45.4303 18.9201Z" fill="#858585"/>
<path d="M45.4303 18.9201L42.3503 18.8301C41.7203 13.9901 38.7803 10.4801 35.2803 10.3801L38.3603 10.4701C41.8603 10.5701 44.8003 14.0701 45.4303 18.9201Z" fill="#858585"/>
<path d="M41.4903 19.6001L38.4103 19.5101C38.0403 16.6901 36.5503 15.1201 34.5303 15.0701L37.6103 15.1601C39.6203 15.2101 41.1203 16.7801 41.4903 19.6001Z" fill="#858585"/>
<path d="M38.1303 10.4601L35.0503 10.3701C35.0903 10.3701 35.1403 10.3701 35.1803 10.3701L38.2603 10.4601C38.2203 10.4601 38.1803 10.4601 38.1303 10.4601Z" fill="#949494"/>
<path d="M38.1303 10.4601L35.0503 10.3701C35.0903 10.3701 35.1403 10.3701 35.1803 10.3701L38.2603 10.4601C38.2203 10.4601 38.1803 10.4601 38.1303 10.4601Z" fill="#949494"/>
<path d="M38.2704 10.4601L35.1904 10.3701C35.2204 10.3701 35.2504 10.3701 35.2804 10.3701L38.3604 10.4601C38.3304 10.4601 38.3004 10.4601 38.2704 10.4601Z" fill="#8F8F8F"/>
<path d="M37.9902 10.4701L34.9102 10.3801C34.9402 10.3801 34.9702 10.3801 35.0002 10.3801L38.0802 10.4701C38.0502 10.4701 38.0202 10.4701 37.9902 10.4701Z" fill="#949494"/>
<path d="M37.9902 10.4701L34.9102 10.3801C34.9402 10.3801 34.9702 10.3801 35.0002 10.3801L38.0802 10.4701C38.0502 10.4701 38.0202 10.4701 37.9902 10.4701Z" fill="#949494"/>
<path d="M41.4903 19.6001L38.4103 19.5101C38.0403 16.6901 36.5503 15.1201 34.5303 15.0701L37.6103 15.1601C39.6203 15.2101 41.1203 16.7801 41.4903 19.6001Z" fill="#858585"/>
<path d="M41.5703 20.9201C41.5703 20.8601 41.5703 20.8001 41.5703 20.7501C41.5703 20.7201 41.5703 20.6901 41.5703 20.6601C41.5703 20.6301 41.5703 20.6101 41.5703 20.5801C41.5703 20.5601 41.5703 20.5401 41.5703 20.5101C41.5703 20.4801 41.5703 20.4401 41.5703 20.4101C41.5703 20.3901 41.5703 20.3701 41.5703 20.3501C41.5703 20.3201 41.5703 20.2801 41.5603 20.2501C41.5603 20.2301 41.5603 20.2101 41.5603 20.1801C41.5603 20.1501 41.5603 20.1101 41.5503 20.0801C41.5503 20.0601 41.5503 20.0501 41.5503 20.0301C41.5503 19.9901 41.5403 19.9601 41.5403 19.9201C41.5403 19.9001 41.5403 19.8801 41.5303 19.8601C41.5303 19.8301 41.5203 19.7901 41.5203 19.7601C41.5203 19.7401 41.5203 19.7201 41.5103 19.7001C41.5103 19.6701 41.5003 19.6401 41.5003 19.6101V19.6001C41.5003 19.5801 41.4903 19.5601 41.4903 19.5501C41.4903 19.5201 41.4803 19.4801 41.4803 19.4501C41.4803 19.4301 41.4703 19.4101 41.4703 19.4001C41.4603 19.3701 41.4603 19.3301 41.4503 19.3001C41.4503 19.2801 41.4403 19.2701 41.4403 19.2501C41.4303 19.2201 41.4303 19.1801 41.4203 19.1501C41.4203 19.1301 41.4103 19.1101 41.4103 19.0901C41.4003 19.0601 41.4003 19.0301 41.3903 19.0001C41.3903 18.9801 41.3803 18.9701 41.3803 18.9501C41.3703 18.9201 41.3703 18.8901 41.3603 18.8601C41.3603 18.8401 41.3503 18.8301 41.3503 18.8101C41.3403 18.7801 41.3403 18.7501 41.3303 18.7201C41.3303 18.7001 41.3203 18.6901 41.3203 18.6701C41.3103 18.6401 41.3003 18.6101 41.3003 18.5801C41.3003 18.5601 41.2903 18.5501 41.2903 18.5301C41.2803 18.5001 41.2703 18.4701 41.2703 18.4401C41.2703 18.4301 41.2603 18.4101 41.2603 18.4001C41.2503 18.3701 41.2403 18.3401 41.2303 18.3101C41.2303 18.2901 41.2203 18.2801 41.2203 18.2601C41.2103 18.2301 41.2003 18.2001 41.1903 18.1701C41.1903 18.1601 41.1803 18.1401 41.1803 18.1301C41.1703 18.1001 41.1603 18.0701 41.1503 18.0401C41.1503 18.0301 41.1403 18.0201 41.1403 18.0001C41.1303 17.9701 41.1203 17.9401 41.1103 17.9101C41.1103 17.9001 41.1003 17.8901 41.1003 17.8701C41.0903 17.8401 41.0803 17.8101 41.0703 17.7801C41.0703 17.7701 41.0603 17.7601 41.0603 17.7401C41.0503 17.7101 41.0403 17.6801 41.0203 17.6601C41.0103 17.6501 41.0103 17.6401 41.0003 17.6301C40.9903 17.6001 40.9803 17.5701 40.9603 17.5501C40.9603 17.5401 40.9503 17.5301 40.9503 17.5201C40.9403 17.4901 40.9203 17.4601 40.9103 17.4401C40.9003 17.4301 40.9003 17.4201 40.8903 17.4101C40.8803 17.3801 40.8603 17.3601 40.8503 17.3301C40.8403 17.3201 40.8403 17.3101 40.8303 17.3001C40.8203 17.2701 40.8003 17.2501 40.7903 17.2201C40.7803 17.2101 40.7803 17.2001 40.7703 17.1901C40.7603 17.1601 40.7403 17.1401 40.7303 17.1101C40.7203 17.1001 40.7203 17.0901 40.7103 17.0801C40.6903 17.0501 40.6803 17.0301 40.6603 17.0001C40.6503 16.9901 40.6503 16.9801 40.6403 16.9701C40.6203 16.9401 40.6103 16.9201 40.5903 16.8901C40.5803 16.8801 40.5803 16.8701 40.5703 16.8601C40.5503 16.8401 40.5403 16.8101 40.5203 16.7901C40.5103 16.7801 40.5103 16.7701 40.5003 16.7701C40.4803 16.7501 40.4703 16.7201 40.4503 16.7001C40.4403 16.6901 40.4403 16.6801 40.4303 16.6801C40.4103 16.6601 40.4003 16.6301 40.3803 16.6101C40.3703 16.6001 40.3703 16.5901 40.3603 16.5901C40.3403 16.5701 40.3203 16.5401 40.3103 16.5201C40.3003 16.5101 40.3003 16.5001 40.2903 16.5001C40.2703 16.4801 40.2503 16.4601 40.2403 16.4301C40.2303 16.4201 40.2303 16.4201 40.2203 16.4101C40.2003 16.3901 40.1803 16.3701 40.1603 16.3501C40.1503 16.3401 40.1503 16.3401 40.1403 16.3301C40.1203 16.3101 40.1003 16.2901 40.0803 16.2701C40.0703 16.2601 40.0703 16.2601 40.0603 16.2501C40.0403 16.2301 40.0203 16.2101 40.0003 16.1901C39.9903 16.1801 39.9903 16.1801 39.9803 16.1701C39.9603 16.1501 39.9403 16.1301 39.9203 16.1101C39.9103 16.1001 39.9103 16.1001 39.9003 16.0901C39.8803 16.0701 39.8603 16.0501 39.8403 16.0301C39.8303 16.0201 39.8303 16.0201 39.8203 16.0101C39.8003 15.9901 39.7803 15.9701 39.7603 15.9601C39.7503 15.9501 39.7503 15.9501 39.7403 15.9401C39.7203 15.9201 39.7003 15.9101 39.6803 15.8901C39.6703 15.8901 39.6703 15.8801 39.6603 15.8801C39.6403 15.8601 39.6203 15.8501 39.5903 15.8301C39.5803 15.8301 39.5803 15.8201 39.5703 15.8201C39.5503 15.8001 39.5303 15.7901 39.5003 15.7701C39.4903 15.7701 39.4903 15.7601 39.4803 15.7601C39.4603 15.7401 39.4303 15.7301 39.4103 15.7101C39.4003 15.7101 39.4003 15.7001 39.3903 15.7001C39.3703 15.6901 39.3403 15.6701 39.3203 15.6601C39.3103 15.6601 39.3103 15.6501 39.3003 15.6501C39.2803 15.6401 39.2503 15.6201 39.2303 15.6101C39.2203 15.6101 39.2103 15.6001 39.2103 15.6001C39.1903 15.5901 39.1603 15.5801 39.1403 15.5601C39.1303 15.5601 39.1203 15.5501 39.1203 15.5501C39.1003 15.5401 39.0703 15.5301 39.0503 15.5201C39.0403 15.5201 39.0303 15.5101 39.0203 15.5101C39.0003 15.5001 38.9703 15.4901 38.9503 15.4801C38.9403 15.4801 38.9303 15.4701 38.9203 15.4701C38.9003 15.4601 38.8703 15.4501 38.8503 15.4401C38.8403 15.4401 38.8303 15.4301 38.8203 15.4301C38.8003 15.4201 38.7703 15.4101 38.7503 15.4001C38.7403 15.4001 38.7303 15.3901 38.7203 15.3901C38.7003 15.3801 38.6703 15.3701 38.6503 15.3701C38.6403 15.3701 38.6303 15.3601 38.6203 15.3601C38.6003 15.3501 38.5703 15.3501 38.5503 15.3401C38.5403 15.3401 38.5303 15.3301 38.5203 15.3301C38.5003 15.3201 38.4703 15.3201 38.4503 15.3101C38.4403 15.3101 38.4303 15.3001 38.4203 15.3001C38.4003 15.2901 38.3703 15.2901 38.3503 15.2801C38.3403 15.2801 38.3303 15.2701 38.3203 15.2701C38.3003 15.2601 38.2703 15.2601 38.2503 15.2601C38.2403 15.2601 38.2303 15.2501 38.2103 15.2501C38.1903 15.2501 38.1603 15.2401 38.1403 15.2401C38.1303 15.2401 38.1103 15.2401 38.1003 15.2301C38.0803 15.2301 38.0503 15.2201 38.0303 15.2201C38.0203 15.2201 38.0003 15.2201 37.9903 15.2101C37.9703 15.2101 37.9403 15.2001 37.9203 15.2001C37.9103 15.2001 37.8903 15.2001 37.8803 15.2001C37.8603 15.2001 37.8303 15.2001 37.8103 15.1901C37.8003 15.1901 37.7803 15.1901 37.7703 15.1901C37.7503 15.1901 37.7203 15.1901 37.7003 15.1901C37.6903 15.1901 37.6703 15.1901 37.6603 15.1901C37.6503 15.1901 37.6403 15.1901 37.6303 15.1901L34.5503 15.1001C34.5603 15.1001 34.5703 15.1001 34.5803 15.1001C34.5903 15.1001 34.6103 15.1001 34.6203 15.1001C34.6403 15.1001 34.6703 15.1001 34.6903 15.1001C34.7003 15.1001 34.7203 15.1001 34.7303 15.1001C34.7503 15.1001 34.7803 15.1001 34.8003 15.1101C34.8103 15.1101 34.8303 15.1101 34.8403 15.1101C34.8603 15.1101 34.8903 15.1201 34.9103 15.1201C34.9203 15.1201 34.9403 15.1201 34.9503 15.1301C34.9703 15.1301 35.0003 15.1401 35.0203 15.1401C35.0303 15.1401 35.0503 15.1401 35.0603 15.1501C35.0803 15.1501 35.1103 15.1601 35.1303 15.1601C35.1403 15.1601 35.1503 15.1601 35.1703 15.1701C35.1903 15.1701 35.2203 15.1801 35.2403 15.1801C35.2503 15.1801 35.2603 15.1901 35.2703 15.1901C35.2903 15.2001 35.3203 15.2001 35.3403 15.2101C35.3503 15.2101 35.3603 15.2201 35.3703 15.2201C35.3903 15.2301 35.4203 15.2301 35.4403 15.2401C35.4503 15.2401 35.4603 15.2501 35.4703 15.2501C35.4903 15.2601 35.5203 15.2601 35.5403 15.2701C35.5503 15.2701 35.5603 15.2801 35.5703 15.2801C35.5903 15.2901 35.6203 15.3001 35.6403 15.3001C35.6503 15.3001 35.6603 15.3101 35.6703 15.3101C35.6903 15.3201 35.7203 15.3301 35.7403 15.3401C35.7503 15.3401 35.7603 15.3501 35.7703 15.3501C35.7903 15.3601 35.8203 15.3701 35.8403 15.3801C35.8503 15.3801 35.8603 15.3901 35.8703 15.3901C35.8903 15.4001 35.9203 15.4101 35.9403 15.4201C35.9503 15.4201 35.9603 15.4301 35.9703 15.4301C35.9903 15.4401 36.0203 15.4501 36.0403 15.4601C36.0503 15.4601 36.0603 15.4701 36.0603 15.4701C36.0803 15.4801 36.1103 15.4901 36.1303 15.5101C36.1403 15.5101 36.1503 15.5201 36.1503 15.5201C36.1703 15.5301 36.2003 15.5501 36.2203 15.5601C36.2303 15.5601 36.2303 15.5701 36.2403 15.5701C36.2603 15.5801 36.2903 15.6001 36.3103 15.6101C36.3203 15.6101 36.3203 15.6201 36.3303 15.6201C36.3503 15.6301 36.3803 15.6501 36.4003 15.6701C36.4103 15.6701 36.4103 15.6801 36.4203 15.6801C36.4403 15.7001 36.4703 15.7101 36.4903 15.7301C36.5003 15.7301 36.5003 15.7401 36.5103 15.7401C36.5303 15.7601 36.5503 15.7701 36.5803 15.7901C36.5903 15.7901 36.5903 15.8001 36.6003 15.8001C36.6203 15.8201 36.6403 15.8301 36.6603 15.8501C36.6703 15.8601 36.6703 15.8601 36.6803 15.8701C36.7003 15.8901 36.7203 15.9101 36.7403 15.9201C36.7503 15.9301 36.7503 15.9301 36.7603 15.9401C36.7803 15.9601 36.8003 15.9801 36.8203 16.0001C36.8303 16.0101 36.8303 16.0101 36.8403 16.0201C36.8603 16.0401 36.8803 16.0601 36.9003 16.0801C36.9103 16.0901 36.9103 16.0901 36.9203 16.1001C36.9403 16.1201 36.9603 16.1401 36.9803 16.1601C36.9903 16.1701 36.9903 16.1701 37.0003 16.1801C37.0203 16.2001 37.0403 16.2201 37.0603 16.2401C37.0703 16.2501 37.0703 16.2501 37.0803 16.2601C37.1003 16.2801 37.1203 16.3001 37.1403 16.3201C37.1503 16.3301 37.1503 16.3301 37.1603 16.3401C37.1803 16.3601 37.2003 16.3801 37.2103 16.4101C37.2203 16.4201 37.2203 16.4301 37.2303 16.4301C37.2503 16.4501 37.2703 16.4701 37.2803 16.5001C37.2903 16.5101 37.2903 16.5201 37.3003 16.5201C37.3203 16.5401 37.3303 16.5701 37.3503 16.5901C37.3603 16.6001 37.3603 16.6101 37.3703 16.6101C37.3903 16.6301 37.4003 16.6601 37.4203 16.6801C37.4303 16.6901 37.4303 16.7001 37.4403 16.7001C37.4603 16.7201 37.4703 16.7501 37.4903 16.7701C37.5003 16.7801 37.5003 16.7901 37.5103 16.8001C37.5303 16.8201 37.5403 16.8501 37.5603 16.8801C37.5703 16.8901 37.5703 16.9001 37.5803 16.9101C37.6003 16.9401 37.6103 16.9601 37.6303 16.9901C37.6403 17.0001 37.6403 17.0101 37.6503 17.0201C37.6703 17.0501 37.6803 17.0701 37.6903 17.1001C37.7003 17.1101 37.7003 17.1201 37.7103 17.1301C37.7203 17.1601 37.7403 17.1801 37.7503 17.2101C37.7603 17.2201 37.7603 17.2301 37.7703 17.2401C37.7803 17.2701 37.8003 17.2901 37.8103 17.3201C37.8203 17.3301 37.8203 17.3401 37.8303 17.3501C37.8403 17.3801 37.8603 17.4101 37.8703 17.4301C37.8703 17.4401 37.8803 17.4501 37.8803 17.4601C37.8903 17.4901 37.9003 17.5201 37.9203 17.5401C37.9303 17.5501 37.9303 17.5601 37.9403 17.5701C37.9503 17.6001 37.9603 17.6301 37.9803 17.6501C37.9903 17.6601 37.9903 17.6701 37.9903 17.6901C38.0003 17.7201 38.0103 17.7501 38.0203 17.7801C38.0203 17.7901 38.0303 17.8001 38.0303 17.8201C38.0403 17.8501 38.0503 17.8801 38.0603 17.9101C38.0603 17.9201 38.0703 17.9301 38.0703 17.9501C38.0803 17.9801 38.0903 18.0101 38.1003 18.0401C38.1003 18.0501 38.1103 18.0701 38.1103 18.0801C38.1203 18.1101 38.1303 18.1401 38.1403 18.1701C38.1403 18.1901 38.1503 18.2001 38.1503 18.2201C38.1603 18.2501 38.1703 18.2801 38.1803 18.3101C38.1803 18.3201 38.1903 18.3401 38.1903 18.3501C38.2003 18.3801 38.2103 18.4101 38.2103 18.4401C38.2103 18.4601 38.2203 18.4701 38.2203 18.4901C38.2303 18.5201 38.2403 18.5501 38.2403 18.5801C38.2403 18.6001 38.2503 18.6101 38.2503 18.6301C38.2603 18.6601 38.2603 18.6901 38.2703 18.7201C38.2703 18.7401 38.2803 18.7501 38.2803 18.7701C38.2903 18.8001 38.2903 18.8301 38.3003 18.8601C38.3003 18.8801 38.3103 18.8901 38.3103 18.9101C38.3203 18.9401 38.3203 18.9701 38.3303 19.0001C38.3303 19.0201 38.3403 19.0401 38.3403 19.0601C38.3503 19.0901 38.3503 19.1301 38.3603 19.1601C38.3603 19.1801 38.3703 19.1901 38.3703 19.2101C38.3803 19.2401 38.3803 19.2801 38.3903 19.3101C38.3903 19.3301 38.4003 19.3501 38.4003 19.3601C38.4103 19.3901 38.4103 19.4301 38.4103 19.4601C38.4103 19.4801 38.4203 19.5001 38.4203 19.5101C38.4203 19.5401 38.4303 19.5801 38.4303 19.6101C38.4303 19.6301 38.4303 19.6501 38.4403 19.6701C38.4403 19.7001 38.4503 19.7401 38.4503 19.7701C38.4503 19.7901 38.4503 19.8101 38.4603 19.8301C38.4603 19.8701 38.4703 19.9001 38.4703 19.9401C38.4703 19.9601 38.4703 19.9701 38.4703 19.9901C38.4703 20.0201 38.4803 20.0601 38.4803 20.0901C38.4803 20.1101 38.4803 20.1301 38.4803 20.1601C38.4803 20.1901 38.4803 20.2301 38.4903 20.2601C38.4903 20.2801 38.4903 20.3001 38.4903 20.3201C38.4903 20.3501 38.4903 20.3901 38.4903 20.4201C38.4903 20.4401 38.4903 20.4601 38.4903 20.4901C38.4903 20.5201 38.4903 20.5401 38.4903 20.5701C38.4903 20.6001 38.4903 20.6301 38.4903 20.6601C38.4903 20.7201 38.4903 20.7801 38.4903 20.8301C38.4903 20.8601 38.4903 20.8901 38.4903 20.9301C38.4903 20.9501 38.4903 20.9601 38.4903 20.9801C38.4903 21.0101 38.4903 21.0401 38.4903 21.0701C38.4903 21.1001 38.4903 21.1401 38.4903 21.1701C38.4903 21.2001 38.4903 21.2301 38.4903 21.2501C38.4903 21.2801 38.4903 21.3201 38.4903 21.3501C38.4903 21.3801 38.4903 21.4101 38.4903 21.4401C38.4903 21.4701 38.4903 21.5001 38.4903 21.5401C38.4903 21.5701 38.4903 21.6001 38.4903 21.6201C38.4903 21.6501 38.4903 21.6801 38.4803 21.7101C38.4803 21.7401 38.4803 21.7701 38.4703 21.7901C38.4703 21.8201 38.4703 21.8501 38.4603 21.8801C38.4603 21.9101 38.4603 21.9301 38.4503 21.9601C38.4503 21.9901 38.4403 22.0201 38.4403 22.0501C38.4403 22.0801 38.4303 22.1001 38.4303 22.1301C38.4303 22.1601 38.4203 22.1901 38.4203 22.2201C38.4203 22.2501 38.4103 22.2701 38.4103 22.3001C38.4103 22.3301 38.4003 22.3601 38.4003 22.3901C38.4003 22.4201 38.3903 22.4401 38.3903 22.4701C38.3903 22.5001 38.3803 22.5301 38.3803 22.5601C38.3803 22.5901 38.3703 22.6101 38.3703 22.6401C38.3703 22.6701 38.3603 22.6901 38.3603 22.7201C38.3603 22.7501 38.3503 22.7701 38.3503 22.8001C38.3503 22.8301 38.3403 22.8501 38.3403 22.8801C38.3403 22.9101 38.3303 22.9301 38.3303 22.9601C38.3203 22.9901 38.3203 23.0101 38.3103 23.0401C38.3003 23.0601 38.3003 23.0901 38.2903 23.1101C38.2803 23.1401 38.2803 23.1601 38.2703 23.1901C38.2603 23.2101 38.2603 23.2401 38.2503 23.2601C38.2403 23.2901 38.2403 23.3101 38.2303 23.3401C38.2203 23.3601 38.2203 23.3901 38.2103 23.4101C38.2003 23.4301 38.2003 23.4601 38.1903 23.4801C38.1803 23.5001 38.1803 23.5301 38.1703 23.5501C38.1603 23.5701 38.1603 23.6001 38.1503 23.6201C38.1403 23.6401 38.1403 23.6701 38.1303 23.6901C38.1203 23.7101 38.1203 23.7401 38.1103 23.7601C38.1003 23.7801 38.1003 23.8001 38.0903 23.8301C38.0803 23.8501 38.0703 23.8701 38.0703 23.9001C38.0603 23.9201 38.0503 23.9401 38.0503 23.9701C38.0403 23.9901 38.0303 24.0101 38.0303 24.0301C38.0203 24.0501 38.0103 24.0701 38.0103 24.1001C38.0003 24.1201 37.9903 24.1401 37.9903 24.1601C37.9803 24.1801 37.9703 24.2001 37.9703 24.2201C37.9603 24.2401 37.9503 24.2601 37.9403 24.2801C37.9303 24.3001 37.9203 24.3201 37.9103 24.3401C37.9003 24.3601 37.8903 24.3801 37.8803 24.4001C37.8703 24.4201 37.8603 24.4401 37.8503 24.4601C37.8403 24.4801 37.8303 24.5001 37.8203 24.5201C37.8103 24.5401 37.8003 24.5601 37.7903 24.5801C37.7803 24.6001 37.7703 24.6201 37.7603 24.6401C37.7503 24.6601 37.7403 24.6801 37.7303 24.7001C37.7203 24.7201 37.7103 24.7401 37.7003 24.7501C37.6903 24.7701 37.6803 24.7901 37.6703 24.8101C37.6603 24.8301 37.6503 24.8501 37.6403 24.8701C37.6303 24.8901 37.6203 24.9101 37.6103 24.9201C37.6003 24.9401 37.5903 24.9601 37.5803 24.9701C37.5703 24.9901 37.5603 25.0001 37.5503 25.0201C37.5403 25.0401 37.5303 25.0601 37.5203 25.0701C37.5103 25.0901 37.5003 25.1001 37.4903 25.1201C37.4803 25.1401 37.4703 25.1501 37.4603 25.1701C37.4503 25.1901 37.4403 25.2001 37.4303 25.2201C37.4203 25.2401 37.4103 25.2501 37.4003 25.2701C37.3903 25.2901 37.3803 25.3001 37.3703 25.3201C37.3603 25.3401 37.3503 25.3501 37.3303 25.3701C37.3203 25.3901 37.3103 25.4001 37.2903 25.4201C37.2803 25.4401 37.2703 25.4501 37.2503 25.4701C37.2403 25.4901 37.2303 25.5001 37.2103 25.5201C37.2003 25.5301 37.1903 25.5501 37.1703 25.5601C37.1603 25.5701 37.1503 25.5901 37.1303 25.6001C37.1203 25.6101 37.1003 25.6301 37.0903 25.6401C37.0803 25.6501 37.0703 25.6701 37.0503 25.6801C37.0403 25.6901 37.0203 25.7101 37.0103 25.7201C37.0003 25.7301 36.9803 25.7501 36.9703 25.7601C36.9603 25.7701 36.9403 25.7901 36.9303 25.8001C36.9203 25.8101 36.9003 25.8301 36.8903 25.8401C36.8803 25.8501 36.8603 25.8701 36.8503 25.8801C36.8403 25.8901 36.8203 25.9101 36.8103 25.9201C36.8003 25.9301 36.7803 25.9501 36.7703 25.9601C36.7603 25.9701 36.7403 25.9801 36.7303 26.0001C36.7203 26.0101 36.7003 26.0201 36.6903 26.0401C36.6803 26.0501 36.6603 26.0601 36.6503 26.0801C36.6403 26.0901 36.6203 26.1001 36.6103 26.1101C36.6003 26.1201 36.5803 26.1301 36.5703 26.1401C36.5603 26.1501 36.5403 26.1601 36.5303 26.1701C36.5203 26.1801 36.5003 26.1901 36.4903 26.2001C36.4803 26.2101 36.4603 26.2201 36.4503 26.2301C36.4403 26.2401 36.4203 26.2501 36.4103 26.2601C36.3903 26.2701 36.3803 26.2801 36.3603 26.2901C36.3503 26.3001 36.3303 26.3101 36.3203 26.3201C36.3103 26.3301 36.2903 26.3401 36.2803 26.3501C36.2603 26.3601 36.2503 26.3701 36.2303 26.3801C36.2203 26.3901 36.2003 26.4001 36.1903 26.4101C36.1703 26.4201 36.1603 26.4301 36.1403 26.4401C36.1203 26.4501 36.1103 26.4601 36.0903 26.4701C36.0703 26.4801 36.0603 26.4901 36.0403 26.5001C36.0203 26.5101 36.0103 26.5201 35.9903 26.5201C35.9703 26.5301 35.9603 26.5401 35.9403 26.5401C35.9203 26.5501 35.9103 26.5501 35.8903 26.5601C35.8703 26.5701 35.8603 26.5801 35.8403 26.5801C35.8203 26.5901 35.8103 26.5901 35.7903 26.6001C35.7703 26.6101 35.7603 26.6101 35.7403 26.6201C35.7203 26.6301 35.7003 26.6301 35.6903 26.6401C35.6803 26.6501 35.6603 26.6501 35.6503 26.6601C35.6303 26.6701 35.6203 26.6701 35.6003 26.6801C35.5803 26.6901 35.5703 26.6901 35.5503 26.7001C35.5303 26.7101 35.5203 26.7101 35.5003 26.7201C35.4803 26.7301 35.4703 26.7301 35.4503 26.7401C35.4303 26.7501 35.4103 26.7501 35.4003 26.7601C35.3903 26.7601 35.3703 26.7701 35.3603 26.7701C35.3403 26.7801 35.3303 26.7801 35.3103 26.7901C35.2903 26.7901 35.2803 26.8001 35.2603 26.8001C35.2503 26.8001 35.2303 26.8101 35.2203 26.8101C35.2003 26.8201 35.1803 26.8201 35.1603 26.8301C35.1403 26.8301 35.1303 26.8401 35.1103 26.8401C35.0903 26.8401 35.0703 26.8501 35.0603 26.8501C35.0403 26.8501 35.0203 26.8601 35.0003 26.8601C34.9803 26.8601 34.9703 26.8701 34.9503 26.8701C34.9303 26.8701 34.9103 26.8801 34.8903 26.8801C34.8703 26.8801 34.8603 26.8901 34.8403 26.8901C34.8203 26.8901 34.8003 26.9001 34.7803 26.9001C34.7603 26.9001 34.7503 26.9001 34.7303 26.9101C34.7103 26.9101 34.6903 26.9201 34.6603 26.9201C34.6503 26.9201 34.6303 26.9201 34.6203 26.9201C34.6003 26.9201 34.5903 26.9201 34.5703 26.9301C34.5203 26.9401 34.4603 26.9401 34.4103 26.9401C34.3703 26.9401 34.3403 26.9401 34.3003 26.9501L37.3803 27.0401C37.4203 27.0401 37.4503 27.0401 37.4903 27.0301C37.5403 27.0301 37.6003 27.0201 37.6503 27.0201C37.6703 27.0201 37.6803 27.0201 37.7003 27.0101C37.7103 27.0101 37.7303 27.0101 37.7403 27.0101C37.7603 27.0101 37.7803 27.0001 37.8103 27.0001C37.8303 27.0001 37.8403 27.0001 37.8603 26.9901C37.8803 26.9901 37.9003 26.9801 37.9203 26.9801C37.9403 26.9801 37.9503 26.9701 37.9703 26.9701C37.9903 26.9701 38.0103 26.9601 38.0303 26.9601C38.0503 26.9601 38.0603 26.9501 38.0803 26.9501C38.1003 26.9501 38.1203 26.9401 38.1403 26.9401C38.1603 26.9401 38.1803 26.9301 38.1903 26.9301C38.2103 26.9301 38.2203 26.9201 38.2403 26.9201C38.2603 26.9201 38.2803 26.9101 38.3003 26.9001C38.3103 26.9001 38.3303 26.8901 38.3403 26.8901C38.3603 26.8901 38.3703 26.8801 38.3903 26.8801C38.4103 26.8701 38.4203 26.8701 38.4403 26.8601H38.4503C38.4603 26.8601 38.4703 26.8501 38.4803 26.8501C38.4803 26.8501 38.4803 26.8501 38.4903 26.8501H38.5003C38.5103 26.8501 38.5203 26.8401 38.5303 26.8401C38.5503 26.8301 38.5603 26.8301 38.5803 26.8201C38.6003 26.8101 38.6103 26.8101 38.6303 26.8001C38.6503 26.7901 38.6603 26.7901 38.6803 26.7801C38.7003 26.7701 38.7103 26.7701 38.7303 26.7601C38.7403 26.7501 38.7603 26.7501 38.7703 26.7401C38.7903 26.7301 38.8103 26.7301 38.8203 26.7201C38.8403 26.7101 38.8503 26.7101 38.8703 26.7001C38.8903 26.6901 38.9003 26.6901 38.9203 26.6801C38.9403 26.6701 38.9503 26.6601 38.9703 26.6601C38.9903 26.6501 39.0003 26.6501 39.0203 26.6401C39.0403 26.6301 39.0503 26.6201 39.0703 26.6201C39.0903 26.6101 39.1003 26.6001 39.1203 26.6001C39.1403 26.5901 39.1503 26.5801 39.1703 26.5701C39.1903 26.5601 39.2003 26.5501 39.2203 26.5401C39.2403 26.5301 39.2503 26.5201 39.2703 26.5101C39.2803 26.5001 39.3003 26.4901 39.3103 26.4801C39.3303 26.4701 39.3403 26.4601 39.3603 26.4501C39.3703 26.4401 39.3903 26.4301 39.4003 26.4201C39.4103 26.4101 39.4303 26.4001 39.4403 26.3901C39.4503 26.3801 39.4703 26.3701 39.4903 26.3601C39.5003 26.3501 39.5203 26.3401 39.5303 26.3301C39.5403 26.3201 39.5603 26.3101 39.5703 26.3001C39.5803 26.2901 39.6003 26.2801 39.6103 26.2701C39.6203 26.2601 39.6403 26.2501 39.6503 26.2401C39.6603 26.2301 39.6803 26.2201 39.6903 26.2101C39.7003 26.2001 39.7203 26.1901 39.7303 26.1801C39.7403 26.1701 39.7603 26.1601 39.7703 26.1401C39.7803 26.1301 39.8003 26.1201 39.8103 26.1001C39.8203 26.0901 39.8403 26.0801 39.8503 26.0601C39.8603 26.0501 39.8803 26.0301 39.8903 26.0201C39.9003 26.0101 39.9203 25.9901 39.9303 25.9801C39.9403 25.9701 39.9603 25.9501 39.9703 25.9401C39.9803 25.9301 40.0003 25.9101 40.0103 25.9001C40.0203 25.8901 40.0403 25.8701 40.0503 25.8601C40.0603 25.8501 40.0803 25.8301 40.0903 25.8201C40.1003 25.8101 40.1203 25.7901 40.1303 25.7801C40.1403 25.7701 40.1503 25.7501 40.1703 25.7401C40.1803 25.7301 40.2003 25.7101 40.2103 25.7001C40.2203 25.6901 40.2303 25.6701 40.2503 25.6601C40.2603 25.6501 40.2703 25.6301 40.2903 25.6201C40.3003 25.6001 40.3103 25.5901 40.3303 25.5701C40.3403 25.5501 40.3503 25.5401 40.3703 25.5201C40.3803 25.5001 40.3903 25.4901 40.4103 25.4701C40.4203 25.4501 40.4303 25.4401 40.4503 25.4201C40.4603 25.4001 40.4703 25.3901 40.4803 25.3701C40.4903 25.3501 40.5003 25.3401 40.5103 25.3201C40.5203 25.3001 40.5303 25.2901 40.5403 25.2701C40.5503 25.2501 40.5603 25.2401 40.5703 25.2201C40.5803 25.2001 40.5903 25.1901 40.6003 25.1701C40.6103 25.1501 40.6203 25.1301 40.6303 25.1201C40.6403 25.1001 40.6503 25.0901 40.6603 25.0701C40.6703 25.0501 40.6803 25.0301 40.6903 25.0201C40.7003 25.0001 40.7103 24.9801 40.7203 24.9701C40.7303 24.9501 40.7403 24.9301 40.7503 24.9101C40.7603 24.8901 40.7703 24.8701 40.7803 24.8501C40.7903 24.8301 40.8003 24.8101 40.8103 24.8001C40.8203 24.7801 40.8303 24.7601 40.8403 24.7401C40.8503 24.7201 40.8603 24.7001 40.8703 24.6801C40.8803 24.6601 40.8903 24.6401 40.9003 24.6201C40.9103 24.6001 40.9203 24.5801 40.9303 24.5601C40.9403 24.5401 40.9503 24.5201 40.9603 24.5001C40.9703 24.4801 40.9803 24.4601 40.9903 24.4401C41.0003 24.4201 41.0103 24.4001 41.0203 24.3801C41.0303 24.3601 41.0403 24.3401 41.0503 24.3201C41.0603 24.3001 41.0703 24.2801 41.0703 24.2601C41.0803 24.2401 41.0903 24.2201 41.0903 24.2001C41.1003 24.1801 41.1103 24.1601 41.1103 24.1301C41.1203 24.1101 41.1303 24.0901 41.1303 24.0701C41.1303 24.0601 41.1303 24.0601 41.1403 24.0501C41.1503 24.0301 41.1503 24.0201 41.1603 24.0001C41.1703 23.9801 41.1803 23.9601 41.1803 23.9301C41.1903 23.9101 41.1903 23.8901 41.2003 23.8601C41.2103 23.8401 41.2103 23.8101 41.2203 23.7901C41.2303 23.7701 41.2303 23.7401 41.2403 23.7201C41.2503 23.7001 41.2503 23.6701 41.2603 23.6501C41.2703 23.6301 41.2703 23.6001 41.2803 23.5801C41.2903 23.5601 41.2903 23.5301 41.3003 23.5101C41.3103 23.4901 41.3103 23.4601 41.3203 23.4401C41.3303 23.4201 41.3303 23.3901 41.3403 23.3601C41.3503 23.3401 41.3503 23.3101 41.3603 23.2901C41.3703 23.2601 41.3703 23.2401 41.3803 23.2101C41.3903 23.1901 41.3903 23.1601 41.4003 23.1401C41.4103 23.1101 41.4103 23.0901 41.4203 23.0601C41.4303 23.0301 41.4303 23.0101 41.4303 22.9801C41.4303 22.9501 41.4403 22.9301 41.4403 22.9001C41.4403 22.8701 41.4503 22.8501 41.4503 22.8201C41.4503 22.8201 41.4503 22.8201 41.4503 22.8101C41.4503 22.7901 41.4603 22.7601 41.4603 22.7401C41.4603 22.7101 41.4703 22.6901 41.4703 22.6601C41.4703 22.6301 41.4803 22.6001 41.4803 22.5701C41.4803 22.5401 41.4903 22.5201 41.4903 22.4901C41.4903 22.4601 41.5003 22.4301 41.5003 22.4001C41.5003 22.3701 41.5103 22.3501 41.5103 22.3201C41.5103 22.2901 41.5203 22.2601 41.5203 22.2301C41.5203 22.2001 41.5303 22.1801 41.5303 22.1501C41.5303 22.1201 41.5403 22.0901 41.5403 22.0601C41.5403 22.0301 41.5403 22.0101 41.5503 21.9801C41.5503 21.9501 41.5603 21.9201 41.5603 21.8901C41.5603 21.8601 41.5603 21.8301 41.5703 21.8101C41.5703 21.7801 41.5703 21.7501 41.5803 21.7201C41.5803 21.6901 41.5803 21.6601 41.5803 21.6401C41.5803 21.6101 41.5803 21.5801 41.5803 21.5401C41.5803 21.5101 41.5803 21.4801 41.5803 21.4501C41.5803 21.4201 41.5803 21.3901 41.5803 21.3601V21.3501C41.5803 21.3201 41.5803 21.2901 41.5803 21.2701C41.5803 21.2401 41.5803 21.2001 41.5803 21.1701C41.5803 21.1401 41.5803 21.1101 41.5803 21.0801C41.5803 21.0601 41.5803 21.0501 41.5803 21.0301C41.5803 20.9901 41.5703 20.9501 41.5703 20.9201Z" fill="url(#paint1_linear)"/>
<path d="M37.5902 15.1601L34.5102 15.0701C34.5002 15.0701 34.5002 15.0701 34.4902 15.0701L37.5702 15.1601C37.5702 15.1601 37.5802 15.1601 37.5902 15.1601Z" fill="#828282"/>
<path d="M37.4302 15.16C39.8402 15.12 41.5502 17.18 41.5802 20.93C41.5402 17.18 39.8402 15.12 37.4302 15.16Z" fill="#EEEEEE"/>
<path d="M37.4301 15.1601L34.3501 15.0701C34.3901 15.0701 34.4201 15.0701 34.4601 15.0701L37.5401 15.1601C37.5001 15.1501 37.4601 15.1501 37.4301 15.1601Z" fill="#949494"/>
<path d="M37.54 15.1501L34.46 15.0601C34.48 15.0601 34.51 15.0601 34.53 15.0601L37.61 15.1501C37.58 15.1601 37.56 15.1601 37.54 15.1501Z" fill="#8F8F8F"/>
<path d="M36.5202 27.0502L33.4502 26.9602L34.3102 26.9302L37.3802 27.0102L36.5202 27.0502Z" fill="#888888"/>
<path d="M32.5602 10.6801L29.4902 10.5901L34.9202 10.3801L37.9902 10.4701L32.5602 10.6801Z" fill="#888888"/>
<path d="M45.5501 20.4C45.5501 20.43 45.5501 20.46 45.5501 20.49C45.5501 20.58 45.5501 20.67 45.5501 20.77C45.5501 20.84 45.5501 20.91 45.5501 20.98C45.5501 21.03 45.5501 21.08 45.5501 21.12C45.5501 21.16 45.5501 21.21 45.5501 21.25C45.5501 21.3 45.5501 21.35 45.5501 21.39C45.5501 21.43 45.5501 21.48 45.5501 21.52C45.5501 21.57 45.5501 21.62 45.5401 21.66C45.5401 21.7 45.5401 21.75 45.5301 21.79C45.5301 21.84 45.5201 21.89 45.5201 21.93C45.5201 21.97 45.5101 22.02 45.5101 22.06C45.5101 22.11 45.5001 22.15 45.5001 22.2C45.5001 22.24 45.4901 22.29 45.4901 22.33C45.4901 22.38 45.4801 22.42 45.4801 22.47C45.4801 22.51 45.4701 22.56 45.4701 22.6C45.4701 22.64 45.4601 22.69 45.4501 22.73C45.4401 22.77 45.4401 22.82 45.4301 22.86C45.4201 22.91 45.4201 22.95 45.4101 22.99C45.4001 23.03 45.4001 23.07 45.3901 23.12C45.3801 23.16 45.3801 23.21 45.3701 23.25C45.3601 23.29 45.3601 23.34 45.3501 23.38C45.3401 23.42 45.3401 23.47 45.3301 23.51C45.3201 23.55 45.3101 23.59 45.3101 23.64C45.3001 23.68 45.2901 23.73 45.2901 23.77C45.2801 23.81 45.2701 23.85 45.2601 23.9C45.2501 23.94 45.2401 23.98 45.2301 24.03C45.2201 24.07 45.2101 24.11 45.2001 24.15C45.1901 24.19 45.1801 24.23 45.1701 24.28C45.1601 24.32 45.1501 24.36 45.1401 24.4C45.1301 24.44 45.1201 24.48 45.1101 24.52C45.1001 24.56 45.0901 24.6 45.0801 24.64C45.0701 24.68 45.0601 24.72 45.0501 24.76C45.0401 24.8 45.0301 24.84 45.0201 24.88C45.0101 24.92 45.0001 24.96 44.9901 25C44.9801 25.04 44.9701 25.08 44.9501 25.12C44.9401 25.16 44.9301 25.2 44.9101 25.24C44.9001 25.28 44.8801 25.32 44.8701 25.36C44.8601 25.4 44.8401 25.44 44.8301 25.48C44.8201 25.52 44.8001 25.56 44.7901 25.6C44.7801 25.64 44.7601 25.68 44.7501 25.72C44.7401 25.76 44.7201 25.8 44.7101 25.83C44.7001 25.87 44.6801 25.91 44.6701 25.94C44.6601 25.98 44.6401 26.02 44.6301 26.06C44.6201 26.1 44.6001 26.13 44.5901 26.17C44.5701 26.21 44.5601 26.25 44.5401 26.28C44.5301 26.32 44.5101 26.35 44.5001 26.39C44.4801 26.43 44.4701 26.47 44.4501 26.5C44.4301 26.54 44.4201 26.57 44.4001 26.61C44.3801 26.65 44.3701 26.68 44.3501 26.72C44.3301 26.76 44.3201 26.79 44.3001 26.83C44.2801 26.87 44.2701 26.9 44.2501 26.94C44.2301 26.97 44.2201 27.01 44.2001 27.04C44.1801 27.08 44.1601 27.11 44.1501 27.15C44.1301 27.18 44.1201 27.22 44.1001 27.25C44.0801 27.29 44.0601 27.32 44.0401 27.36C44.0201 27.39 44.0101 27.43 43.9901 27.46C43.9701 27.49 43.9501 27.53 43.9301 27.56C43.9101 27.59 43.8901 27.63 43.8701 27.66C43.8501 27.69 43.8301 27.73 43.8101 27.76C43.7901 27.79 43.7701 27.82 43.7501 27.86C43.7301 27.89 43.7101 27.93 43.6901 27.96C43.6701 27.99 43.6501 28.02 43.6301 28.05C43.6101 28.08 43.5901 28.12 43.5701 28.15C43.5501 28.18 43.5301 28.21 43.5101 28.24C43.4901 28.27 43.4701 28.3 43.4501 28.34C43.4301 28.37 43.4101 28.4 43.3901 28.43C43.3701 28.46 43.3501 28.49 43.3201 28.53C43.3001 28.56 43.2801 28.59 43.2601 28.61C43.2401 28.64 43.2201 28.67 43.1901 28.7C43.1701 28.73 43.1501 28.76 43.1301 28.79C43.1101 28.82 43.0801 28.85 43.0601 28.88C43.0401 28.91 43.0201 28.94 43.0001 28.96C42.9801 28.99 42.9501 29.02 42.9301 29.05C42.9101 29.08 42.8901 29.1 42.8601 29.13C42.8401 29.16 42.8101 29.19 42.7901 29.21C42.7701 29.24 42.7501 29.26 42.7201 29.29C42.7001 29.32 42.6701 29.35 42.6501 29.37C42.6301 29.4 42.6001 29.42 42.5801 29.45C42.5601 29.48 42.5301 29.5 42.5101 29.53C42.4901 29.55 42.4601 29.58 42.4401 29.6C42.4101 29.63 42.3901 29.65 42.3601 29.68C42.3401 29.7 42.3101 29.73 42.2901 29.75C42.2601 29.78 42.2401 29.8 42.2101 29.83C42.1901 29.85 42.1601 29.88 42.1401 29.9C42.1101 29.92 42.0901 29.95 42.0601 29.97C42.0301 29.99 42.0101 30.02 41.9801 30.04C41.9501 30.06 41.9301 30.08 41.9001 30.11C41.8701 30.13 41.8501 30.15 41.8201 30.18C41.7901 30.2 41.7701 30.23 41.7401 30.25C41.7201 30.27 41.6901 30.29 41.6701 30.31C41.6401 30.33 41.6201 30.35 41.5901 30.37C41.5601 30.39 41.5401 30.41 41.5101 30.43C41.4801 30.45 41.4501 30.47 41.4301 30.49C41.4001 30.51 41.3801 30.53 41.3501 30.55C41.3201 30.57 41.2901 30.59 41.2701 30.61C41.2401 30.63 41.2201 30.65 41.1901 30.66C41.1601 30.68 41.1301 30.7 41.1101 30.72C41.0801 30.74 41.0601 30.76 41.0301 30.77C41.0001 30.79 40.9701 30.8 40.9501 30.82C40.9201 30.84 40.8901 30.85 40.8701 30.87C40.8401 30.89 40.8101 30.9 40.7901 30.92C40.7601 30.94 40.7301 30.95 40.7101 30.97C40.6801 30.99 40.6501 31 40.6201 31.02C40.5901 31.03 40.5701 31.05 40.5401 31.06C40.5101 31.08 40.4801 31.09 40.4501 31.11C40.4201 31.12 40.4001 31.14 40.3701 31.15C40.3401 31.16 40.3101 31.18 40.2801 31.19C40.2501 31.2 40.2201 31.22 40.2001 31.23C40.1701 31.24 40.1401 31.26 40.1101 31.27C40.0801 31.28 40.0501 31.29 40.0301 31.3C40.0001 31.31 39.9701 31.32 39.9301 31.34C39.9001 31.35 39.8701 31.36 39.8501 31.37C39.8201 31.38 39.7901 31.39 39.7601 31.4C39.7301 31.41 39.7001 31.42 39.6701 31.43C39.6401 31.44 39.6101 31.45 39.5801 31.46C39.5501 31.47 39.5201 31.48 39.4901 31.49C39.4601 31.5 39.4201 31.51 39.3901 31.52C39.3601 31.53 39.3301 31.54 39.3101 31.54C39.2801 31.55 39.2401 31.56 39.2101 31.56C39.1801 31.57 39.1601 31.57 39.1301 31.58C39.1001 31.59 39.0601 31.59 39.0201 31.6C38.9901 31.61 38.9701 31.61 38.9401 31.62C38.9101 31.63 38.8701 31.63 38.8401 31.64C38.8101 31.64 38.7801 31.65 38.7501 31.65C38.7101 31.66 38.6701 31.66 38.6301 31.66C38.6101 31.66 38.5801 31.67 38.5601 31.67C38.5101 31.68 38.4601 31.68 38.4101 31.68C38.3101 31.69 38.2501 31.69 38.1801 31.69L32.7501 31.9L32.5801 10.72L38.0101 10.51C38.0701 10.51 38.1201 10.51 38.1801 10.51C38.2101 10.51 38.2401 10.51 38.2701 10.51C38.3001 10.51 38.3401 10.51 38.3701 10.51C38.4001 10.51 38.4301 10.51 38.4601 10.51C38.4901 10.51 38.5201 10.51 38.5501 10.51C38.5801 10.51 38.6101 10.51 38.6501 10.52C38.6801 10.52 38.7101 10.52 38.7401 10.53C38.7701 10.53 38.8001 10.54 38.8401 10.54C38.8701 10.54 38.9001 10.55 38.9301 10.55C38.9601 10.55 39.0001 10.56 39.0301 10.56C39.0601 10.56 39.0901 10.57 39.1101 10.57C39.1401 10.58 39.1801 10.58 39.2101 10.59C39.2401 10.6 39.2601 10.6 39.2901 10.61C39.3201 10.62 39.3601 10.62 39.3901 10.63C39.4201 10.64 39.4401 10.64 39.4701 10.65C39.5101 10.66 39.5401 10.67 39.5801 10.68C39.6001 10.69 39.6301 10.69 39.6501 10.7C39.6901 10.71 39.7201 10.72 39.7601 10.73C39.7801 10.74 39.8101 10.74 39.8301 10.75C39.8701 10.76 39.9001 10.77 39.9401 10.78C39.9601 10.79 39.9901 10.8 40.0101 10.8C40.0501 10.81 40.0801 10.83 40.1201 10.84C40.1401 10.85 40.1701 10.86 40.1901 10.87C40.2301 10.88 40.2601 10.9 40.3001 10.91C40.3201 10.92 40.3401 10.93 40.3701 10.94C40.4101 10.96 40.4401 10.97 40.4801 10.99C40.5001 11 40.5201 11.01 40.5401 11.02C40.5801 11.04 40.6101 11.05 40.6501 11.07C40.6701 11.08 40.6901 11.09 40.7101 11.1C40.7501 11.12 40.7801 11.14 40.8201 11.16C40.8401 11.17 40.8601 11.18 40.8801 11.19C40.9201 11.21 40.9501 11.23 40.9901 11.25C41.0101 11.26 41.0301 11.27 41.0501 11.28C41.0901 11.3 41.1201 11.32 41.1601 11.34C41.1801 11.35 41.2001 11.36 41.2201 11.37C41.2601 11.39 41.2901 11.41 41.3301 11.44C41.3501 11.45 41.3701 11.46 41.3901 11.48C41.4301 11.5 41.4601 11.53 41.5001 11.55C41.5201 11.56 41.5301 11.57 41.5501 11.59C41.5901 11.62 41.6201 11.64 41.6601 11.67C41.6801 11.68 41.6901 11.69 41.7101 11.71C41.7501 11.74 41.7801 11.76 41.8201 11.79C41.8401 11.8 41.8501 11.82 41.8701 11.83C41.9101 11.86 41.9401 11.89 41.9801 11.92C42.0001 11.93 42.0101 11.95 42.0301 11.96C42.0701 11.99 42.1001 12.02 42.1301 12.05C42.1501 12.06 42.1601 12.08 42.1801 12.09C42.2101 12.12 42.2501 12.15 42.2801 12.18C42.3001 12.19 42.3101 12.21 42.3301 12.22C42.3601 12.25 42.4001 12.28 42.4301 12.32C42.4501 12.33 42.4601 12.35 42.4701 12.36C42.5001 12.39 42.5401 12.43 42.5701 12.46C42.5901 12.48 42.6001 12.49 42.6201 12.51C42.6501 12.54 42.6901 12.58 42.7201 12.61C42.7301 12.62 42.7501 12.64 42.7601 12.66C42.7901 12.7 42.8301 12.73 42.8601 12.77C42.8701 12.79 42.8901 12.8 42.9001 12.82C42.9301 12.86 42.9601 12.89 43.0001 12.93C43.0101 12.95 43.0301 12.96 43.0401 12.98C43.0701 13.02 43.1001 13.05 43.1301 13.09C43.1401 13.11 43.1601 13.12 43.1701 13.14C43.2001 13.18 43.2301 13.22 43.2601 13.26C43.2701 13.28 43.2901 13.29 43.3001 13.31C43.3301 13.35 43.3601 13.39 43.3901 13.43C43.4001 13.45 43.4201 13.47 43.4301 13.48C43.4601 13.52 43.4901 13.56 43.5201 13.6C43.5301 13.62 43.5501 13.64 43.5601 13.66C43.5901 13.7 43.6201 13.74 43.6401 13.78C43.6501 13.8 43.6601 13.82 43.6801 13.84C43.7101 13.88 43.7301 13.92 43.7601 13.97C43.7701 13.99 43.7901 14.01 43.8001 14.03C43.8301 14.07 43.8501 14.11 43.8801 14.16C43.8901 14.18 43.9001 14.2 43.9201 14.22C43.9501 14.26 43.9701 14.31 44.0001 14.35C44.0101 14.37 44.0201 14.39 44.0301 14.41C44.0601 14.45 44.0801 14.5 44.1001 14.54C44.1101 14.56 44.1201 14.58 44.1301 14.6C44.1501 14.65 44.1801 14.69 44.2001 14.74C44.2101 14.76 44.2201 14.79 44.2301 14.81C44.2501 14.85 44.2801 14.9 44.3001 14.95C44.3101 14.97 44.3201 15 44.3301 15.02C44.3501 15.07 44.3701 15.11 44.4001 15.16C44.4101 15.18 44.4201 15.21 44.4301 15.23C44.4501 15.28 44.4701 15.32 44.4901 15.37C44.5001 15.4 44.5101 15.42 44.5201 15.45C44.5401 15.5 44.5601 15.54 44.5801 15.59C44.5901 15.62 44.6001 15.64 44.6101 15.67C44.6301 15.72 44.6501 15.76 44.6701 15.81C44.6801 15.84 44.6901 15.86 44.7001 15.89C44.7201 15.94 44.7401 15.98 44.7501 16.03C44.7601 16.06 44.7701 16.09 44.7801 16.11C44.8001 16.16 44.8101 16.2 44.8301 16.25C44.8401 16.28 44.8501 16.31 44.8601 16.34C44.8801 16.39 44.8901 16.43 44.9101 16.48C44.9201 16.51 44.9301 16.54 44.9401 16.57C44.9601 16.62 44.9701 16.66 44.9801 16.71C44.9901 16.74 45.0001 16.77 45.0101 16.81C45.0201 16.86 45.0401 16.9 45.0501 16.95C45.0601 16.98 45.0701 17.02 45.0801 17.05C45.0901 17.1 45.1101 17.14 45.1201 17.19C45.1301 17.22 45.1401 17.26 45.1501 17.29C45.1601 17.34 45.1701 17.38 45.1901 17.43C45.2001 17.46 45.2101 17.5 45.2101 17.53C45.2201 17.58 45.2301 17.63 45.2401 17.67C45.2501 17.71 45.2601 17.74 45.2601 17.78C45.2701 17.83 45.2801 17.87 45.2901 17.92C45.3001 17.96 45.3101 18 45.3101 18.03C45.3201 18.08 45.3301 18.12 45.3401 18.17C45.3501 18.21 45.3501 18.24 45.3601 18.28C45.3701 18.33 45.3801 18.38 45.3901 18.42C45.4001 18.46 45.4001 18.5 45.4101 18.54C45.4201 18.59 45.4301 18.63 45.4301 18.68C45.4401 18.72 45.4401 18.76 45.4501 18.81C45.4601 18.85 45.4601 18.9 45.4701 18.94C45.4801 18.98 45.4801 19.03 45.4901 19.07C45.5001 19.11 45.5001 19.16 45.5101 19.2C45.5101 19.24 45.5201 19.29 45.5201 19.33C45.5201 19.38 45.5301 19.42 45.5301 19.47C45.5301 19.52 45.5401 19.56 45.5401 19.61C45.5401 19.65 45.5501 19.69 45.5501 19.74C45.5501 19.79 45.5601 19.84 45.5601 19.88C45.5601 19.92 45.5701 19.96 45.5701 20.01C45.5701 20.06 45.5801 20.11 45.5801 20.16C45.5801 20.2 45.5801 20.24 45.5901 20.28C45.5501 20.28 45.5501 20.34 45.5501 20.4ZM41.5701 21.07C41.5701 21.05 41.5701 21.04 41.5701 21.02C41.5701 20.99 41.5701 20.96 41.5701 20.92C41.5701 20.86 41.5701 20.8 41.5701 20.75C41.5701 20.72 41.5701 20.69 41.5701 20.66C41.5701 20.63 41.5701 20.61 41.5701 20.58C41.5701 20.56 41.5701 20.54 41.5701 20.51C41.5701 20.48 41.5701 20.44 41.5701 20.41C41.5701 20.39 41.5701 20.37 41.5701 20.35C41.5701 20.32 41.5701 20.28 41.5601 20.25C41.5601 20.23 41.5601 20.21 41.5601 20.18C41.5601 20.15 41.5601 20.11 41.5501 20.08C41.5501 20.06 41.5501 20.05 41.5501 20.03C41.5501 19.99 41.5401 19.96 41.5401 19.92C41.5401 19.9 41.5401 19.88 41.5301 19.86C41.5301 19.83 41.5201 19.79 41.5201 19.76C41.5201 19.74 41.5201 19.72 41.5101 19.7C41.5101 19.67 41.5001 19.63 41.5001 19.6C41.5001 19.58 41.4901 19.56 41.4901 19.55C41.4901 19.52 41.4801 19.48 41.4801 19.45C41.4801 19.43 41.4701 19.41 41.4701 19.4C41.4601 19.37 41.4601 19.33 41.4501 19.3C41.4501 19.28 41.4401 19.27 41.4401 19.25C41.4301 19.22 41.4301 19.18 41.4201 19.15C41.4201 19.13 41.4101 19.11 41.4101 19.09C41.4001 19.06 41.4001 19.03 41.3901 19C41.3901 18.98 41.3801 18.97 41.3801 18.95C41.3701 18.92 41.3701 18.89 41.3601 18.86C41.3601 18.84 41.3501 18.83 41.3501 18.81C41.3401 18.78 41.3401 18.75 41.3301 18.72C41.3301 18.7 41.3201 18.69 41.3201 18.67C41.3101 18.64 41.3001 18.61 41.3001 18.58C41.3001 18.56 41.2901 18.55 41.2901 18.53C41.2801 18.5 41.2701 18.47 41.2701 18.44C41.2701 18.43 41.2601 18.41 41.2601 18.4C41.2501 18.37 41.2401 18.34 41.2301 18.31C41.2301 18.29 41.2201 18.28 41.2201 18.26C41.2101 18.23 41.2001 18.2 41.1901 18.17C41.1901 18.16 41.1801 18.14 41.1801 18.13C41.1701 18.1 41.1601 18.07 41.1501 18.04C41.1501 18.03 41.1401 18.02 41.1401 18C41.1301 17.97 41.1201 17.94 41.1101 17.91C41.1101 17.9 41.1001 17.89 41.1001 17.87C41.0901 17.84 41.0801 17.81 41.0701 17.78C41.0701 17.77 41.0601 17.76 41.0601 17.74C41.0501 17.71 41.0401 17.68 41.0201 17.66C41.0101 17.65 41.0101 17.64 41.0001 17.63C40.9901 17.6 40.9801 17.57 40.9601 17.55C40.9601 17.54 40.9501 17.53 40.9501 17.52C40.9401 17.49 40.9201 17.46 40.9101 17.44C40.9001 17.43 40.9001 17.42 40.8901 17.41C40.8801 17.38 40.8601 17.36 40.8501 17.33C40.8401 17.32 40.8401 17.31 40.8301 17.3C40.8201 17.27 40.8001 17.25 40.7901 17.22C40.7801 17.21 40.7801 17.2 40.7701 17.19C40.7601 17.16 40.7401 17.14 40.7301 17.11C40.7201 17.1 40.7201 17.09 40.7101 17.08C40.6901 17.05 40.6801 17.03 40.6601 17C40.6501 16.99 40.6501 16.98 40.6401 16.97C40.6201 16.94 40.6101 16.92 40.5901 16.89C40.5801 16.88 40.5801 16.87 40.5701 16.86C40.5501 16.84 40.5401 16.81 40.5201 16.79C40.5101 16.78 40.5101 16.77 40.5001 16.77C40.4801 16.75 40.4701 16.72 40.4501 16.7C40.4401 16.69 40.4401 16.68 40.4301 16.68C40.4101 16.66 40.4001 16.63 40.3801 16.61C40.3701 16.6 40.3701 16.59 40.3601 16.59C40.3401 16.57 40.3201 16.54 40.3101 16.52C40.3001 16.51 40.3001 16.5 40.2901 16.5C40.2701 16.48 40.2501 16.46 40.2401 16.43C40.2301 16.42 40.2301 16.42 40.2201 16.41C40.2001 16.39 40.1801 16.37 40.1601 16.35C40.1501 16.34 40.1501 16.34 40.1401 16.33C40.1201 16.31 40.1001 16.29 40.0801 16.27C40.0701 16.26 40.0701 16.26 40.0601 16.25C40.0401 16.23 40.0201 16.21 40.0001 16.19C39.9901 16.18 39.9901 16.18 39.9801 16.17C39.9601 16.15 39.9401 16.13 39.9201 16.11C39.9101 16.1 39.9101 16.1 39.9001 16.09C39.8801 16.07 39.8601 16.05 39.8401 16.03C39.8301 16.02 39.8301 16.02 39.8201 16.01C39.8001 15.99 39.7801 15.97 39.7601 15.96C39.7501 15.95 39.7501 15.95 39.7401 15.94C39.7201 15.92 39.7001 15.91 39.6801 15.89C39.6701 15.89 39.6701 15.88 39.6601 15.88C39.6401 15.86 39.6201 15.85 39.5901 15.83C39.5801 15.83 39.5801 15.82 39.5701 15.82C39.5501 15.8 39.5301 15.79 39.5001 15.77C39.4901 15.77 39.4901 15.76 39.4801 15.76C39.4601 15.74 39.4301 15.73 39.4101 15.71C39.4001 15.71 39.4001 15.7 39.3901 15.7C39.3701 15.69 39.3401 15.67 39.3201 15.66C39.3101 15.66 39.3101 15.65 39.3001 15.65C39.2801 15.64 39.2501 15.62 39.2301 15.61C39.2201 15.61 39.2101 15.6 39.2101 15.6C39.1901 15.59 39.1601 15.58 39.1401 15.56C39.1301 15.56 39.1201 15.55 39.1201 15.55C39.1001 15.54 39.0701 15.53 39.0501 15.52C39.0401 15.52 39.0301 15.51 39.0201 15.51C39.0001 15.5 38.9701 15.49 38.9501 15.48C38.9401 15.48 38.9301 15.47 38.9201 15.47C38.9001 15.46 38.8701 15.45 38.8501 15.44C38.8401 15.44 38.8301 15.43 38.8201 15.43C38.8001 15.42 38.7701 15.41 38.7501 15.4C38.7401 15.4 38.7301 15.39 38.7201 15.39C38.7001 15.38 38.6701 15.37 38.6501 15.37C38.6401 15.37 38.6301 15.36 38.6201 15.36C38.6001 15.35 38.5701 15.35 38.5501 15.34C38.5401 15.34 38.5301 15.33 38.5201 15.33C38.5001 15.32 38.4701 15.32 38.4501 15.31C38.4401 15.31 38.4301 15.3 38.4201 15.3C38.4001 15.29 38.3701 15.29 38.3501 15.28C38.3401 15.28 38.3301 15.27 38.3201 15.27C38.3001 15.26 38.2701 15.26 38.2501 15.26C38.2401 15.26 38.2301 15.26 38.2101 15.25C38.1901 15.25 38.1601 15.24 38.1401 15.24C38.1301 15.24 38.1101 15.24 38.1001 15.23C38.0801 15.23 38.0501 15.22 38.0301 15.22C38.0201 15.22 38.0001 15.22 37.9901 15.21C37.9701 15.21 37.9401 15.2 37.9201 15.2C37.9101 15.2 37.8901 15.2 37.8801 15.2C37.8601 15.2 37.8301 15.2 37.8101 15.19C37.8001 15.19 37.7801 15.19 37.7701 15.19C37.7501 15.19 37.7201 15.19 37.7001 15.19C37.6901 15.19 37.6701 15.19 37.6601 15.19C37.6401 15.19 37.6101 15.19 37.5901 15.19C37.5801 15.19 37.5601 15.19 37.5501 15.19C37.5301 15.19 37.5101 15.19 37.4801 15.19C37.4601 15.19 37.4501 15.19 37.4301 15.19C37.4101 15.19 37.4001 15.19 37.3901 15.19C37.3701 15.19 37.3401 15.19 37.3201 15.19L36.4201 15.22L36.5101 27.07L37.3701 27.04C37.4101 27.04 37.4401 27.04 37.4801 27.03C37.5301 27.03 37.5901 27.02 37.6401 27.02C37.6601 27.02 37.6701 27.02 37.6901 27.01C37.7001 27.01 37.7201 27.01 37.7301 27.01C37.7501 27.01 37.7701 27 37.8001 27C37.8201 27 37.8301 27 37.8501 26.99C37.8701 26.99 37.8901 26.98 37.9101 26.98C37.9301 26.98 37.9401 26.97 37.9601 26.97C37.9801 26.97 38.0001 26.96 38.0201 26.96C38.0401 26.96 38.0501 26.95 38.0701 26.95C38.0901 26.95 38.1101 26.94 38.1301 26.94C38.1501 26.94 38.1701 26.93 38.1801 26.93C38.2001 26.93 38.2101 26.92 38.2301 26.92C38.2501 26.92 38.2701 26.91 38.2901 26.9C38.3001 26.9 38.3201 26.89 38.3301 26.89C38.3501 26.89 38.3601 26.88 38.3801 26.88C38.4001 26.87 38.4101 26.87 38.4301 26.86C38.4501 26.86 38.4601 26.85 38.4701 26.85C38.4901 26.84 38.5101 26.84 38.5201 26.83C38.5401 26.82 38.5501 26.82 38.5701 26.81C38.5901 26.8 38.6001 26.8 38.6201 26.79C38.6401 26.78 38.6501 26.78 38.6701 26.77C38.6901 26.76 38.7001 26.76 38.7201 26.75C38.7301 26.74 38.7501 26.74 38.7601 26.73C38.7801 26.72 38.8001 26.72 38.8101 26.71C38.8301 26.7 38.8401 26.7 38.8601 26.69C38.8801 26.68 38.8901 26.68 38.9101 26.67C38.9301 26.66 38.9401 26.65 38.9601 26.65C38.9801 26.64 38.9901 26.64 39.0101 26.63C39.0301 26.62 39.0401 26.61 39.0601 26.61C39.0801 26.6 39.0901 26.59 39.1101 26.59C39.1301 26.58 39.1401 26.57 39.1601 26.56C39.1801 26.55 39.1901 26.54 39.2101 26.53C39.2301 26.52 39.2401 26.51 39.2601 26.5C39.2701 26.49 39.2901 26.48 39.3001 26.47C39.3201 26.46 39.3301 26.45 39.3501 26.44C39.3601 26.43 39.3801 26.42 39.3901 26.41C39.4001 26.4 39.4201 26.39 39.4301 26.38C39.4401 26.37 39.4601 26.36 39.4801 26.35C39.4901 26.34 39.5101 26.33 39.5201 26.32C39.5301 26.31 39.5501 26.3 39.5601 26.29C39.5701 26.28 39.5901 26.27 39.6001 26.26C39.6101 26.25 39.6301 26.24 39.6401 26.23C39.6501 26.22 39.6701 26.21 39.6801 26.2C39.6901 26.19 39.7101 26.18 39.7201 26.17C39.7301 26.16 39.7501 26.15 39.7601 26.13C39.7701 26.12 39.7901 26.11 39.8001 26.09C39.8101 26.08 39.8301 26.07 39.8401 26.05C39.8501 26.04 39.8701 26.02 39.8801 26.01C39.8901 26 39.9101 25.98 39.9201 25.97C39.9301 25.96 39.9501 25.94 39.9601 25.93C39.9701 25.92 39.9901 25.9 40.0001 25.89C40.0101 25.88 40.0301 25.86 40.0401 25.85C40.0501 25.84 40.0701 25.82 40.0801 25.81C40.0901 25.8 40.1101 25.78 40.1201 25.77C40.1301 25.76 40.1401 25.74 40.1601 25.73C40.1701 25.72 40.1901 25.7 40.2001 25.69C40.2101 25.68 40.2201 25.66 40.2401 25.65C40.2501 25.64 40.2601 25.62 40.2801 25.61C40.2901 25.59 40.3001 25.58 40.3201 25.56C40.3301 25.54 40.3401 25.53 40.3601 25.51C40.3701 25.49 40.3801 25.48 40.4001 25.46C40.4101 25.44 40.4201 25.43 40.4401 25.41C40.4501 25.39 40.4601 25.38 40.4701 25.36C40.4801 25.34 40.4901 25.33 40.5001 25.31C40.5101 25.29 40.5201 25.28 40.5301 25.26C40.5401 25.24 40.5501 25.23 40.5601 25.21C40.5701 25.19 40.5801 25.18 40.5901 25.16C40.6001 25.14 40.6101 25.12 40.6201 25.11C40.6301 25.09 40.6401 25.08 40.6501 25.06C40.6601 25.04 40.6701 25.02 40.6801 25.01C40.6901 24.99 40.7001 24.97 40.7101 24.96C40.7201 24.94 40.7301 24.92 40.7401 24.9C40.7501 24.88 40.7601 24.86 40.7701 24.84C40.7801 24.82 40.7901 24.8 40.8001 24.79C40.8101 24.77 40.8201 24.75 40.8301 24.73C40.8401 24.71 40.8501 24.69 40.8601 24.67C40.8701 24.65 40.8801 24.63 40.8901 24.61C40.9001 24.59 40.9101 24.57 40.9201 24.55C40.9301 24.53 40.9401 24.51 40.9501 24.49C40.9601 24.47 40.9701 24.45 40.9801 24.43C40.9901 24.41 41.0001 24.39 41.0101 24.37C41.0201 24.35 41.0301 24.33 41.0401 24.31C41.0501 24.29 41.0601 24.27 41.0601 24.25C41.0701 24.23 41.0801 24.21 41.0801 24.19C41.0901 24.17 41.1001 24.15 41.1001 24.12C41.1101 24.1 41.1201 24.08 41.1201 24.06C41.1301 24.04 41.1401 24.02 41.1401 23.99C41.1501 23.97 41.1601 23.95 41.1601 23.92C41.1701 23.9 41.1701 23.88 41.1801 23.85C41.1901 23.83 41.1901 23.8 41.2001 23.78C41.2101 23.76 41.2101 23.73 41.2201 23.71C41.2301 23.69 41.2301 23.66 41.2401 23.64C41.2501 23.62 41.2501 23.59 41.2601 23.57C41.2701 23.55 41.2701 23.52 41.2801 23.5C41.2901 23.48 41.2901 23.45 41.3001 23.43C41.3101 23.41 41.3101 23.38 41.3201 23.35C41.3301 23.33 41.3301 23.3 41.3401 23.28C41.3501 23.25 41.3501 23.23 41.3601 23.2C41.3701 23.18 41.3701 23.15 41.3801 23.13C41.3901 23.1 41.3901 23.08 41.4001 23.05C41.4101 23.02 41.4101 23 41.4101 22.97C41.4101 22.94 41.4201 22.92 41.4201 22.89C41.4201 22.86 41.4301 22.84 41.4301 22.81C41.4301 22.78 41.4401 22.76 41.4401 22.73C41.4401 22.7 41.4501 22.68 41.4501 22.65C41.4501 22.62 41.4601 22.59 41.4601 22.56C41.4601 22.53 41.4701 22.51 41.4701 22.48C41.4701 22.45 41.4801 22.42 41.4801 22.39C41.4801 22.36 41.4901 22.34 41.4901 22.31C41.4901 22.28 41.5001 22.25 41.5001 22.22C41.5001 22.19 41.5101 22.17 41.5101 22.14C41.5101 22.11 41.5201 22.08 41.5201 22.05C41.5201 22.02 41.5201 22 41.5301 21.97C41.5301 21.94 41.5301 21.91 41.5401 21.88C41.5401 21.85 41.5401 21.82 41.5501 21.8C41.5501 21.77 41.5501 21.74 41.5601 21.71C41.5601 21.68 41.5601 21.65 41.5601 21.63C41.5601 21.6 41.5601 21.57 41.5601 21.53C41.5601 21.5 41.5601 21.47 41.5601 21.44C41.5601 21.41 41.5601 21.37 41.5601 21.34C41.5601 21.31 41.5601 21.28 41.5601 21.26C41.5601 21.23 41.5601 21.19 41.5601 21.16C41.5701 21.13 41.5701 21.1 41.5701 21.07Z" fill="url(#paint2_linear)"/>
<path d="M32.7302 31.9801C32.7002 31.9801 32.6702 31.9701 32.6502 31.9501C32.6302 31.9301 32.6102 31.9001 32.6102 31.8701L32.4502 10.6801C32.4502 10.6201 32.5002 10.5601 32.5602 10.5601L37.9902 10.3501C38.0502 10.3501 38.1002 10.3501 38.1602 10.3501H38.2502C38.3102 10.3501 38.3702 10.3501 38.4402 10.3501L38.7302 10.3701C38.7602 10.3701 38.8002 10.3801 38.8302 10.3801L39.1102 10.4201C39.1402 10.4301 39.1802 10.4301 39.2102 10.4401L39.6602 10.5401C39.7002 10.5501 39.7302 10.5601 39.7702 10.5701L39.8402 10.5901C39.8802 10.6001 39.9102 10.6101 39.9502 10.6301L40.5402 10.8601L41.2402 11.2301L41.4102 11.3401C41.4502 11.3601 41.4802 11.3901 41.5202 11.4101L41.5702 11.4501C41.6102 11.4701 41.6402 11.5001 41.6802 11.5301L41.7102 11.5501L41.7402 11.5701L42.0502 11.8201C42.0902 11.8501 42.1202 11.8801 42.1602 11.9101L42.7902 12.5301L42.9202 12.6701C42.9602 12.7201 43.0002 12.7601 43.0302 12.8001L43.0702 12.8501C43.1002 12.8901 43.1302 12.9201 43.1602 12.9601L43.2002 13.0101C43.2302 13.0501 43.2602 13.0901 43.2902 13.1301L43.8202 13.8901C43.8602 13.9501 43.8802 13.9901 43.9102 14.0401L44.6702 15.5601L45.1502 16.9601L45.5702 19.1401L45.6602 20.5001C45.6602 20.5901 45.6602 20.6801 45.6602 20.7801V20.9201L45.6002 22.2301C45.6002 22.2701 45.5902 22.3201 45.5902 22.3601L45.2702 24.3101L44.7602 25.9901L44.0702 27.5101L43.3402 28.6601L42.6502 29.5101C42.6302 29.5401 42.6002 29.5601 42.5702 29.5901L42.5002 29.6701C42.4802 29.7001 42.4502 29.7201 42.4202 29.7501L41.4802 30.5601L40.2002 31.3001L40.0202 31.3701C39.9902 31.3801 39.9602 31.3901 39.9302 31.4001L39.0902 31.6501L38.6202 31.7301L38.5602 31.6201L38.5802 31.7401L38.5302 31.7501C38.4902 31.7501 38.4502 31.7601 38.4102 31.7601H38.3802C38.2802 31.7701 38.2102 31.7701 38.1502 31.7701L32.7302 31.9801ZM32.6802 10.7901L32.8502 31.7301L38.1602 31.5201C38.2202 31.5201 38.2802 31.5101 38.3802 31.5101H38.4102C38.4502 31.5101 38.4902 31.5001 38.5302 31.5001L38.5802 31.4901L38.6302 31.4801L39.7002 31.2301L40.5602 30.8601L41.4602 30.2901L42.2902 29.5601C42.3202 29.5301 42.3402 29.5101 42.3602 29.4801L42.4102 29.4201C42.4502 29.3801 42.4802 29.3501 42.5002 29.3201L43.3602 28.2301L44.1502 26.8601L44.7702 25.3101L45.2002 23.6101L45.3802 22.3101C45.3802 22.2701 45.3902 22.2201 45.3902 22.1801L45.4502 20.7501C45.4502 20.6601 45.4502 20.5701 45.4502 20.4801V20.3901L45.2502 18.3701L44.7702 16.4401L44.2502 15.1301L43.7202 14.1401C43.6902 14.0901 43.6702 14.0501 43.6402 14.0101L43.1102 13.2501C43.0802 13.2101 43.0502 13.1701 43.0202 13.1301L42.8502 12.9201C42.8202 12.8801 42.7902 12.8501 42.7602 12.8101L42.1502 12.1901L42.0002 12.0801C41.9702 12.0501 41.9302 12.0201 41.9002 11.9901L41.5702 11.7301C41.5702 11.7301 41.5502 11.7101 41.5402 11.7101C41.5102 11.6801 41.4702 11.6601 41.4402 11.6401L41.3902 11.6001C41.3502 11.5801 41.3202 11.5501 41.2802 11.5301L40.5902 11.1301L39.8902 10.8401C39.8502 10.8301 39.8202 10.8201 39.7902 10.8101L39.7202 10.7901C39.6802 10.7801 39.6502 10.7701 39.6102 10.7601L38.8402 10.6101L38.1702 10.5701C38.1202 10.5701 38.0602 10.5701 38.0102 10.5701L32.6802 10.7901ZM36.5202 27.1601C36.4902 27.1601 36.4602 27.1501 36.4402 27.1301C36.4202 27.1101 36.4002 27.0801 36.4002 27.0501L36.3102 15.2001C36.3102 15.1401 36.3602 15.0801 36.4202 15.0801L37.4602 15.0401C37.5002 15.0401 37.5202 15.0401 37.5402 15.0401L37.7702 15.0501H37.8102L37.8802 15.0601L37.9202 15.0701L38.2102 15.1101L38.2502 15.1201L38.4202 15.1601L38.4602 15.1701L38.5302 15.1901C38.5302 15.1901 38.5602 15.2001 38.5702 15.2001L38.6402 15.2201V15.3401L38.6802 15.2301C38.7102 15.2401 38.7302 15.2501 38.7502 15.2501L38.8402 15.2801L38.8302 15.4001L38.8702 15.2901L38.9402 15.3201L38.9702 15.3301L39.1402 15.4101L39.1702 15.4201L39.4302 15.5701C39.4302 15.5701 39.4702 15.6001 39.4802 15.6001L39.5902 15.6801L39.6202 15.7001L39.6802 15.7501C39.6802 15.7501 39.7102 15.7701 39.7102 15.7801L39.7802 15.8401C39.8202 15.8701 39.8402 15.8901 39.8702 15.9101C39.9102 15.9501 39.9302 15.9701 39.9502 15.9901L40.0302 16.0701L40.0502 16.0901C40.0702 16.1101 40.0902 16.1301 40.1102 16.1501L40.1902 16.2301L40.2102 16.2501L40.3402 16.4001L40.3602 16.4201L40.4202 16.4901L40.3502 16.6001L40.4502 16.5301L40.4902 16.5901L40.5102 16.6101L40.5502 16.6701L40.5702 16.7001C40.6002 16.7401 40.6102 16.7601 40.6302 16.7901L40.8102 17.0901L40.7202 17.1801L40.8202 17.1201C40.8502 17.1701 40.8602 17.1901 40.8702 17.2201L40.9302 17.3301L40.9502 17.3601L41.0602 17.6001C41.0702 17.6301 41.0802 17.6601 41.1002 17.6901L41.4502 18.8101L41.5502 19.3601L41.5602 19.4201L41.5702 19.5201L41.4602 19.5901L41.5802 19.5701L41.6702 20.7401C41.6702 20.8001 41.6702 20.8601 41.6702 20.9201V21.0201L41.5002 22.9901L41.3602 23.6001C41.3502 23.6201 41.3502 23.6501 41.3402 23.6701L41.1902 24.1301L41.1702 24.1801L40.5602 25.3601L39.8902 26.1301L39.8502 26.1701L39.7302 26.1201L39.8102 26.2101L39.7402 26.2701L39.6302 26.2101L39.7002 26.3001L39.5002 26.4501L39.4702 26.4701L39.3802 26.3901L39.4202 26.5001L39.4002 26.5201L39.3102 26.5801L39.2602 26.6101L39.2102 26.6401C39.2102 26.6401 39.1802 26.6501 39.1802 26.6601L39.1002 26.5701L39.1402 26.6801L38.8802 26.8101L38.7902 26.7201L38.8402 26.8301L38.6602 26.9001L38.6102 26.9201L38.5602 26.9401L37.7102 27.1401L37.6702 27.1501L37.6202 27.1601C37.5702 27.1701 37.5102 27.1701 37.4602 27.1701L36.5202 27.1601C36.5202 27.1601 36.5302 27.1601 36.5202 27.1601ZM37.6402 26.8801L37.7002 26.9901L37.6902 26.8701L37.7402 26.9801L37.7202 26.8601L38.5202 26.6701L38.6102 26.7601L38.5702 26.6501L38.6202 26.6301L38.6702 26.6101L38.7402 26.7101L38.7102 26.5901L38.7602 26.5701L38.8502 26.6601L38.8002 26.5501L38.8502 26.5301L39.0602 26.4201L39.1002 26.4001L39.3002 26.2801L39.4102 26.3501L39.3402 26.2501L39.4502 26.3201L39.3802 26.2201L39.4202 26.1901L39.5302 26.2601L39.4602 26.1701L39.5402 26.1101L39.6602 26.1701L39.6002 26.0801L39.6402 26.0501L39.6802 26.0201L39.8002 26.0701L39.7202 25.9801L39.7602 25.9401L40.4502 25.1301L40.9002 24.2701L41.2702 23.0201L41.4502 21.4401L41.4602 21.0701V21.0401L41.3702 19.6001L41.3602 19.5501L41.3502 19.4501L41.4602 19.3801L41.3402 19.4001L41.2702 19.0101L41.3802 18.9401L41.2602 18.9601L40.9502 17.9101L40.9002 17.7901C40.8902 17.7601 40.8802 17.7301 40.8602 17.7101L40.7602 17.4801L40.8502 17.4001L40.7402 17.4501L40.6802 17.3401C40.6702 17.3101 40.6502 17.2901 40.6402 17.2601L40.4002 16.8601L40.3802 16.8401L40.2702 16.6901L40.2402 16.6501L40.1902 16.5901L40.2602 16.4901L40.1702 16.5701L39.8202 16.1901C39.7802 16.1501 39.7602 16.1401 39.7402 16.1201C39.7002 16.0901 39.6802 16.0701 39.6602 16.0501L39.5802 15.9801L39.6102 15.8601L39.5402 15.9501L39.5002 15.9201L39.5302 15.7901L39.4602 15.8901L39.3502 15.8201L39.3102 15.8001L39.0802 15.6701L39.1002 15.5501L39.0502 15.6501L38.8802 15.5701L38.8502 15.5601L38.7802 15.5301L38.7402 15.5201L38.6802 15.5001L38.6502 15.4901C38.6302 15.4801 38.6102 15.4701 38.5902 15.4701L38.5602 15.4601L38.4902 15.4401V15.3201L38.4602 15.4301L38.2902 15.3901L38.2602 15.3801L38.2202 15.3701L38.1802 15.3601L37.8902 15.3201L37.8602 15.2001L37.8502 15.3201L37.7802 15.3101L37.7502 15.1901L37.7402 15.3101L37.4602 15.3001H37.4102H37.3102L36.5302 15.3301L36.6202 26.9501L37.4602 26.9201C37.5302 26.8901 37.5902 26.8801 37.6402 26.8801Z" fill="url(#paint3_linear)"/>
<path d="M32.7302 31.8603L29.6502 31.7703L29.4902 10.5903L32.5602 10.6803L32.7302 31.8603Z" fill="url(#paint4_linear)"/>
<path d="M32.7301 31.9802L29.6501 31.8902C29.5901 31.8902 29.5401 31.8402 29.5401 31.7702L29.3701 10.5902C29.3701 10.5602 29.3801 10.5302 29.4101 10.5002C29.4301 10.4802 29.4701 10.4702 29.5001 10.4702L32.5801 10.5602C32.6401 10.5602 32.6901 10.6102 32.6901 10.6802L32.8601 31.8602C32.8601 31.8902 32.8501 31.9202 32.8201 31.9502C32.7901 31.9702 32.7601 31.9802 32.7301 31.9802ZM29.7701 31.6602L32.6101 31.7402L32.4401 10.8002L29.6001 10.7202L29.7701 31.6602Z" fill="url(#paint5_linear)"/>
<path d="M18.55 15.2302H22.23L18.64 23.3902H14.96L18.55 15.2302Z" fill="black"/>
<path d="M25.9801 27.6003H22.3101V31.9803H25.9801V27.6003Z" fill="url(#paint6_linear)"/>
<path d="M25.9799 32.1102H22.31C22.24 32.1102 22.1899 32.0502 22.1899 31.9902V27.6102C22.1899 27.5402 22.25 27.4902 22.31 27.4902H25.9799C26.0499 27.4902 26.0999 27.5502 26.0999 27.6102V31.9902C26.1099 32.0502 26.0499 32.1102 25.9799 32.1102ZM22.4299 31.8602H25.8599V27.7202H22.4299V31.8602Z" fill="url(#paint7_linear)"/>
<path d="M25.9801 10.7903H22.3101V23.3803H25.9801V10.7903Z" fill="url(#paint8_linear)"/>
<path d="M25.9799 23.5102H22.31C22.24 23.5102 22.1899 23.4502 22.1899 23.3902V10.7902C22.1899 10.7202 22.25 10.6702 22.31 10.6702H25.9799C26.0499 10.6702 26.0999 10.7302 26.0999 10.7902V23.3802C26.1099 23.4502 26.0499 23.5102 25.9799 23.5102ZM22.4299 23.2602H25.8599V10.9202H22.4299V23.2602Z" fill="url(#paint9_linear)"/>
<path d="M27.8297 23.3904H24.1597V27.6104H27.8297V23.3904Z" fill="url(#paint10_linear)"/>
<path d="M27.8398 27.7303H24.1698C24.0998 27.7303 24.0498 27.6703 24.0498 27.6103V23.3903C24.0498 23.3203 24.1098 23.2703 24.1698 23.2703H27.8398C27.9098 23.2703 27.9598 23.3303 27.9598 23.3903V27.6103C27.9598 27.6703 27.9098 27.7303 27.8398 27.7303ZM24.2898 27.4803H27.7198V23.5103H24.2898V27.4803Z" fill="url(#paint11_linear)"/>
<path d="M22.3099 10.7903V23.3803H24.1699V27.6003H22.3099V31.9803H18.5999V27.6003H11.1299V24.0903L17.0699 10.8003H22.3099V10.7903ZM18.5899 23.3903V15.2403H18.5499L14.9599 23.3903H18.5899Z" fill="url(#paint12_linear)"/>
<path d="M22.31 32.1102H18.6C18.53 32.1102 18.48 32.0502 18.48 31.9902V27.7302H11.14C11.07 27.7302 11.02 27.6702 11.02 27.6102V24.1002C11.02 24.0802 11.02 24.0702 11.03 24.0502L16.97 10.7602C16.99 10.7202 17.03 10.6902 17.08 10.6902H22.32C22.39 10.6902 22.44 10.7502 22.44 10.8102V23.2802H24.17C24.24 23.2802 24.29 23.3402 24.29 23.4002V27.6202C24.29 27.6902 24.23 27.7402 24.17 27.7402H22.44V32.0002C22.43 32.0502 22.37 32.1102 22.31 32.1102ZM18.72 31.8602H22.18V27.6002C22.18 27.5302 22.24 27.4802 22.3 27.4802H24.03V23.5102H22.3C22.23 23.5102 22.18 23.4502 22.18 23.3902V10.9202H17.14L11.25 24.1202V27.4802H18.59C18.66 27.4802 18.71 27.5402 18.71 27.6002V31.8602H18.72ZM18.59 23.5102H14.96C14.92 23.5102 14.88 23.4902 14.86 23.4502C14.84 23.4102 14.83 23.3702 14.85 23.3302L18.44 15.1802C18.46 15.1402 18.5 15.1102 18.55 15.1102H18.59C18.66 15.1102 18.71 15.1702 18.71 15.2302V23.3802C18.72 23.4502 18.66 23.5102 18.59 23.5102ZM15.15 23.2602H18.47V15.7302L15.15 23.2602Z" fill="url(#paint13_linear)"/>
<defs>
<linearGradient id="paint0_linear" x1="-0.0044" y1="21.763" x2="57.6885" y2="21.763" gradientUnits="userSpaceOnUse">
<stop stop-color="#DED9D6"/>
<stop offset="0.0616" stop-color="#CECAC9"/>
<stop offset="0.1794" stop-color="#A8A4A7"/>
<stop offset="0.264" stop-color="#8B878D"/>
<stop offset="0.5225" stop-color="#F3F4F4"/>
<stop offset="0.5875" stop-color="#E0DFE0"/>
<stop offset="0.7124" stop-color="#B7B4B8"/>
<stop offset="0.8764" stop-color="#807B80"/>
<stop offset="1" stop-color="#A7A9AC"/>
</linearGradient>
<linearGradient id="paint1_linear" x1="37.9406" y1="27.2001" x2="37.9406" y2="14.7948" gradientUnits="userSpaceOnUse">
<stop stop-color="#DED9D6"/>
<stop offset="0.0616" stop-color="#CECAC9"/>
<stop offset="0.1794" stop-color="#A8A4A7"/>
<stop offset="0.264" stop-color="#8B878D"/>
<stop offset="0.5225" stop-color="#F3F4F4"/>
<stop offset="0.5875" stop-color="#E0DFE0"/>
<stop offset="0.7124" stop-color="#B7B4B8"/>
<stop offset="0.8764" stop-color="#807B80"/>
<stop offset="1" stop-color="#A7A9AC"/>
</linearGradient>
<linearGradient id="paint2_linear" x1="39.0618" y1="31.2913" x2="39.0618" y2="10.5349" gradientUnits="userSpaceOnUse">
<stop stop-color="#DED9D6"/>
<stop offset="0.0616" stop-color="#CECAC9"/>
<stop offset="0.1794" stop-color="#A8A4A7"/>
<stop offset="0.264" stop-color="#8B878D"/>
<stop offset="0.5225" stop-color="#F3F4F4"/>
<stop offset="0.5875" stop-color="#E0DFE0"/>
<stop offset="0.7124" stop-color="#B7B4B8"/>
<stop offset="0.8764" stop-color="#807B80"/>
<stop offset="1" stop-color="#A7A9AC"/>
</linearGradient>
<linearGradient id="paint3_linear" x1="32.446" y1="21.1616" x2="45.6779" y2="21.1616" gradientUnits="userSpaceOnUse">
<stop stop-color="#D1D3D4"/>
<stop offset="0.1236" stop-color="#807B80"/>
<stop offset="0.2876" stop-color="#B7B4B8"/>
<stop offset="0.4125" stop-color="#E0DFE0"/>
<stop offset="0.4775" stop-color="#F3F4F4"/>
<stop offset="0.736" stop-color="#8B878D"/>
<stop offset="0.8206" stop-color="#A8A4A7"/>
<stop offset="0.9384" stop-color="#CECAC9"/>
<stop offset="1" stop-color="#E5E2DF"/>
</linearGradient>
<linearGradient id="paint4_linear" x1="25.429" y1="26.9053" x2="37.1413" y2="15.1931" gradientUnits="userSpaceOnUse">
<stop stop-color="#DED9D6"/>
<stop offset="0.0616" stop-color="#CECAC9"/>
<stop offset="0.1794" stop-color="#A8A4A7"/>
<stop offset="0.264" stop-color="#8B878D"/>
<stop offset="0.5225" stop-color="#F3F4F4"/>
<stop offset="0.5875" stop-color="#E0DFE0"/>
<stop offset="0.7124" stop-color="#B7B4B8"/>
<stop offset="0.8764" stop-color="#807B80"/>
<stop offset="1" stop-color="#A7A9AC"/>
</linearGradient>
<linearGradient id="paint5_linear" x1="31.1092" y1="31.9776" x2="31.1092" y2="10.4722" gradientUnits="userSpaceOnUse">
<stop stop-color="#D1D3D4"/>
<stop offset="0.1236" stop-color="#807B80"/>
<stop offset="0.2876" stop-color="#B7B4B8"/>
<stop offset="0.4125" stop-color="#E0DFE0"/>
<stop offset="0.4775" stop-color="#F3F4F4"/>
<stop offset="0.736" stop-color="#8B878D"/>
<stop offset="0.8206" stop-color="#A8A4A7"/>
<stop offset="0.9384" stop-color="#CECAC9"/>
<stop offset="1" stop-color="#E5E2DF"/>
</linearGradient>
<linearGradient id="paint6_linear" x1="23.8016" y1="31.6411" x2="27.6111" y2="11.0698" gradientUnits="userSpaceOnUse">
<stop stop-color="#DED9D6"/>
<stop offset="0.0616" stop-color="#CECAC9"/>
<stop offset="0.1794" stop-color="#A8A4A7"/>
<stop offset="0.264" stop-color="#8B878D"/>
<stop offset="0.5225" stop-color="#F3F4F4"/>
<stop offset="0.5875" stop-color="#E0DFE0"/>
<stop offset="0.7124" stop-color="#B7B4B8"/>
<stop offset="0.8764" stop-color="#807B80"/>
<stop offset="1" stop-color="#A7A9AC"/>
</linearGradient>
<linearGradient id="paint7_linear" x1="22.1815" y1="29.7935" x2="26.1054" y2="29.7935" gradientUnits="userSpaceOnUse">
<stop stop-color="#DED9D6"/>
<stop offset="0.0616" stop-color="#CECAC9"/>
<stop offset="0.1794" stop-color="#A8A4A7"/>
<stop offset="0.264" stop-color="#8B878D"/>
<stop offset="0.5225" stop-color="#F3F4F4"/>
<stop offset="0.5875" stop-color="#E0DFE0"/>
<stop offset="0.7124" stop-color="#B7B4B8"/>
<stop offset="0.8764" stop-color="#807B80"/>
<stop offset="1" stop-color="#A7A9AC"/>
</linearGradient>
<linearGradient id="paint8_linear" x1="21.5247" y1="31.2323" x2="25.3259" y2="10.7058" gradientUnits="userSpaceOnUse">
<stop stop-color="#DED9D6"/>
<stop offset="0.0616" stop-color="#CECAC9"/>
<stop offset="0.1794" stop-color="#A8A4A7"/>
<stop offset="0.264" stop-color="#8B878D"/>
<stop offset="0.5225" stop-color="#F3F4F4"/>
<stop offset="0.5875" stop-color="#E0DFE0"/>
<stop offset="0.7124" stop-color="#B7B4B8"/>
<stop offset="0.8764" stop-color="#807B80"/>
<stop offset="1" stop-color="#A7A9AC"/>
</linearGradient>
<linearGradient id="paint9_linear" x1="22.1815" y1="17.0894" x2="26.1054" y2="17.0894" gradientUnits="userSpaceOnUse">
<stop stop-color="#DED9D6"/>
<stop offset="0.0616" stop-color="#CECAC9"/>
<stop offset="0.1794" stop-color="#A8A4A7"/>
<stop offset="0.264" stop-color="#8B878D"/>
<stop offset="0.5225" stop-color="#F3F4F4"/>
<stop offset="0.5875" stop-color="#E0DFE0"/>
<stop offset="0.7124" stop-color="#B7B4B8"/>
<stop offset="0.8764" stop-color="#807B80"/>
<stop offset="1" stop-color="#A7A9AC"/>
</linearGradient>
<linearGradient id="paint10_linear" x1="24.8247" y1="31.8388" x2="28.6346" y2="11.2655" gradientUnits="userSpaceOnUse">
<stop stop-color="#DED9D6"/>
<stop offset="0.0616" stop-color="#CECAC9"/>
<stop offset="0.1794" stop-color="#A8A4A7"/>
<stop offset="0.264" stop-color="#8B878D"/>
<stop offset="0.5225" stop-color="#F3F4F4"/>
<stop offset="0.5875" stop-color="#E0DFE0"/>
<stop offset="0.7124" stop-color="#B7B4B8"/>
<stop offset="0.8764" stop-color="#807B80"/>
<stop offset="1" stop-color="#A7A9AC"/>
</linearGradient>
<linearGradient id="paint11_linear" x1="24.0379" y1="25.4933" x2="27.9617" y2="25.4933" gradientUnits="userSpaceOnUse">
<stop stop-color="#DED9D6"/>
<stop offset="0.0616" stop-color="#CECAC9"/>
<stop offset="0.1794" stop-color="#A8A4A7"/>
<stop offset="0.264" stop-color="#8B878D"/>
<stop offset="0.5225" stop-color="#F3F4F4"/>
<stop offset="0.5875" stop-color="#E0DFE0"/>
<stop offset="0.7124" stop-color="#B7B4B8"/>
<stop offset="0.8764" stop-color="#807B80"/>
<stop offset="1" stop-color="#A7A9AC"/>
</linearGradient>
<linearGradient id="paint12_linear" x1="17.6437" y1="32.3459" x2="17.6437" y2="10.833" gradientUnits="userSpaceOnUse">
<stop stop-color="#DED9D6"/>
<stop offset="0.0616" stop-color="#CECAC9"/>
<stop offset="0.1794" stop-color="#A8A4A7"/>
<stop offset="0.264" stop-color="#8B878D"/>
<stop offset="0.5225" stop-color="#F3F4F4"/>
<stop offset="0.5875" stop-color="#E0DFE0"/>
<stop offset="0.7124" stop-color="#B7B4B8"/>
<stop offset="0.8764" stop-color="#807B80"/>
<stop offset="1" stop-color="#A7A9AC"/>
</linearGradient>
<linearGradient id="paint13_linear" x1="11.0005" y1="21.3897" x2="24.2871" y2="21.3897" gradientUnits="userSpaceOnUse">
<stop stop-color="#DED9D6"/>
<stop offset="0.0616" stop-color="#CECAC9"/>
<stop offset="0.1794" stop-color="#A8A4A7"/>
<stop offset="0.264" stop-color="#8B878D"/>
<stop offset="0.5225" stop-color="#F3F4F4"/>
<stop offset="0.5875" stop-color="#E0DFE0"/>
<stop offset="0.7124" stop-color="#B7B4B8"/>
<stop offset="0.8764" stop-color="#807B80"/>
<stop offset="1" stop-color="#A7A9AC"/>
</linearGradient>
</defs>
</svg>
