<svg width="58" height="44" viewBox="0 0 58 44" fill="none" xmlns="http://www.w3.org/2000/svg">
<path d="M57.19 41.01C57.19 42.12 56.28 43.02 55.15 43.02H2.54001C1.41001 43.02 0.5 42.12 0.5 41.01V2.51C0.5 1.4 1.41001 0.5 2.54001 0.5H55.15C56.28 0.5 57.19 1.4 57.19 2.51V41.01Z" fill="black"/>
<path d="M55.15 43.52H2.54001C1.14001 43.52 0 42.39 0 41.01V2.51C0 1.13 1.14001 0 2.54001 0H55.15C56.55 0 57.69 1.13 57.69 2.51V41.01C57.69 42.4 56.55 43.52 55.15 43.52ZM2.54001 1C1.69001 1 1 1.68 1 2.51V41.01C1 41.84 1.69001 42.52 2.54001 42.52H55.15C56 42.52 56.69 41.84 56.69 41.01V2.51C56.69 1.68 56 1 55.15 1H2.54001V1Z" fill="url(#paint0_linear)"/>
<path d="M23.82 11.96C22.61 12.12 21.41 12.33 20.21 12.59C20.74 17.71 21.26 22.84 21.77 27.97L24.1 28.03C25.08 27.82 26.07 27.65 27.05 27.52C26.76 22.35 26.46 17.19 26.15 12.02L23.82 11.96Z" fill="url(#paint1_linear)"/>
<path d="M24.1199 28.1498L21.7599 28.0898C21.6999 28.0898 21.6499 28.0398 21.6499 27.9798C21.0999 22.4398 20.5799 17.4098 20.0899 12.5998C20.0799 12.5398 20.1199 12.4798 20.1799 12.4698C21.3599 12.2098 22.5799 11.9998 23.7999 11.8398C23.8099 11.8398 23.8099 11.8398 23.8199 11.8398L26.1499 11.8998C26.2099 11.8998 26.2599 11.9498 26.2699 12.0098C26.5799 17.1498 26.8799 22.3598 27.1699 27.5098C27.1699 27.5698 27.1299 27.6298 27.0699 27.6298C26.0999 27.7698 25.1099 27.9398 24.1199 28.1498ZM21.8799 27.8498L24.1099 27.9098C25.0399 27.7098 25.9999 27.5398 26.9299 27.4198C26.6399 22.3498 26.3399 17.2098 26.0399 12.1398L23.8299 12.0798C22.6499 12.2398 21.4799 12.4398 20.3399 12.6798C20.8299 17.4298 21.3299 22.3998 21.8799 27.8498Z" fill="url(#paint2_linear)"/>
<path d="M15.3098 22.4899C16.4498 19.4399 17.7598 16.4299 19.2298 13.4899L16.8998 13.4299C16.6898 13.4899 16.4798 13.5599 16.2698 13.6199C16.1798 13.6499 16.0898 13.6799 15.9998 13.7099C15.8598 13.7499 15.7298 13.7999 15.5898 13.8399C15.3698 13.9099 15.1598 13.9799 14.9398 14.0599C14.8098 14.0999 14.6798 14.1499 14.5498 14.1999C14.3198 14.2799 14.0798 14.3699 13.8498 14.4499C13.7398 14.4899 13.6298 14.5299 13.5198 14.5699C13.1798 14.6999 12.8398 14.8299 12.4998 14.9699C12.2498 15.6199 12.0098 16.2599 11.7798 16.9099C11.7798 16.9199 11.7798 16.9199 11.7698 16.9299C11.7598 16.9599 11.7498 16.9899 11.7398 17.0199C11.5398 17.5899 11.3398 18.1499 11.1498 18.7199C11.1298 18.7899 11.0998 18.8599 11.0798 18.9299C10.9098 18.2799 10.7498 17.6399 10.5798 16.9899L8.24982 16.9299C7.66982 17.2299 7.09982 17.5399 6.52982 17.8599C5.95982 18.1799 5.38982 18.5199 4.81982 18.8699C6.28982 23.5999 7.75981 28.3399 9.20981 33.0899L11.5398 33.1499C12.4598 32.5799 13.3998 32.0499 14.3398 31.5699C13.9998 30.2299 13.6598 28.8899 13.3198 27.5499C14.1398 28.2799 14.9498 29.0299 15.7198 29.8199L18.0498 29.8799C19.2998 29.3899 20.5498 28.9599 21.8198 28.6099C19.8198 26.3799 17.6498 24.3299 15.3098 22.4899Z" fill="url(#paint3_linear)"/>
<path d="M11.5297 33.2699C11.5297 33.2699 11.5197 33.2699 11.5297 33.2699L9.19973 33.2099C9.14973 33.2099 9.09971 33.1699 9.08971 33.1299C7.59971 28.2799 6.11973 23.4899 4.69973 18.9099C4.67973 18.8599 4.70971 18.7999 4.74971 18.7699C5.31971 18.4199 5.89971 18.0799 6.45971 17.7599C7.02971 17.4399 7.60972 17.1199 8.18972 16.8299C8.20972 16.8199 8.22971 16.8199 8.24971 16.8199L10.5797 16.8799C10.6297 16.8799 10.6797 16.9199 10.6897 16.9699L11.0897 18.5299C11.2697 18.0199 11.4397 17.4999 11.6297 16.9899L11.6597 16.8899C11.8997 16.2199 12.1397 15.5699 12.3897 14.9299C12.3997 14.8999 12.4297 14.8699 12.4597 14.8599C12.7997 14.7199 13.1397 14.5899 13.4897 14.4599L13.8197 14.3399C14.0497 14.2499 14.2897 14.1699 14.5197 14.0899C14.6197 14.0599 14.7097 14.0199 14.8097 13.9899L14.9197 13.9499C15.1397 13.8799 15.3497 13.7999 15.5697 13.7299L16.2497 13.5099C16.4597 13.4399 16.6697 13.3799 16.8797 13.3199C16.8897 13.3199 16.8997 13.3099 16.9197 13.3199L19.2497 13.3799C19.2897 13.3799 19.3297 13.3999 19.3497 13.4399C19.3697 13.4799 19.3697 13.5199 19.3497 13.5499C17.8997 16.4199 16.5997 19.4199 15.4597 22.4499C17.7397 24.2499 19.9097 26.2999 21.8997 28.5199C21.9297 28.5499 21.9397 28.5899 21.9297 28.6299C21.9197 28.6699 21.8897 28.6999 21.8497 28.7099C20.5997 29.0599 19.3297 29.4899 18.0997 29.9799C18.0897 29.9899 18.0697 29.9899 18.0497 29.9899L15.7197 29.9299C15.6897 29.9299 15.6597 29.9199 15.6397 29.8899C14.9797 29.2199 14.2697 28.5499 13.5297 27.8799C13.8397 29.0999 14.1397 30.3099 14.4497 31.5299C14.4597 31.5799 14.4397 31.6399 14.3897 31.6599C13.4697 32.1299 12.5297 32.6599 11.5997 33.2399C11.5697 33.2599 11.5497 33.2699 11.5297 33.2699ZM9.27971 32.9699L11.4897 33.0299C12.3897 32.4799 13.2997 31.9699 14.1797 31.5099C13.8497 30.1999 13.5097 28.8899 13.1897 27.5799C13.1797 27.5299 13.1997 27.4799 13.2397 27.4499C13.2797 27.4199 13.3397 27.4299 13.3797 27.4599C14.2097 28.1999 15.0097 28.9499 15.7597 29.6999L18.0197 29.7599C19.1997 29.2999 20.3997 28.8899 21.5897 28.5399C19.6197 26.3599 17.4797 24.3499 15.2397 22.5799C15.1997 22.5499 15.1797 22.4899 15.1997 22.4499C16.3197 19.4399 17.6197 16.4599 19.0497 13.6099L16.9197 13.5499C16.7197 13.6099 16.5097 13.6699 16.3097 13.7299L15.6297 13.9499C15.4097 14.0199 15.1997 14.0899 14.9797 14.1699L14.8797 14.1999C14.7897 14.2299 14.6897 14.2599 14.5997 14.2999C14.3697 14.3799 14.1397 14.4699 13.8997 14.5499L13.5697 14.6699C13.2397 14.7899 12.9197 14.9199 12.5997 15.0499C12.3597 15.6799 12.1197 16.3099 11.8997 16.9399L11.8597 17.0499C11.6597 17.6099 11.4597 18.1799 11.2697 18.7499L11.1997 18.9499C11.1797 18.9999 11.1497 19.0399 11.0797 19.0299C11.0297 19.0299 10.9797 18.9899 10.9697 18.9399L10.4897 17.0899L8.27971 17.0299C7.71971 17.3199 7.14971 17.6299 6.58971 17.9499C6.05971 18.2499 5.50971 18.5699 4.95971 18.9099C6.34971 23.4499 7.80971 28.1699 9.27971 32.9699Z" fill="url(#paint4_linear)"/>
<path d="M7.11984 19.0501H4.95984C4.88984 19.0501 4.83984 19.0001 4.83984 18.9301C4.83984 18.8601 4.88984 18.8101 4.95984 18.8101H7.11984C7.18984 18.8101 7.23984 18.8601 7.23984 18.9301C7.23984 19.0001 7.18984 19.0501 7.11984 19.0501Z" fill="url(#paint5_linear)"/>
<path d="M48.9895 21.4701C48.7395 21.2501 48.4795 21.0301 48.2195 20.8101C47.6995 20.3501 46.8796 19.6601 47.0496 18.7801C47.0696 18.6701 47.1095 18.5701 47.1595 18.4801C47.4895 18.7301 47.7796 19.0501 48.0396 19.4001C48.1796 19.6001 48.3095 19.8101 48.4295 20.0301L50.7596 20.0901C51.4496 19.3101 52.1596 18.5501 52.8896 17.8101C51.9196 16.4601 50.3695 15.2001 48.9895 14.6401C48.3395 14.3801 47.7196 14.2601 47.1396 14.2701C47.1996 14.2701 47.2696 14.2701 47.3296 14.2701L44.9995 14.2101C44.9795 14.2101 44.9595 14.2101 44.9295 14.2101C44.8895 14.2101 44.8496 14.2101 44.7996 14.2101C44.6896 14.2101 44.5895 14.2201 44.4895 14.2301C44.4595 14.2301 44.4295 14.2401 44.3995 14.2401C44.3195 14.2501 44.2395 14.2601 44.1595 14.2801C44.1395 14.2801 44.1095 14.2901 44.0895 14.2901C43.9995 14.3101 43.9095 14.3301 43.8195 14.3601C43.8095 14.3601 43.8095 14.3601 43.8095 14.3701C43.6895 14.4101 43.5696 14.4501 43.4496 14.5101C43.4196 14.5201 43.3896 14.5401 43.3596 14.5501C43.2696 14.5901 43.1896 14.6401 43.1096 14.6901C43.0696 14.7101 43.0395 14.7401 42.9995 14.7601C42.9195 14.8101 42.8495 14.8601 42.7795 14.9201C42.7495 14.9401 42.7095 14.9701 42.6795 14.9901C42.5895 15.0701 42.4895 15.1501 42.4095 15.2401C42.3995 15.2501 42.3996 15.2501 42.3896 15.2601C42.2996 15.3601 42.2095 15.4601 42.1295 15.5601C42.0995 15.5901 42.0795 15.6301 42.0595 15.6601C41.9995 15.7401 41.9496 15.8201 41.8896 15.9101C41.8596 15.9501 41.8395 15.9901 41.8095 16.0301C41.7595 16.1201 41.7095 16.2101 41.6595 16.3101C41.6395 16.3501 41.6195 16.3801 41.5995 16.4201C41.5395 16.5501 41.4795 16.6901 41.4295 16.8401V16.8501C41.4195 16.8701 41.4195 16.8901 41.4095 16.9101C41.3895 16.9701 41.3695 17.0301 41.3495 17.0901C40.5695 14.2701 38.3696 12.0301 35.5396 11.7901C34.4996 11.7001 33.4495 11.6601 32.3995 11.6401C32.6295 11.6401 32.8595 11.6401 33.0895 11.6501L30.7596 11.5901C30.5196 11.5801 30.2695 11.5801 30.0295 11.5801C29.9795 11.5801 29.9295 11.5801 29.8795 11.5801C29.4395 11.5801 29.0095 11.5801 28.5695 11.5901C28.3895 11.5901 28.2196 11.6001 28.0396 11.6001C28.0896 16.7901 28.1396 21.9801 28.1696 27.1701L30.4995 27.2301C30.6495 27.2201 30.7996 27.2201 30.9496 27.2201C31.1396 27.2201 31.3395 27.2201 31.5295 27.2201C31.8195 27.2401 32.0996 27.2601 32.3896 27.2801C32.4796 27.2901 32.5595 27.2901 32.6495 27.2901L34.9796 27.3501C34.8896 27.3501 34.8095 27.3401 34.7195 27.3401C34.3895 27.3101 34.0695 27.2901 33.7395 27.2701C34.0695 27.2901 34.3895 27.3101 34.7195 27.3401C34.8895 27.3501 35.0596 27.3601 35.2296 27.3501C38.0396 27.2901 40.7095 24.9001 41.4695 21.1101C41.4995 21.1701 41.5295 21.2301 41.5595 21.2801C41.5795 21.3101 41.5896 21.3401 41.6096 21.3701C41.6496 21.4401 41.6995 21.5101 41.7395 21.5701C41.7595 21.5901 41.7696 21.6101 41.7896 21.6401C41.8496 21.7301 41.9195 21.8101 41.9895 21.8901C41.9995 21.9101 42.0196 21.9201 42.0396 21.9401C42.0996 22.0101 42.1595 22.0701 42.2195 22.1301C42.2395 22.1601 42.2696 22.1801 42.2896 22.2101C42.3496 22.2701 42.4095 22.3301 42.4695 22.3801C42.4895 22.4001 42.5196 22.4201 42.5396 22.4501C42.6196 22.5301 42.7096 22.6001 42.7996 22.6801C42.8096 22.6901 42.8295 22.7001 42.8395 22.7101C42.9195 22.7801 42.9996 22.8501 43.0796 22.9101C43.1096 22.9401 43.1396 22.9601 43.1696 22.9901C43.2396 23.0501 43.3095 23.1101 43.3795 23.1601C43.4095 23.1801 43.4395 23.2101 43.4695 23.2301C43.5695 23.3101 43.6596 23.3801 43.7596 23.4601C43.7996 23.4901 43.8295 23.5201 43.8695 23.5501C43.8795 23.5601 43.8895 23.5701 43.8995 23.5801C43.9295 23.6001 43.9595 23.6301 43.9895 23.6501C44.0095 23.6601 44.0196 23.6801 44.0396 23.6901C44.0696 23.7101 44.0995 23.7401 44.1195 23.7601C44.1395 23.7701 44.1496 23.7901 44.1696 23.8001C44.1996 23.8201 44.2296 23.8501 44.2596 23.8801C44.2796 23.8901 44.2895 23.9101 44.3095 23.9201C44.3495 23.9501 44.3796 23.9901 44.4196 24.0201C44.4296 24.0301 44.4395 24.0301 44.4395 24.0401C44.4795 24.0801 44.5295 24.1301 44.5695 24.1701C44.5795 24.1801 44.5896 24.2001 44.6096 24.2101C44.6396 24.2401 44.6696 24.2701 44.6996 24.3101C44.7196 24.3301 44.7295 24.3401 44.7395 24.3601C44.7695 24.3901 44.7895 24.4201 44.8195 24.4501C44.8295 24.4701 44.8496 24.4901 44.8596 24.5101C44.8796 24.5401 44.9095 24.5801 44.9295 24.6101C44.9395 24.6301 44.9595 24.6501 44.9695 24.6601C44.9995 24.7001 45.0196 24.7401 45.0396 24.7801C45.0496 24.7901 45.0595 24.8101 45.0595 24.8201C45.0895 24.8701 45.1196 24.9301 45.1396 24.9801C45.1496 24.9901 45.1495 25.0101 45.1595 25.0201C45.1795 25.0601 45.1895 25.1001 45.2095 25.1501C45.2195 25.1701 45.2196 25.1901 45.2296 25.2101C45.2396 25.2501 45.2496 25.2901 45.2596 25.3201C45.2596 25.3401 45.2696 25.3601 45.2696 25.3901C45.2796 25.4201 45.2795 25.4501 45.2795 25.4801C45.2795 25.5201 45.2896 25.5701 45.2896 25.6101C45.2896 25.6401 45.2896 25.6701 45.2896 25.7001C45.2896 25.7301 45.2795 25.7701 45.2795 25.8001C45.2695 25.8501 45.2696 25.8901 45.2596 25.9401C45.2396 26.0201 45.2095 26.1001 45.1895 26.1801C45.1795 26.1901 45.1796 26.2101 45.1696 26.2201C45.1496 26.2801 45.1195 26.3301 45.0895 26.3801C45.0795 26.3901 45.0795 26.4001 45.0695 26.4201C45.0595 26.4401 45.0495 26.4501 45.0295 26.4701C44.3695 25.9601 43.8296 25.2001 43.3596 24.3801L41.0295 24.3201C40.3995 25.2401 39.7995 26.1801 39.2095 27.1301C40.2195 28.5501 41.4695 29.6301 42.8495 30.1901C43.2695 30.3601 43.6996 30.4701 44.1396 30.5301C44.2896 30.5501 44.4296 30.5601 44.5796 30.5601L46.9095 30.6201C46.8495 30.6201 46.7995 30.6101 46.7395 30.6101C46.8595 30.6201 46.9896 30.6301 47.1096 30.6201C47.6296 30.6101 48.1495 30.5001 48.6495 30.2601C49.7895 29.7101 50.4995 28.3901 50.9095 26.9401C51.5995 24.6101 50.5895 22.8601 48.9895 21.4701ZM35.7296 20.4401C35.7196 20.5001 35.7095 20.5601 35.6895 20.6201C35.6695 20.7301 35.6495 20.8401 35.6195 20.9401C35.5995 21.0001 35.5895 21.0601 35.5695 21.1201C35.5395 21.2101 35.5195 21.3101 35.4895 21.3901C35.4695 21.4501 35.4495 21.5001 35.4295 21.5601C35.3995 21.6501 35.3595 21.7301 35.3195 21.8101C35.2995 21.8601 35.2695 21.9101 35.2495 21.9601C35.2095 22.0401 35.1595 22.1201 35.1195 22.2001C35.0995 22.2401 35.0696 22.2801 35.0496 22.3201C34.9896 22.4101 34.9296 22.5001 34.8596 22.5901C34.8496 22.6101 34.8395 22.6201 34.8195 22.6401C34.7395 22.7401 34.6595 22.8301 34.5695 22.9101C34.5395 22.9401 34.5195 22.9601 34.4895 22.9801C34.4295 23.0401 34.3696 23.0901 34.2996 23.1401C34.2696 23.1701 34.2296 23.1901 34.1996 23.2201C34.1396 23.2601 34.0796 23.3001 34.0196 23.3401C33.9796 23.3601 33.9395 23.3901 33.8995 23.4101C33.8395 23.4401 33.7795 23.4801 33.7095 23.5101C33.6695 23.5301 33.6295 23.5501 33.5895 23.5601H33.5796C33.6796 20.8801 33.7696 18.2001 33.8596 15.5201C33.8696 15.5301 33.8895 15.5301 33.8995 15.5401C33.9995 15.6001 34.0996 15.6601 34.1996 15.7201C34.2196 15.7401 34.2496 15.7601 34.2696 15.7701C34.3396 15.8201 34.4096 15.8701 34.4796 15.9301C34.5096 15.9601 34.5395 15.9801 34.5695 16.0101C34.6295 16.0601 34.6795 16.1201 34.7395 16.1701C34.7695 16.2001 34.7996 16.2301 34.8296 16.2601C34.8796 16.3201 34.9395 16.3801 34.9895 16.4501C35.0095 16.4801 35.0395 16.5101 35.0595 16.5401C35.1295 16.6401 35.1996 16.7401 35.2596 16.8401C35.2596 16.8501 35.2696 16.8601 35.2696 16.8601C35.3296 16.9601 35.3796 17.0601 35.4196 17.1601C35.4396 17.2001 35.4495 17.2301 35.4695 17.2701C35.4995 17.3501 35.5395 17.4301 35.5595 17.5101C35.5795 17.5501 35.5895 17.6001 35.5995 17.6401C35.6295 17.7201 35.6496 17.8101 35.6696 17.8901C35.6796 17.9301 35.6896 17.9801 35.6996 18.0201C35.7196 18.1201 35.7396 18.2301 35.7596 18.3401C35.7596 18.3701 35.7696 18.3901 35.7696 18.4201C35.7796 18.5001 35.7896 18.5801 35.7896 18.6601C35.7996 18.7301 35.8095 18.8001 35.8095 18.8801C35.8095 18.9601 35.8095 19.0501 35.8095 19.1401C35.8095 19.2201 35.8095 19.2901 35.8095 19.3701C35.8095 19.5301 35.7995 19.7001 35.7795 19.8601C35.7895 20.0801 35.7596 20.2601 35.7296 20.4401ZM32.7495 27.2401C32.9695 27.2501 33.1895 27.2601 33.4095 27.2701C33.1895 27.2601 32.9695 27.2501 32.7495 27.2401ZM48.1895 17.9901C48.2795 17.9901 48.3695 18.0001 48.4595 18.0201C48.3695 18.0001 48.2795 17.9901 48.1895 17.9901ZM48.4995 18.0301C48.5895 18.0501 48.6796 18.0801 48.7696 18.1201C48.6796 18.0801 48.5895 18.0501 48.4995 18.0301ZM46.2696 30.5701C46.3696 30.5901 46.4595 30.6001 46.5595 30.6101C46.4595 30.6001 46.3696 30.5901 46.2696 30.5701ZM45.1895 30.2701C45.3395 30.3301 45.4896 30.3801 45.6396 30.4301C45.4896 30.3801 45.3395 30.3201 45.1895 30.2701ZM45.7795 30.4601C45.8795 30.4901 45.9895 30.5201 46.0895 30.5401C45.9895 30.5201 45.8895 30.4901 45.7795 30.4601Z" fill="url(#paint6_linear)"/>
<path d="M47.0797 30.76C47.0297 30.76 46.9896 30.76 46.9396 30.76C46.9296 30.76 46.9296 30.76 46.9096 30.76L44.5797 30.7C44.4297 30.7 44.2796 30.68 44.1296 30.67C43.6996 30.61 43.2496 30.5 42.8096 30.32C41.4496 29.78 40.1696 28.7 39.1096 27.22C39.0796 27.18 39.0796 27.13 39.1096 27.09C39.6996 26.14 40.3096 25.19 40.9296 24.28C40.9496 24.25 40.9796 24.23 41.0296 24.23L43.3596 24.29C43.3996 24.29 43.4396 24.31 43.4596 24.35C43.9796 25.26 44.4696 25.89 44.9996 26.33C45.0196 26.29 45.0397 26.25 45.0497 26.21H45.1796L45.0696 26.17C45.0996 26.1 45.1196 26.03 45.1396 25.95C45.1496 25.91 45.1496 25.87 45.1596 25.83C45.1696 25.79 45.1696 25.75 45.1696 25.72C45.1696 25.69 45.1696 25.67 45.1696 25.64C45.1696 25.6 45.1696 25.56 45.1596 25.52C45.1596 25.49 45.1496 25.46 45.1496 25.43L45.1396 25.37C45.1296 25.34 45.1196 25.3 45.1096 25.27L45.0896 25.21C45.0796 25.17 45.0596 25.13 45.0396 25.09L45.1296 25L45.0197 25.05C44.9997 25 44.9696 24.95 44.9396 24.9L45.0197 24.8L44.9196 24.86C44.8996 24.82 44.8696 24.78 44.8496 24.74L44.8096 24.69C44.7896 24.66 44.7596 24.63 44.7396 24.6L44.6996 24.55C44.6796 24.52 44.6496 24.49 44.6196 24.46L44.5797 24.41C44.5497 24.38 44.5196 24.35 44.4896 24.32L44.4496 24.28C44.4096 24.24 44.3696 24.2 44.3196 24.15L44.2997 24.13C44.2597 24.1 44.2296 24.06 44.1896 24.03L44.2496 23.92L44.1696 24.01L43.7896 23.7L43.7596 23.67L42.9596 23.02C42.8796 22.95 42.7996 22.88 42.7196 22.81L42.6796 22.78C42.5896 22.7 42.4996 22.62 42.4196 22.55L42.3496 22.48C42.2896 22.42 42.2296 22.36 42.1696 22.3L42.0896 22.22C42.0296 22.16 41.9696 22.09 41.9096 22.02L41.8596 21.97C41.7896 21.89 41.7196 21.8 41.6596 21.71L41.6196 21.66C41.5596 21.58 41.5196 21.51 41.4796 21.45C40.6596 24.95 38.1096 27.41 35.1896 27.48C35.1096 27.48 35.0196 27.48 34.9396 27.48C34.9396 27.48 34.9396 27.48 34.9296 27.48L32.5996 27.41C32.5096 27.41 32.4296 27.4 32.3396 27.4C32.0496 27.38 31.7696 27.36 31.4896 27.34H31.3496C31.2096 27.34 31.0596 27.34 30.9196 27.34C30.7696 27.34 30.6196 27.35 30.4796 27.35L28.1396 27.29C28.0796 27.29 28.0197 27.24 28.0197 27.17C27.9897 22.15 27.9396 16.91 27.8896 11.6C27.8896 11.54 27.9396 11.48 27.9996 11.48C28.1796 11.47 28.3496 11.47 28.5296 11.47C28.9696 11.46 29.3996 11.46 29.8396 11.46H29.9796C30.2296 11.46 30.4696 11.47 30.7096 11.47L33.0396 11.53C33.0496 11.53 33.0596 11.53 33.0696 11.53C33.8996 11.55 34.7096 11.6 35.4996 11.66C38.1396 11.88 40.3896 13.84 41.3096 16.68C41.3496 16.57 41.3996 16.46 41.4496 16.35C41.4596 16.32 41.4796 16.3 41.4896 16.27L41.5096 16.23C41.5596 16.13 41.6096 16.04 41.6596 15.94C41.6896 15.9 41.7096 15.86 41.7396 15.81C41.7896 15.72 41.8496 15.64 41.9096 15.56L41.9296 15.54C41.9496 15.51 41.9696 15.49 41.9896 15.46C42.0796 15.34 42.1696 15.24 42.2596 15.15C42.3596 15.05 42.4596 14.96 42.5596 14.88C42.5896 14.86 42.6196 14.83 42.6496 14.81C42.7396 14.74 42.8096 14.69 42.8896 14.64C42.9296 14.62 42.9696 14.59 42.9996 14.57C43.0896 14.52 43.1696 14.47 43.2596 14.43L43.2896 14.41C43.3096 14.4 43.3296 14.39 43.3496 14.38C43.4696 14.33 43.5996 14.28 43.7196 14.24C43.8296 14.21 43.9196 14.18 44.0096 14.16L44.0596 14.15C44.1596 14.13 44.2397 14.12 44.3297 14.11L44.4196 14.1C44.5196 14.09 44.6296 14.08 44.7396 14.08C44.7796 14.08 44.8296 14.08 44.8696 14.08H44.9396L47.2496 14.14C47.2596 14.14 47.2697 14.14 47.2697 14.14C47.8197 14.16 48.3896 14.28 48.9696 14.52C50.3596 15.08 51.9496 16.38 52.9196 17.73C52.9496 17.78 52.9496 17.84 52.9096 17.88C52.1896 18.62 51.4696 19.39 50.7896 20.16C50.7696 20.19 50.7296 20.21 50.6996 20.2L48.3696 20.14C48.3296 20.14 48.2897 20.11 48.2697 20.08C48.1597 19.86 48.0296 19.65 47.8896 19.46C47.6696 19.15 47.4196 18.88 47.1496 18.66C47.1296 18.7 47.1196 18.75 47.1096 18.79C46.9496 19.56 47.6596 20.19 48.1796 20.65L48.2396 20.71C48.4896 20.93 48.7496 21.15 48.9996 21.37C50.9296 23.05 51.5796 24.88 50.9696 26.98C50.4696 28.73 49.6896 29.88 48.6496 30.38C48.1596 30.61 47.6196 30.74 47.0596 30.75C47.1096 30.76 47.0897 30.76 47.0797 30.76ZM46.7596 30.51C46.8796 30.52 46.9996 30.52 47.1196 30.52C47.6496 30.51 48.1496 30.39 48.6096 30.17C49.5696 29.71 50.3296 28.58 50.8096 26.92C51.3896 24.92 50.7696 23.17 48.9096 21.55C48.6596 21.33 48.3996 21.11 48.1496 20.89L48.0797 20.83C47.5497 20.36 46.7596 19.66 46.9396 18.75C46.9596 18.64 46.9996 18.53 47.0596 18.42C47.0796 18.39 47.1096 18.37 47.1396 18.36C47.1796 18.35 47.2096 18.36 47.2396 18.38C47.5796 18.64 47.8796 18.96 48.1396 19.33C48.2696 19.51 48.3896 19.71 48.4996 19.92L50.7096 19.98C51.3696 19.25 52.0496 18.52 52.7296 17.81C51.7796 16.52 50.2696 15.3 48.9396 14.76C48.3196 14.51 47.7096 14.39 47.1396 14.4C47.1296 14.4 47.1096 14.4 47.0996 14.39L44.9496 14.33C44.8896 14.33 44.8496 14.33 44.8096 14.33C44.7096 14.33 44.6096 14.34 44.5096 14.35L44.4196 14.36C44.3496 14.37 44.2696 14.38 44.1896 14.4L44.1196 14.41C44.0296 14.43 43.9496 14.45 43.8596 14.48C43.7296 14.52 43.6096 14.57 43.4996 14.62L43.4096 14.66C43.3296 14.7 43.2396 14.74 43.1596 14.79C43.1196 14.81 43.0897 14.83 43.0497 14.86C42.9797 14.91 42.9096 14.96 42.8396 15.01C42.7996 15.04 42.7696 15.06 42.7496 15.08C42.6596 15.16 42.5696 15.24 42.4896 15.32C42.3896 15.42 42.3096 15.52 42.2196 15.63C42.1996 15.65 42.1896 15.68 42.1696 15.7L42.1496 15.73C42.0896 15.81 42.0396 15.89 41.9896 15.97C41.9596 16.01 41.9396 16.05 41.9196 16.09C41.8696 16.18 41.8197 16.27 41.7697 16.36L41.7496 16.4C41.7396 16.42 41.7296 16.45 41.7196 16.47C41.6596 16.6 41.5997 16.74 41.5497 16.88L41.5396 16.92L41.5296 16.95C41.5096 17.01 41.4896 17.07 41.4696 17.13C41.4496 17.18 41.4096 17.21 41.3596 17.21C41.3096 17.21 41.2596 17.17 41.2496 17.12C40.4396 14.18 38.1996 12.13 35.5396 11.91C34.5296 11.82 33.4796 11.78 32.4096 11.76C32.3896 11.76 32.3796 11.76 32.3596 11.75L30.7596 11.71C30.5196 11.7 30.2696 11.7 30.0296 11.7H29.8896C29.4496 11.7 29.0196 11.7 28.5896 11.71C28.4496 11.71 28.3196 11.72 28.1796 11.72C28.2296 16.95 28.2696 22.11 28.3096 27.06L30.5296 27.12C30.6696 27.12 30.8196 27.11 30.9696 27.11C31.1196 27.11 31.2596 27.11 31.4096 27.11H31.5497C31.8397 27.13 32.1296 27.15 32.4196 27.17C32.4996 27.18 32.5896 27.18 32.6696 27.18H32.6796C32.6996 27.14 32.7396 27.12 32.7796 27.12C32.9996 27.13 33.2196 27.14 33.4396 27.15C33.4796 27.15 33.5196 27.17 33.5396 27.21H33.6696C33.6896 27.18 33.7297 27.16 33.7697 27.16C34.0997 27.18 34.4296 27.2 34.7496 27.23C34.9196 27.24 35.0796 27.25 35.2396 27.24C38.1296 27.18 40.6496 24.65 41.3596 21.1C41.3696 21.05 41.4096 21.01 41.4596 21.01C41.5196 21 41.5597 21.03 41.5797 21.07C41.6097 21.13 41.6396 21.18 41.6696 21.24L41.7196 21.33C41.7596 21.4 41.7996 21.46 41.8496 21.52L41.8796 21.58C41.9396 21.66 42.0096 21.74 42.0696 21.82L42.1196 21.87C42.1796 21.93 42.2296 22 42.2896 22.06L42.3596 22.14C42.4196 22.2 42.4696 22.25 42.5296 22.31L42.5996 22.38C42.6796 22.46 42.7696 22.53 42.8496 22.61L42.8096 22.73L42.8896 22.64C42.9696 22.71 43.0496 22.77 43.1296 22.84L43.9296 23.48L43.8896 23.6L43.9596 23.51L44.3696 23.85C44.4096 23.88 44.4396 23.92 44.4796 23.95L44.4996 23.97C44.5496 24.01 44.5896 24.06 44.6296 24.1L44.6496 24.12C44.6996 24.17 44.7296 24.2 44.7596 24.24L44.8096 24.29C44.8396 24.32 44.8696 24.36 44.8896 24.39C44.9096 24.41 44.9196 24.43 44.9396 24.45C44.9596 24.48 44.9896 24.52 45.0096 24.55L45.0497 24.6C45.0797 24.64 45.1096 24.69 45.1296 24.73L45.1496 24.77C45.1796 24.83 45.2096 24.88 45.2396 24.94L45.2496 24.97C45.2696 25.03 45.2896 25.07 45.3096 25.12L45.3196 25.16C45.3396 25.22 45.3496 25.26 45.3596 25.3L45.3696 25.37C45.3796 25.4 45.3796 25.44 45.3796 25.47C45.3796 25.52 45.3896 25.56 45.3896 25.61C45.3896 25.64 45.3896 25.67 45.3896 25.71C45.3896 25.75 45.3796 25.79 45.3796 25.82C45.3696 25.88 45.3696 25.92 45.3596 25.97C45.3396 26.06 45.3096 26.14 45.2796 26.22L45.2697 26.25C45.2397 26.33 45.2096 26.38 45.1796 26.44L45.1596 26.48C45.1496 26.49 45.1396 26.51 45.1296 26.52C45.1096 26.55 45.0696 26.57 45.0396 26.58C45.0096 26.59 44.9696 26.59 44.9396 26.57C44.3596 26.13 43.8297 25.47 43.2697 24.5L41.0696 24.44C40.4796 25.31 39.8897 26.21 39.3297 27.12C40.3497 28.53 41.5696 29.55 42.8696 30.07C43.2896 30.24 43.7196 30.35 44.1296 30.4C44.2696 30.42 44.4196 30.43 44.5596 30.43L45.3996 30.45C45.2996 30.42 45.2096 30.38 45.1196 30.35C45.0696 30.33 45.0396 30.29 45.0396 30.24C45.0396 30.23 45.0397 30.21 45.0497 30.2C45.0697 30.14 45.1396 30.11 45.1996 30.13C45.3396 30.19 45.4896 30.24 45.6396 30.28C45.6696 30.29 45.6896 30.3 45.6996 30.32C45.7196 30.31 45.7496 30.31 45.7796 30.31C45.8796 30.34 45.9797 30.36 46.0797 30.39C46.1097 30.4 46.1396 30.42 46.1596 30.45C46.1896 30.43 46.2196 30.42 46.2596 30.42C46.3496 30.44 46.4396 30.45 46.5396 30.46C46.5596 30.46 46.5796 30.47 46.5896 30.48H46.6696C46.7296 30.51 46.7396 30.51 46.7596 30.51ZM33.6096 23.68C33.5896 23.68 33.5596 23.67 33.5396 23.66C33.5096 23.64 33.4796 23.6 33.4896 23.56C33.5896 20.88 33.6797 18.2 33.7697 15.52C33.7697 15.48 33.7897 15.44 33.8297 15.42C33.8697 15.4 33.9096 15.4 33.9496 15.42L33.9396 15.53H33.9496L33.9996 15.44C34.1096 15.5 34.2096 15.56 34.3096 15.63C34.3296 15.64 34.3396 15.65 34.3596 15.67L34.3796 15.69C34.4496 15.74 34.5196 15.8 34.5896 15.85C34.6196 15.87 34.6396 15.9 34.6696 15.92C34.7396 15.98 34.7996 16.04 34.8596 16.1C34.8896 16.13 34.9196 16.16 34.9496 16.2C35.0096 16.26 35.0596 16.33 35.1096 16.4L35.1796 16.49C35.2496 16.59 35.3196 16.69 35.3796 16.8C35.3796 16.8 35.3896 16.83 35.3996 16.83C35.4596 16.93 35.5096 17.03 35.5596 17.14C35.5696 17.17 35.5796 17.2 35.5996 17.23L35.6096 17.26C35.6396 17.34 35.6796 17.42 35.7096 17.51C35.7296 17.55 35.7396 17.6 35.7596 17.65C35.7896 17.73 35.8097 17.82 35.8297 17.91C35.8497 17.97 35.8596 18.01 35.8596 18.05C35.8796 18.16 35.8996 18.27 35.9196 18.38L35.9296 18.46C35.9396 18.52 35.9396 18.58 35.9496 18.64L35.9596 18.77C35.9696 18.82 35.9696 18.87 35.9696 18.93C35.9696 18.99 35.9696 19.06 35.9696 19.12V19.27C35.9696 19.32 35.9696 19.37 35.9696 19.42C35.9696 19.58 35.9596 19.75 35.9396 19.92C35.9196 20.1 35.8996 20.29 35.8596 20.48C35.8496 20.52 35.8396 20.56 35.8396 20.6L35.8297 20.66C35.8097 20.77 35.7896 20.88 35.7596 20.99C35.7496 21.05 35.7296 21.1 35.7096 21.16C35.6796 21.27 35.6496 21.37 35.6196 21.46C35.5996 21.52 35.5796 21.58 35.5596 21.63C35.5296 21.72 35.4896 21.81 35.4496 21.89C35.4196 21.96 35.3996 22 35.3796 22.04C35.3396 22.13 35.2896 22.21 35.2496 22.28L35.2296 22.32C35.2096 22.35 35.1996 22.38 35.1796 22.4C35.1196 22.5 35.0496 22.59 34.9896 22.67L34.9496 22.72C34.8696 22.82 34.7896 22.91 34.6896 23C34.6696 23.02 34.6496 23.03 34.6396 23.05L34.6096 23.07C34.5496 23.13 34.4796 23.19 34.4196 23.24C34.3896 23.27 34.3496 23.29 34.3196 23.31C34.2496 23.36 34.1896 23.4 34.1196 23.44C34.0796 23.46 34.0396 23.49 33.9996 23.51C33.9396 23.55 33.8697 23.58 33.7997 23.61C33.7597 23.63 33.7196 23.65 33.6796 23.67C33.6396 23.68 33.6296 23.68 33.6096 23.68ZM33.9996 15.72C33.9096 18.27 33.8296 20.82 33.7296 23.37C33.7696 23.35 33.8196 23.33 33.8596 23.3C33.8996 23.28 33.9296 23.26 33.9696 23.24C34.0296 23.2 34.0896 23.16 34.1396 23.12C34.1796 23.09 34.2096 23.07 34.2396 23.05C34.2996 23 34.3596 22.95 34.4196 22.89L34.4496 22.86C34.4596 22.85 34.4796 22.83 34.4896 22.82C34.5796 22.73 34.6596 22.65 34.7296 22.56L34.7596 22.51C34.8196 22.43 34.8796 22.34 34.9396 22.25C34.9596 22.23 34.9696 22.2 34.9796 22.18L35.0096 22.14C35.0496 22.07 35.0996 21.99 35.1396 21.91C35.1596 21.87 35.1796 21.83 35.1996 21.79C35.2496 21.69 35.2796 21.6 35.3096 21.52C35.3296 21.47 35.3496 21.41 35.3696 21.35C35.3996 21.26 35.4296 21.17 35.4496 21.08C35.4696 21.01 35.4896 20.96 35.4996 20.9C35.5296 20.8 35.5496 20.69 35.5696 20.58L35.5797 20.51C35.5897 20.47 35.5996 20.44 35.5996 20.4C35.6296 20.21 35.6596 20.03 35.6696 19.85C35.6896 19.68 35.6996 19.52 35.6996 19.36C35.6996 19.31 35.6996 19.27 35.6996 19.22V19.06C35.6996 19 35.6996 18.94 35.6996 18.88C35.6996 18.83 35.6896 18.78 35.6896 18.74L35.6796 18.6C35.6796 18.54 35.6696 18.48 35.6596 18.43L35.6496 18.35C35.6296 18.24 35.6096 18.14 35.5896 18.03C35.5796 18 35.5696 17.96 35.5696 17.93L35.5596 17.9C35.5396 17.82 35.5196 17.73 35.4896 17.65C35.4796 17.61 35.4596 17.56 35.4496 17.52C35.4196 17.44 35.3896 17.36 35.3596 17.29L35.3496 17.26C35.3396 17.23 35.3296 17.21 35.3196 17.18C35.2696 17.08 35.2196 16.98 35.1696 16.89C35.0996 16.76 35.0296 16.67 34.9696 16.58L34.9096 16.5C34.8596 16.44 34.8096 16.38 34.7596 16.32C34.7296 16.29 34.6996 16.26 34.6796 16.23C34.6296 16.18 34.5697 16.12 34.5197 16.07C34.4797 16.04 34.4596 16.01 34.4296 15.99C34.3696 15.94 34.2996 15.89 34.2296 15.84L34.1596 15.79C34.0996 15.79 34.0496 15.76 33.9996 15.72ZM48.7697 18.24C48.7497 18.24 48.7396 18.24 48.7196 18.23C48.6496 18.2 48.5596 18.17 48.4696 18.15C48.4596 18.15 48.4596 18.15 48.4496 18.14H48.4396C48.3596 18.12 48.2696 18.11 48.1896 18.11C48.1296 18.11 48.0797 18.05 48.0797 17.99C48.0797 17.99 48.0797 17.99 48.0797 17.98C48.0797 17.91 48.1296 17.87 48.1996 17.87C48.3096 17.87 48.3996 17.89 48.4896 17.91C48.4996 17.91 48.5096 17.91 48.5096 17.92C48.5196 17.92 48.5196 17.92 48.5296 17.92C48.6396 17.95 48.7396 17.98 48.8196 18.01C48.8796 18.04 48.9096 18.11 48.8796 18.17C48.8596 18.21 48.8197 18.24 48.7697 18.24Z" fill="url(#paint7_linear)"/>
<path d="M26.1495 12.03C26.4595 17.2 26.7596 22.36 27.0496 27.53C26.0596 27.66 25.0795 27.83 24.0995 28.04C23.5895 22.91 23.0696 17.78 22.5396 12.66C23.7396 12.39 24.9395 12.19 26.1495 12.03Z" fill="url(#paint8_linear)"/>
<path d="M24.0995 28.15C24.0795 28.15 24.0495 28.14 24.0295 28.13C23.9995 28.11 23.9895 28.08 23.9795 28.05C23.4195 22.5 22.9095 17.46 22.4195 12.67C22.4095 12.61 22.4495 12.55 22.5095 12.54C23.6995 12.28 24.9195 12.07 26.1295 11.91C26.1595 11.9 26.1995 11.91 26.2195 11.94C26.2495 11.96 26.2595 11.99 26.2595 12.02C26.5695 17.16 26.8695 22.37 27.1595 27.52C27.1595 27.58 27.1195 27.64 27.0595 27.64C26.0895 27.76 25.0995 27.94 24.1195 28.15C24.1195 28.15 24.1095 28.15 24.0995 28.15ZM22.6595 12.75C23.1495 17.48 23.6495 22.43 24.1995 27.89C25.1095 27.7 26.0295 27.54 26.9195 27.42C26.6295 22.35 26.3395 17.22 26.0295 12.16C24.9095 12.31 23.7695 12.51 22.6595 12.75Z" fill="url(#paint9_linear)"/>
<path d="M19.2396 13.49C17.7596 16.43 16.4496 19.44 15.3196 22.49C17.6596 24.33 19.8296 26.38 21.8196 28.6C20.5596 28.96 19.2997 29.38 18.0497 29.87C16.3897 28.19 14.6196 26.64 12.7396 25.22C13.2496 27.34 13.7897 29.45 14.3297 31.56C13.3897 32.05 12.4496 32.57 11.5296 33.14C10.0696 28.4 8.60965 23.66 7.13965 18.92C8.26965 18.22 9.41964 17.58 10.5696 16.98C11.0896 18.98 11.6096 20.98 12.1296 22.99C12.9396 20.31 13.8296 17.65 14.8396 15.02C16.2896 14.44 17.7596 13.93 19.2396 13.49Z" fill="url(#paint10_linear)"/>
<path d="M11.5298 33.2701C11.5198 33.2701 11.4998 33.2701 11.4898 33.2601C11.4598 33.2501 11.4298 33.2201 11.4198 33.1801C9.92982 28.3301 8.4498 23.5401 7.0298 18.9601C7.0098 18.9101 7.03982 18.8501 7.07982 18.8201C8.21982 18.1201 9.36982 17.4701 10.5198 16.8801C10.5498 16.8601 10.5898 16.8601 10.6198 16.8801C10.6498 16.8901 10.6798 16.9201 10.6898 16.9601C11.1798 18.8301 11.6598 20.6901 12.1398 22.5601C12.9598 19.8601 13.8098 17.3801 14.7298 14.9901C14.7398 14.9601 14.7698 14.9301 14.7998 14.9201C16.2498 14.3301 17.7398 13.8101 19.2198 13.3801C19.2698 13.3701 19.3198 13.3801 19.3398 13.4201C19.3698 13.4601 19.3798 13.5101 19.3598 13.5501C17.9098 16.4201 16.6098 19.4201 15.4698 22.4501C17.7498 24.2501 19.9198 26.3001 21.9098 28.5201C21.9398 28.5501 21.9498 28.5901 21.9398 28.6301C21.9298 28.6701 21.8998 28.7001 21.8598 28.7101C20.6098 29.0601 19.3398 29.4901 18.1098 29.9801C18.0698 30.0001 18.0198 29.9901 17.9798 29.9501C16.3998 28.3501 14.7098 26.8601 12.9498 25.5101C13.3898 27.3001 13.8498 29.1101 14.2898 30.8601L14.4598 31.5201C14.4698 31.5701 14.4498 31.6301 14.3998 31.6501C13.4798 32.1201 12.5398 32.6501 11.6098 33.2301C11.5698 33.2601 11.5498 33.2701 11.5298 33.2701ZM7.2798 18.9801C8.6798 23.4901 10.1298 28.1901 11.5998 32.9601C12.4698 32.4301 13.3398 31.9401 14.1898 31.5001L14.0398 30.9301C13.5698 29.0701 13.0798 27.1601 12.6198 25.2501C12.6098 25.2001 12.6298 25.1501 12.6698 25.1201C12.7098 25.0901 12.7698 25.0901 12.8098 25.1201C14.6498 26.5101 16.4198 28.0601 18.0798 29.7301C19.2398 29.2701 20.4198 28.8701 21.5998 28.5301C19.6298 26.3501 17.4898 24.3401 15.2498 22.5701C15.2098 22.5401 15.1898 22.4801 15.2098 22.4401C16.3198 19.4601 17.5998 16.5101 19.0198 13.6801C17.6498 14.0901 16.2798 14.5701 14.9398 15.1201C13.9798 17.6101 13.1098 20.2001 12.2498 23.0301C12.2298 23.0801 12.1798 23.1201 12.1298 23.1101C12.0798 23.1101 12.0298 23.0701 12.0198 23.0201C11.5198 21.0601 11.0098 19.1101 10.4998 17.1601C9.4198 17.7201 8.3398 18.3301 7.2798 18.9801Z" fill="url(#paint11_linear)"/>
<path d="M47.1293 14.2899C47.7093 14.2799 48.3393 14.3999 48.9793 14.6599C50.3593 15.2199 51.9093 16.4799 52.8793 17.8299C52.1593 18.5699 51.4493 19.3399 50.7493 20.1099C50.2893 19.2299 49.5893 18.4699 48.7593 18.1199C48.5493 18.0299 48.3093 17.9799 48.0793 17.9899C47.6093 17.9999 47.1593 18.2299 47.0493 18.7899C46.8693 19.6699 47.6993 20.3599 48.2193 20.8199C48.4793 21.0399 48.7293 21.2599 48.9893 21.4799C50.5993 22.8699 51.6093 24.6199 50.9293 26.9699C50.5193 28.4199 49.8093 29.7399 48.6693 30.2899C48.1693 30.5299 47.6493 30.6399 47.1293 30.6499C46.4693 30.6599 45.8193 30.5199 45.1893 30.2699C43.7993 29.7199 42.5493 28.6299 41.5493 27.2099C42.1393 26.2599 42.7493 25.3199 43.3693 24.3999C43.9993 25.5099 44.7593 26.5199 45.7893 26.9199C45.9993 26.9999 46.2293 27.0499 46.4493 27.0499C46.9593 27.0399 47.4193 26.7599 47.5893 26.0299C47.8493 24.9399 46.7093 24.0399 46.0793 23.5499C44.2393 22.0999 42.9993 21.0899 43.4493 18.1299C43.7993 15.7599 45.2393 14.3299 47.1293 14.2899Z" fill="url(#paint12_linear)"/>
<path d="M47.0295 30.76C46.4195 30.76 45.7795 30.63 45.1395 30.38C43.7795 29.84 42.4995 28.76 41.4395 27.28C41.4095 27.24 41.4095 27.19 41.4395 27.15C42.0295 26.2 42.6395 25.25 43.2595 24.34C43.2795 24.31 43.3295 24.29 43.3595 24.29C43.3995 24.29 43.4395 24.31 43.4595 24.35C43.9395 25.2 44.7195 26.39 45.8195 26.82C46.0295 26.9 46.2295 26.93 46.4395 26.94C46.8095 26.93 47.2895 26.76 47.4695 26.01C47.7095 24.99 46.5995 24.12 45.9995 23.65C44.1795 22.21 42.8595 21.16 43.3295 18.12C43.6795 15.73 45.1295 14.22 47.1295 14.18C47.7495 14.16 48.3795 14.29 49.0295 14.56C50.4195 15.12 52.0095 16.42 52.9795 17.77C53.0095 17.82 53.0095 17.88 52.9695 17.92C52.2495 18.66 51.5295 19.43 50.8495 20.2C50.8195 20.23 50.7895 20.24 50.7495 20.24C50.7095 20.24 50.6795 20.21 50.6595 20.18C50.1795 19.27 49.4795 18.56 48.7295 18.24C48.5295 18.16 48.2995 18.11 48.0995 18.12C47.8695 18.13 47.2995 18.2 47.1795 18.82C47.0195 19.59 47.7295 20.22 48.2495 20.68L48.3095 20.74C48.5595 20.96 48.8195 21.18 49.0695 21.4C50.9995 23.08 51.6495 24.91 51.0395 27.01C50.5395 28.76 49.7595 29.91 48.7195 30.41C48.2295 30.64 47.6895 30.77 47.1295 30.78C47.0995 30.76 47.0595 30.76 47.0295 30.76ZM41.6895 27.2C42.7095 28.61 43.9295 29.63 45.2295 30.15C45.8795 30.41 46.5095 30.53 47.1195 30.52C47.6495 30.51 48.1495 30.39 48.6095 30.17C49.5695 29.71 50.3295 28.58 50.8095 26.92C51.3895 24.92 50.7695 23.17 48.9095 21.55C48.6595 21.33 48.3995 21.11 48.1495 20.89L48.0795 20.83C47.5495 20.36 46.7595 19.66 46.9395 18.75C47.0495 18.2 47.4795 17.87 48.0895 17.85C48.3295 17.83 48.5895 17.89 48.8195 17.99C49.5895 18.32 50.2895 18.99 50.7895 19.89C51.4195 19.19 52.0795 18.48 52.7395 17.8C51.7895 16.51 50.2795 15.29 48.9495 14.75C48.3295 14.5 47.7295 14.38 47.1395 14.39C45.2695 14.43 43.9095 15.86 43.5795 18.13C43.1295 21.04 44.3395 22 46.1595 23.44C46.7995 23.94 47.9895 24.87 47.7095 26.04C47.4895 26.99 46.8295 27.14 46.4495 27.15C46.2095 27.16 45.9795 27.11 45.7395 27.02C44.6395 26.58 43.8595 25.47 43.3595 24.61C42.7895 25.47 42.2295 26.33 41.6895 27.2Z" fill="url(#paint13_linear)"/>
<path d="M35.5296 11.8001C39.4896 12.1301 42.2097 16.3601 41.5497 20.6501C40.9297 24.7101 38.1396 27.3001 35.2196 27.3601C35.0496 27.3601 30.6496 27.2301 30.4996 27.2401C30.4696 22.0501 30.4196 16.8601 30.3696 11.6701C30.5496 11.6601 30.7196 11.6601 30.8996 11.6601C32.4496 11.6301 33.9896 11.6701 35.5296 11.8001ZM38.1396 19.9501C38.4096 17.1901 36.9796 15.3401 34.7196 15.1801C34.4496 15.1601 34.1796 15.1501 33.8996 15.1301C33.7996 18.0301 33.6996 20.9401 33.5996 23.8401C33.8296 23.8501 34.0697 23.8701 34.2997 23.8801C34.4197 23.8901 34.5496 23.8901 34.6696 23.8901C36.3596 23.8501 37.8596 22.7601 38.1396 19.9501Z" fill="url(#paint14_linear)"/>
<path d="M35.2097 27.49C35.0697 27.49 34.0098 27.46 32.8898 27.43C31.7998 27.4 30.5698 27.37 30.4998 27.37C30.4698 27.37 30.4398 27.36 30.4098 27.34C30.3898 27.32 30.3698 27.29 30.3698 27.26C30.3398 22.24 30.2897 17 30.2397 11.69C30.2397 11.63 30.2898 11.57 30.3498 11.57C30.5298 11.56 30.6998 11.56 30.8798 11.56C32.4298 11.53 33.9998 11.57 35.5198 11.7C37.2498 11.84 38.8398 12.73 39.9998 14.2C41.3898 15.96 41.9997 18.38 41.6497 20.68C41.0597 24.56 38.3497 27.43 35.2097 27.49C35.2197 27.49 35.2197 27.49 35.2097 27.49ZM30.6198 27.13C30.9198 27.14 31.7497 27.16 32.8997 27.19C33.9697 27.22 35.0697 27.25 35.2097 27.25H35.2198C38.2398 27.18 40.8597 24.4 41.4297 20.64C41.7697 18.41 41.1798 16.05 39.8298 14.34C38.7098 12.92 37.1798 12.06 35.5198 11.93C33.9998 11.8 32.4497 11.75 30.8997 11.79C30.7597 11.79 30.6297 11.8 30.4897 11.8C30.5497 17.02 30.5898 22.18 30.6198 27.13ZM34.5698 24.01C34.4798 24.01 34.3798 24.01 34.2898 24C34.0598 23.98 33.8198 23.97 33.5898 23.96C33.5198 23.96 33.4798 23.9 33.4798 23.84C33.5798 20.94 33.6898 18.04 33.7798 15.13C33.7798 15.1 33.7898 15.07 33.8198 15.05C33.8398 15.03 33.8798 15.02 33.9098 15.02C34.1798 15.03 34.4598 15.05 34.7298 15.07C35.7898 15.14 36.6898 15.58 37.3298 16.34C38.0898 17.24 38.4098 18.5 38.2698 19.97C38.0198 22.5 36.7097 23.98 34.6797 24.02C34.6397 24.01 34.5998 24.01 34.5698 24.01ZM33.7198 23.73C33.9198 23.74 34.1098 23.75 34.3098 23.77C34.4298 23.78 34.5498 23.78 34.6698 23.78C35.7898 23.76 37.7098 23.23 38.0298 19.94L38.1497 19.95L38.0298 19.94C38.1698 18.53 37.8597 17.33 37.1497 16.48C36.5597 15.78 35.7198 15.37 34.7198 15.3C34.4898 15.29 34.2598 15.27 34.0298 15.26C33.9198 18.08 33.8198 20.9 33.7198 23.73Z" fill="url(#paint15_linear)"/>
<path d="M14.7196 15.2H12.4496C12.3796 15.2 12.3296 15.15 12.3296 15.08C12.3296 15.01 12.3796 14.96 12.4496 14.96H14.7196C14.7896 14.96 14.8396 15.01 14.8396 15.08C14.8396 15.15 14.7796 15.2 14.7196 15.2Z" fill="url(#paint16_linear)"/>
<path d="M22.54 12.77H20.33C20.26 12.77 20.21 12.72 20.21 12.65C20.21 12.58 20.26 12.53 20.33 12.53H22.54C22.61 12.53 22.66 12.58 22.66 12.65C22.65 12.72 22.6 12.77 22.54 12.77Z" fill="url(#paint17_linear)"/>
<path d="M41.6099 27.3001H39.2098C39.1398 27.3001 39.0898 27.2501 39.0898 27.1801C39.0898 27.1101 39.1398 27.0601 39.2098 27.0601H41.6099C41.6799 27.0601 41.7299 27.1101 41.7299 27.1801C41.7299 27.2501 41.6799 27.3001 41.6099 27.3001Z" fill="url(#paint18_linear)"/>
<defs>
<linearGradient id="paint0_linear" x1="-0.0013" y1="21.763" x2="57.6916" y2="21.763" gradientUnits="userSpaceOnUse">
<stop stop-color="#DED9D6"/>
<stop offset="0.0616" stop-color="#CECAC9"/>
<stop offset="0.1794" stop-color="#A8A4A7"/>
<stop offset="0.264" stop-color="#8B878D"/>
<stop offset="0.5225" stop-color="#F3F4F4"/>
<stop offset="0.5875" stop-color="#E0DFE0"/>
<stop offset="0.7124" stop-color="#B7B4B8"/>
<stop offset="0.8764" stop-color="#807B80"/>
<stop offset="1" stop-color="#A7A9AC"/>
</linearGradient>
<linearGradient id="paint1_linear" x1="18.7412" y1="24.9433" x2="28.9046" y2="14.7797" gradientUnits="userSpaceOnUse">
<stop stop-color="#DED9D6"/>
<stop offset="0.0616" stop-color="#CECAC9"/>
<stop offset="0.1794" stop-color="#A8A4A7"/>
<stop offset="0.264" stop-color="#8B878D"/>
<stop offset="0.5225" stop-color="#F3F4F4"/>
<stop offset="0.5875" stop-color="#E0DFE0"/>
<stop offset="0.7124" stop-color="#B7B4B8"/>
<stop offset="0.8764" stop-color="#807B80"/>
<stop offset="1" stop-color="#A7A9AC"/>
</linearGradient>
<linearGradient id="paint2_linear" x1="20.0853" y1="19.9962" x2="27.1702" y2="19.9962" gradientUnits="userSpaceOnUse">
<stop stop-color="#D1D3D4"/>
<stop offset="0.1236" stop-color="#807B80"/>
<stop offset="0.2876" stop-color="#B7B4B8"/>
<stop offset="0.4125" stop-color="#E0DFE0"/>
<stop offset="0.4775" stop-color="#F3F4F4"/>
<stop offset="0.736" stop-color="#8B878D"/>
<stop offset="0.8206" stop-color="#A8A4A7"/>
<stop offset="0.9384" stop-color="#CECAC9"/>
<stop offset="1" stop-color="#E5E2DF"/>
</linearGradient>
<linearGradient id="paint3_linear" x1="4.80332" y1="23.2884" x2="21.808" y2="23.2884" gradientUnits="userSpaceOnUse">
<stop stop-color="#DED9D6"/>
<stop offset="0.0616" stop-color="#CECAC9"/>
<stop offset="0.1794" stop-color="#A8A4A7"/>
<stop offset="0.264" stop-color="#8B878D"/>
<stop offset="0.5225" stop-color="#F3F4F4"/>
<stop offset="0.5875" stop-color="#E0DFE0"/>
<stop offset="0.7124" stop-color="#B7B4B8"/>
<stop offset="0.8764" stop-color="#807B80"/>
<stop offset="1" stop-color="#A7A9AC"/>
</linearGradient>
<linearGradient id="paint4_linear" x1="4.68413" y1="23.288" x2="21.9268" y2="23.288" gradientUnits="userSpaceOnUse">
<stop stop-color="#D1D3D4"/>
<stop offset="0.1236" stop-color="#807B80"/>
<stop offset="0.2876" stop-color="#B7B4B8"/>
<stop offset="0.4125" stop-color="#E0DFE0"/>
<stop offset="0.4775" stop-color="#F3F4F4"/>
<stop offset="0.736" stop-color="#8B878D"/>
<stop offset="0.8206" stop-color="#A8A4A7"/>
<stop offset="0.9384" stop-color="#CECAC9"/>
<stop offset="1" stop-color="#E5E2DF"/>
</linearGradient>
<linearGradient id="paint5_linear" x1="4.84724" y1="18.9331" x2="7.24024" y2="18.9331" gradientUnits="userSpaceOnUse">
<stop stop-color="#D1D3D4"/>
<stop offset="0.1236" stop-color="#807B80"/>
<stop offset="0.2876" stop-color="#B7B4B8"/>
<stop offset="0.4125" stop-color="#E0DFE0"/>
<stop offset="0.4775" stop-color="#F3F4F4"/>
<stop offset="0.736" stop-color="#8B878D"/>
<stop offset="0.8206" stop-color="#A8A4A7"/>
<stop offset="0.9384" stop-color="#CECAC9"/>
<stop offset="1" stop-color="#E5E2DF"/>
</linearGradient>
<linearGradient id="paint6_linear" x1="40.4645" y1="25.9886" x2="40.4645" y2="12.7091" gradientUnits="userSpaceOnUse">
<stop stop-color="#E5E2DF"/>
<stop offset="0.0577" stop-color="#D5D1D1"/>
<stop offset="0.168" stop-color="#AEAAAE"/>
<stop offset="0.264" stop-color="#8B878D"/>
<stop offset="0.5225" stop-color="#F3F4F4"/>
<stop offset="0.5875" stop-color="#E0DFE0"/>
<stop offset="0.7124" stop-color="#B7B4B8"/>
<stop offset="0.8764" stop-color="#807B80"/>
<stop offset="1" stop-color="#D1D3D4"/>
</linearGradient>
<linearGradient id="paint7_linear" x1="27.9241" y1="21.1144" x2="53.0055" y2="21.1144" gradientUnits="userSpaceOnUse">
<stop stop-color="#D1D3D4"/>
<stop offset="0.1236" stop-color="#807B80"/>
<stop offset="0.2876" stop-color="#B7B4B8"/>
<stop offset="0.4125" stop-color="#E0DFE0"/>
<stop offset="0.4775" stop-color="#F3F4F4"/>
<stop offset="0.736" stop-color="#8B878D"/>
<stop offset="0.8206" stop-color="#A8A4A7"/>
<stop offset="0.9384" stop-color="#CECAC9"/>
<stop offset="1" stop-color="#E5E2DF"/>
</linearGradient>
<linearGradient id="paint8_linear" x1="24.7931" y1="29.8798" x2="24.7931" y2="4.71703" gradientUnits="userSpaceOnUse">
<stop stop-color="#DED9D6"/>
<stop offset="0.0616" stop-color="#CECAC9"/>
<stop offset="0.1794" stop-color="#A8A4A7"/>
<stop offset="0.264" stop-color="#8B878D"/>
<stop offset="0.5225" stop-color="#F3F4F4"/>
<stop offset="0.5875" stop-color="#E0DFE0"/>
<stop offset="0.7124" stop-color="#B7B4B8"/>
<stop offset="0.8764" stop-color="#807B80"/>
<stop offset="1" stop-color="#A7A9AC"/>
</linearGradient>
<linearGradient id="paint9_linear" x1="22.416" y1="20.0296" x2="27.1698" y2="20.0296" gradientUnits="userSpaceOnUse">
<stop stop-color="#D1D3D4"/>
<stop offset="0.1236" stop-color="#807B80"/>
<stop offset="0.2876" stop-color="#B7B4B8"/>
<stop offset="0.4125" stop-color="#E0DFE0"/>
<stop offset="0.4775" stop-color="#F3F4F4"/>
<stop offset="0.736" stop-color="#8B878D"/>
<stop offset="0.8206" stop-color="#A8A4A7"/>
<stop offset="0.9384" stop-color="#CECAC9"/>
<stop offset="1" stop-color="#E5E2DF"/>
</linearGradient>
<linearGradient id="paint10_linear" x1="14.4709" y1="29.8797" x2="14.4709" y2="4.71699" gradientUnits="userSpaceOnUse">
<stop stop-color="#E5E2DF"/>
<stop offset="0.0577" stop-color="#D5D1D1"/>
<stop offset="0.168" stop-color="#AEAAAE"/>
<stop offset="0.264" stop-color="#8B878D"/>
<stop offset="0.5225" stop-color="#F3F4F4"/>
<stop offset="0.5875" stop-color="#E0DFE0"/>
<stop offset="0.7124" stop-color="#B7B4B8"/>
<stop offset="0.8764" stop-color="#807B80"/>
<stop offset="1" stop-color="#A7A9AC"/>
</linearGradient>
<linearGradient id="paint11_linear" x1="14.4711" y1="33.267" x2="14.4711" y2="13.3757" gradientUnits="userSpaceOnUse">
<stop stop-color="#D1D3D4"/>
<stop offset="0.1236" stop-color="#807B80"/>
<stop offset="0.2876" stop-color="#B7B4B8"/>
<stop offset="0.4125" stop-color="#E0DFE0"/>
<stop offset="0.4775" stop-color="#F3F4F4"/>
<stop offset="0.736" stop-color="#8B878D"/>
<stop offset="0.8206" stop-color="#A8A4A7"/>
<stop offset="0.9384" stop-color="#CECAC9"/>
<stop offset="1" stop-color="#E5E2DF"/>
</linearGradient>
<linearGradient id="paint12_linear" x1="47.2152" y1="29.8797" x2="47.2152" y2="4.71698" gradientUnits="userSpaceOnUse">
<stop stop-color="#E5E2DF"/>
<stop offset="0.0577" stop-color="#D5D1D1"/>
<stop offset="0.168" stop-color="#AEAAAE"/>
<stop offset="0.264" stop-color="#8B878D"/>
<stop offset="0.5225" stop-color="#F3F4F4"/>
<stop offset="0.5875" stop-color="#E0DFE0"/>
<stop offset="0.7124" stop-color="#B7B4B8"/>
<stop offset="0.8764" stop-color="#807B80"/>
<stop offset="1" stop-color="#A7A9AC"/>
</linearGradient>
<linearGradient id="paint13_linear" x1="41.4257" y1="22.4648" x2="53.0054" y2="22.4648" gradientUnits="userSpaceOnUse">
<stop stop-color="#D1D3D4"/>
<stop offset="0.1236" stop-color="#807B80"/>
<stop offset="0.2876" stop-color="#B7B4B8"/>
<stop offset="0.4125" stop-color="#E0DFE0"/>
<stop offset="0.4775" stop-color="#F3F4F4"/>
<stop offset="0.736" stop-color="#8B878D"/>
<stop offset="0.8206" stop-color="#A8A4A7"/>
<stop offset="0.9384" stop-color="#CECAC9"/>
<stop offset="1" stop-color="#E5E2DF"/>
</linearGradient>
<linearGradient id="paint14_linear" x1="36.0107" y1="29.8785" x2="36.0107" y2="4.71779" gradientUnits="userSpaceOnUse">
<stop stop-color="#DED9D6"/>
<stop offset="0.0616" stop-color="#CECAC9"/>
<stop offset="0.1794" stop-color="#A8A4A7"/>
<stop offset="0.264" stop-color="#8B878D"/>
<stop offset="0.5225" stop-color="#F3F4F4"/>
<stop offset="0.5875" stop-color="#E0DFE0"/>
<stop offset="0.7124" stop-color="#B7B4B8"/>
<stop offset="0.8764" stop-color="#807B80"/>
<stop offset="1" stop-color="#A7A9AC"/>
</linearGradient>
<linearGradient id="paint15_linear" x1="30.2553" y1="19.5083" x2="41.7646" y2="19.5083" gradientUnits="userSpaceOnUse">
<stop stop-color="#D1D3D4"/>
<stop offset="0.1236" stop-color="#807B80"/>
<stop offset="0.2876" stop-color="#B7B4B8"/>
<stop offset="0.4125" stop-color="#E0DFE0"/>
<stop offset="0.4775" stop-color="#F3F4F4"/>
<stop offset="0.736" stop-color="#8B878D"/>
<stop offset="0.8206" stop-color="#A8A4A7"/>
<stop offset="0.9384" stop-color="#CECAC9"/>
<stop offset="1" stop-color="#E5E2DF"/>
</linearGradient>
<linearGradient id="paint16_linear" x1="12.3245" y1="15.0828" x2="14.8353" y2="15.0828" gradientUnits="userSpaceOnUse">
<stop stop-color="#D1D3D4"/>
<stop offset="0.1236" stop-color="#807B80"/>
<stop offset="0.2876" stop-color="#B7B4B8"/>
<stop offset="0.4125" stop-color="#E0DFE0"/>
<stop offset="0.4775" stop-color="#F3F4F4"/>
<stop offset="0.736" stop-color="#8B878D"/>
<stop offset="0.8206" stop-color="#A8A4A7"/>
<stop offset="0.9384" stop-color="#CECAC9"/>
<stop offset="1" stop-color="#E5E2DF"/>
</linearGradient>
<linearGradient id="paint17_linear" x1="20.2063" y1="12.6527" x2="22.654" y2="12.6527" gradientUnits="userSpaceOnUse">
<stop stop-color="#D1D3D4"/>
<stop offset="0.1236" stop-color="#807B80"/>
<stop offset="0.2876" stop-color="#B7B4B8"/>
<stop offset="0.4125" stop-color="#E0DFE0"/>
<stop offset="0.4775" stop-color="#F3F4F4"/>
<stop offset="0.736" stop-color="#8B878D"/>
<stop offset="0.8206" stop-color="#A8A4A7"/>
<stop offset="0.9384" stop-color="#CECAC9"/>
<stop offset="1" stop-color="#E5E2DF"/>
</linearGradient>
<linearGradient id="paint18_linear" x1="39.0952" y1="27.184" x2="41.7311" y2="27.184" gradientUnits="userSpaceOnUse">
<stop stop-color="#D1D3D4"/>
<stop offset="0.1236" stop-color="#807B80"/>
<stop offset="0.2876" stop-color="#B7B4B8"/>
<stop offset="0.4125" stop-color="#E0DFE0"/>
<stop offset="0.4775" stop-color="#F3F4F4"/>
<stop offset="0.736" stop-color="#8B878D"/>
<stop offset="0.8206" stop-color="#A8A4A7"/>
<stop offset="0.9384" stop-color="#CECAC9"/>
<stop offset="1" stop-color="#E5E2DF"/>
</linearGradient>
</defs>
</svg>
