<svg width="58" height="44" viewBox="0 0 58 44" fill="none" xmlns="http://www.w3.org/2000/svg">
<path d="M57.1998 41.01C57.1998 42.12 56.2898 43.02 55.1598 43.02H2.54977C1.41977 43.02 0.509766 42.12 0.509766 41.01V2.51C0.509766 1.4 1.41977 0.5 2.54977 0.5H55.1598C56.2898 0.5 57.1998 1.4 57.1998 2.51V41.01Z" fill="black"/>
<path d="M55.15 43.52H2.53998C1.13998 43.52 0 42.39 0 41.01V2.51C0 1.13 1.13998 0 2.53998 0H55.15C56.55 0 57.69 1.13 57.69 2.51V41.01C57.7 42.39 56.55 43.52 55.15 43.52ZM2.54999 1C1.69999 1 1.00998 1.68 1.00998 2.51V41.01C1.00998 41.84 1.69999 42.52 2.54999 42.52H55.16C56.01 42.52 56.7 41.84 56.7 41.01V2.51C56.7 1.68 56.01 1 55.16 1H2.54999V1Z" fill="url(#paint0_linear)"/>
<path d="M45.1998 21.7798C44.4498 21.0298 43.1298 21.1098 42.2798 21.9598L39.5998 24.6398C39.4198 24.2598 39.1998 23.8898 38.9698 23.5398V10.7698C38.9698 9.56984 38.1798 8.57985 37.2198 8.57985C36.2598 8.57985 35.4698 9.55984 35.4698 10.7698V20.4898C35.3298 20.4198 35.1798 20.3498 35.0298 20.2898V7.77984C35.0298 6.57984 34.2398 5.58984 33.2798 5.58984C32.3198 5.58984 31.5298 6.56984 31.5298 7.77984V19.5698C31.5298 19.5698 31.5298 19.5698 31.5198 19.5698C31.3698 19.5698 31.2298 19.5698 31.0898 19.5798V10.7598C31.0898 9.55985 30.2998 8.56985 29.3398 8.56985C28.3798 8.56985 27.5898 9.54985 27.5898 10.7598V20.4698C27.3698 20.5798 27.1598 20.6898 26.9498 20.8098V15.4398C26.9498 14.2398 26.2498 13.2498 25.3998 13.2498C24.5498 13.2498 23.8498 14.2298 23.8498 15.4398V23.8798C23.0198 25.2398 22.5498 26.8298 22.5498 28.5398C22.5498 33.4898 26.5698 37.5098 31.5298 37.5098C36.2498 37.5098 40.1198 33.8698 40.4798 29.2398L45.0298 24.6898C45.8798 23.8498 45.9598 22.5298 45.1998 21.7798Z" fill="#9D9FA2"/>
<path d="M44.5201 21.3099C43.7701 20.5599 42.4501 20.6399 41.6001 21.4899L38.9201 24.1699C38.7301 23.7899 38.5201 23.4199 38.2901 23.0699V10.2999C38.2901 9.09988 37.5001 8.10988 36.5401 8.10988C35.5801 8.10988 34.7901 9.08988 34.7901 10.2999V20.0199C34.6501 19.9499 34.5001 19.8799 34.3501 19.8199V7.31988C34.3501 6.11988 33.5601 5.12988 32.6001 5.12988C31.6401 5.12988 30.8501 6.10988 30.8501 7.31988V19.1099C30.8501 19.1099 30.8501 19.1099 30.8401 19.1099C30.7001 19.1099 30.5501 19.1099 30.4101 19.1199V10.2999C30.4101 9.09988 29.6201 8.10988 28.6601 8.10988C27.7001 8.10988 26.9101 9.08988 26.9101 10.2999V20.0099C26.6901 20.1199 26.4801 20.2299 26.2701 20.3499V14.9799C26.2701 13.7799 25.5701 12.7899 24.7201 12.7899C23.8701 12.7899 23.1701 13.7699 23.1701 14.9799V23.4199C22.3401 24.7799 21.8701 26.3699 21.8701 28.0799C21.8701 33.0299 25.8901 37.0499 30.8501 37.0499C35.5701 37.0499 39.4501 33.4099 39.8001 28.7799L44.3501 24.2299C45.1901 23.3799 45.2701 22.0699 44.5201 21.3099Z" fill="white"/>
<path d="M31.9898 24.6698C31.9898 26.4098 30.5798 27.8198 28.8398 27.8198H12.9898C11.2498 27.8198 9.83984 26.4098 9.83984 24.6698C9.83984 22.9298 11.2498 21.5198 12.9898 21.5198H28.8398C30.5798 21.5198 31.9898 22.9298 31.9898 24.6698Z" fill="#9D9FA2"/>
<path d="M13.52 26.3497H15.41V27.1697H12.48V22.7197H13.52V26.3497Z" fill="white"/>
<path d="M20.3898 22.7197V23.5397H18.2998V24.4997H19.9698V25.2497H18.2998V26.3497H20.4198V27.1697H17.2598V22.7197H20.3898Z" fill="white"/>
<path d="M25.3598 23.5397H23.3798V24.4997H24.9698V25.2497H23.3798V27.1697H22.3398V22.7197H25.3598V23.5397V23.5397Z" fill="white"/>
<path d="M29.9198 22.7197V23.5397H28.8698V27.1697H27.8298V23.5397H26.7798V22.7197H29.9198Z" fill="white"/>
<path d="M26.8703 33.0098H25.9603V31.3498H24.6703V33.0098H23.7603V29.0898H24.6703V30.6298H25.9603V29.0898H26.8703V33.0098Z" fill="#9D9FA2"/>
<path d="M30.7403 33.0098H29.7903L29.5203 32.0798H28.3203L28.0503 33.0098H27.2803L28.5103 29.0898H29.5003L30.7403 33.0098ZM28.9103 29.9998L28.4803 31.4298H29.3403L28.9103 29.9998Z" fill="#9D9FA2"/>
<path d="M33.6504 31.6798H33.6604C33.6104 31.4898 33.6004 31.2898 33.6004 31.1798V29.0898H34.3504V33.0098H33.5604L32.0304 30.4398L31.8704 30.1198H31.8604C31.9304 30.4098 31.9204 30.5398 31.9204 30.6898V33.0098H31.1704V29.0898H32.1104L33.6504 31.6798Z" fill="#9D9FA2"/>
<path d="M36.5004 29.0898C36.8904 29.0898 37.4804 29.1398 37.9304 29.5998C38.3004 29.9698 38.4704 30.5798 38.4704 31.0498C38.4704 31.3898 38.3804 32.0998 37.8804 32.5698C37.4804 32.9498 37.0304 33.0198 36.6104 33.0198H35.1704V29.0998H36.5004V29.0898ZM36.4804 32.2898C36.7304 32.2898 37.0504 32.2398 37.2604 31.8998C37.4704 31.5598 37.4804 31.1698 37.4804 31.0098C37.4804 30.7998 37.4604 30.3898 37.2104 30.0998C36.9804 29.8398 36.6804 29.8098 36.4604 29.8098H36.0704V32.2898H36.4804Z" fill="#9D9FA2"/>
<defs>
<linearGradient id="paint0_linear" x1="0.003" y1="21.7569" x2="57.6959" y2="21.7569" gradientUnits="userSpaceOnUse">
<stop stop-color="#DED9D6"/>
<stop offset="0.0616" stop-color="#CECAC9"/>
<stop offset="0.1794" stop-color="#A8A4A7"/>
<stop offset="0.264" stop-color="#8B878D"/>
<stop offset="0.5225" stop-color="#F3F4F4"/>
<stop offset="0.5875" stop-color="#E0DFE0"/>
<stop offset="0.7124" stop-color="#B7B4B8"/>
<stop offset="0.8764" stop-color="#807B80"/>
<stop offset="1" stop-color="#A7A9AC"/>
</linearGradient>
</defs>
</svg>
