<svg width="21" height="21" viewBox="0 0 21 21" fill="none" xmlns="http://www.w3.org/2000/svg">
<path d="M20.8404 10.0852C20.8404 4.55013 16.3518 0.0615234 10.8167 0.0615234C5.28158 0.0615234 0.792969 4.55013 0.792969 10.0852C0.792969 15.6203 5.28158 20.1089 10.8167 20.1089C10.8756 20.1089 10.9341 20.1077 10.9929 20.1066V12.3036H8.83933V9.79385H10.9929V7.94699C10.9929 5.80508 12.3004 4.6393 14.2111 4.6393C15.126 4.6393 15.9125 4.70752 16.1418 4.73795V6.97652H14.8242C13.7848 6.97652 13.5835 7.47055 13.5835 8.19538V9.79385H16.069L15.745 12.3036H13.5835V19.7216C17.7733 18.5205 20.8404 14.6606 20.8404 10.0852Z" fill="white"/>
</svg>
