<svg width="21" height="21" viewBox="0 0 21 21" fill="none" xmlns="http://www.w3.org/2000/svg">
<path d="M12.707 10.0615C12.707 11.1187 11.8501 11.9756 10.793 11.9756C9.73584 11.9756 8.87891 11.1187 8.87891 10.0615C8.87891 9.00439 9.73584 8.14746 10.793 8.14746C11.8501 8.14746 12.707 9.00439 12.707 10.0615Z" fill="white"/>
<path d="M15.2694 6.67545C15.1774 6.42612 15.0306 6.20044 14.8399 6.0152C14.6546 5.82446 14.4291 5.67767 14.1796 5.58566C13.9773 5.50708 13.6733 5.41354 13.1135 5.38806C12.5079 5.36044 12.3263 5.35449 10.7931 5.35449C9.25974 5.35449 9.07816 5.36029 8.47269 5.38791C7.91284 5.41354 7.60873 5.50708 7.40656 5.58566C7.15707 5.67767 6.9314 5.82446 6.74631 6.0152C6.55557 6.20044 6.40878 6.42596 6.31662 6.67545C6.23804 6.87778 6.1445 7.18188 6.11902 7.74173C6.0914 8.3472 6.08545 8.52878 6.08545 10.0621C6.08545 11.5953 6.0914 11.7769 6.11902 12.3825C6.1445 12.9424 6.23804 13.2463 6.31662 13.4487C6.40878 13.6982 6.55542 13.9237 6.74615 14.1089C6.9314 14.2997 7.15692 14.4464 7.4064 14.5385C7.60873 14.6172 7.91284 14.7107 8.47269 14.7362C9.07816 14.7638 9.25958 14.7696 10.7929 14.7696C12.3264 14.7696 12.508 14.7638 13.1133 14.7362C13.6732 14.7107 13.9773 14.6172 14.1796 14.5385C14.6804 14.3453 15.0762 13.9495 15.2694 13.4487C15.348 13.2463 15.4415 12.9424 15.4672 12.3825C15.4948 11.7769 15.5006 11.5953 15.5006 10.0621C15.5006 8.52878 15.4948 8.3472 15.4672 7.74173C15.4417 7.18188 15.3481 6.87778 15.2694 6.67545ZM10.7931 13.0106C9.16452 13.0106 7.84433 11.6906 7.84433 10.062C7.84433 8.43341 9.16452 7.11337 10.7931 7.11337C12.4215 7.11337 13.7417 8.43341 13.7417 10.062C13.7417 11.6906 12.4215 13.0106 10.7931 13.0106ZM13.8583 7.68588C13.4777 7.68588 13.1692 7.37735 13.1692 6.9968C13.1692 6.61624 13.4777 6.30771 13.8583 6.30771C14.2388 6.30771 14.5474 6.61624 14.5474 6.9968C14.5472 7.37735 14.2388 7.68588 13.8583 7.68588Z" fill="white"/>
<path d="M10.793 0.0615234C5.27097 0.0615234 0.792969 4.53952 0.792969 10.0615C0.792969 15.5835 5.27097 20.0615 10.793 20.0615C16.315 20.0615 20.793 15.5835 20.793 10.0615C20.793 4.53952 16.315 0.0615234 10.793 0.0615234ZM16.5005 12.4289C16.4727 13.0402 16.3755 13.4575 16.2336 13.8228C15.9353 14.5941 15.3256 15.2039 14.5543 15.5022C14.1891 15.6441 13.7716 15.7411 13.1605 15.7691C12.5482 15.797 12.3526 15.8037 10.7931 15.8037C9.23352 15.8037 9.03806 15.797 8.42557 15.7691C7.81445 15.7411 7.39697 15.6441 7.03183 15.5022C6.64853 15.358 6.30154 15.132 6.01468 14.8398C5.72263 14.5531 5.49664 14.206 5.35245 13.8228C5.21054 13.4577 5.11334 13.0402 5.08557 12.4291C5.05734 11.8166 5.05078 11.621 5.05078 10.0615C5.05078 8.50208 5.05734 8.30646 5.08542 7.69412C5.11319 7.08286 5.21024 6.66553 5.35214 6.30023C5.49634 5.91708 5.72247 5.56995 6.01468 5.28323C6.30139 4.99103 6.64853 4.76505 7.03168 4.62085C7.39697 4.47894 7.8143 4.3819 8.42557 4.35397C9.0379 4.32605 9.23352 4.31934 10.793 4.31934C12.3524 4.31934 12.548 4.32605 13.1604 4.35413C13.7716 4.3819 14.189 4.47894 14.5543 4.6207C14.9374 4.76489 15.2845 4.99103 15.5714 5.28323C15.8635 5.5701 16.0896 5.91708 16.2336 6.30023C16.3757 6.66553 16.4727 7.08286 16.5007 7.69412C16.5286 8.30646 16.5352 8.50208 16.5352 10.0615C16.5352 11.621 16.5286 11.8166 16.5005 12.4289Z" fill="white"/>
</svg>
