<svg width="21" height="21" viewBox="0 0 21 21" fill="none" xmlns="http://www.w3.org/2000/svg">
<path fill-rule="evenodd" clip-rule="evenodd" d="M10.793 20.0615C16.3158 20.0615 20.793 15.5844 20.793 10.0615C20.793 4.53868 16.3158 0.0615234 10.793 0.0615234C5.27012 0.0615234 0.792969 4.53868 0.792969 10.0615C0.792969 15.5844 5.27012 20.0615 10.793 20.0615ZM15.4398 11.8272C15.3329 11.7228 15.226 11.6185 15.1207 11.5124C14.7618 11.1516 14.7388 10.9422 15.0278 10.5267C15.1951 10.2845 15.3695 10.0475 15.5438 9.81053C15.697 9.60232 15.8502 9.39416 15.9985 9.18262C16.0097 9.16662 16.0209 9.15062 16.0321 9.13462C16.3178 8.727 16.6044 8.31817 16.7545 7.83126C16.8534 7.50874 16.7656 7.36666 16.4452 7.31037C16.3906 7.30074 16.3335 7.29988 16.2772 7.29988L14.3756 7.29814C14.1413 7.29346 14.0116 7.39897 13.929 7.61339C13.8175 7.90234 13.7024 8.19155 13.5685 8.47002C13.2669 9.10333 12.9293 9.71493 12.4562 10.2325C12.4495 10.2398 12.4427 10.2473 12.4358 10.2548C12.3364 10.3643 12.2251 10.4869 12.0617 10.4318C11.8434 10.3491 11.7795 9.97853 11.7829 9.85364L11.7812 7.59144C11.7386 7.26883 11.6696 7.1248 11.3585 7.06152H9.38279C9.11934 7.06152 8.98718 7.16707 8.84666 7.33662C8.76576 7.43493 8.74088 7.49902 8.90797 7.53166C9.23541 7.59567 9.42024 7.81464 9.4689 8.1529C9.54815 8.69488 9.54219 9.23785 9.49701 9.78175C9.48337 9.93984 9.45687 10.0988 9.39635 10.2464C9.30098 10.4792 9.14662 10.5267 8.94389 10.3836C8.76063 10.2543 8.63194 10.0707 8.50574 9.88709C8.03182 9.19741 7.65427 8.45335 7.34571 7.6713C7.25622 7.44558 7.10277 7.30854 6.87097 7.30504C6.29999 7.29525 5.72976 7.29444 5.15945 7.30586C4.816 7.31195 4.71373 7.48419 4.85357 7.80505C5.47486 9.22919 6.16614 10.6145 7.06882 11.8752C7.53244 12.5227 8.0651 13.0946 8.752 13.4997C9.53111 13.9592 10.3698 14.097 11.2535 14.0541C11.667 14.0347 11.7915 13.9231 11.8102 13.4988C11.8238 13.2079 11.8553 12.919 11.9942 12.658C12.1306 12.4015 12.3378 12.3526 12.5764 12.5123C12.6957 12.5921 12.7956 12.6931 12.891 12.8005C12.9663 12.8855 13.0406 12.9712 13.115 13.057C13.2706 13.2364 13.4262 13.4159 13.5899 13.5878C13.8924 13.9056 14.2521 14.0927 14.703 14.0541L16.4511 14.0549C16.7324 14.0356 16.879 13.6799 16.7171 13.3566C16.6029 13.1291 16.4536 12.9269 16.2959 12.7309C16.0334 12.4067 15.7367 12.117 15.4398 11.8272Z" fill="white"/>
</svg>
