<svg width="21" height="21" viewBox="0 0 21 21" fill="none" xmlns="http://www.w3.org/2000/svg">
<path d="M9.52124 11.9631L12.7818 10.0852L9.52124 8.20728V11.9631Z" fill="white"/>
<path d="M10.7698 0.0615234C5.2347 0.0615234 0.746094 4.55013 0.746094 10.0852C0.746094 15.6203 5.2347 20.1089 10.7698 20.1089C16.3049 20.1089 20.7935 15.6203 20.7935 10.0852C20.7935 4.55013 16.3049 0.0615234 10.7698 0.0615234ZM17.0331 10.0955C17.0331 10.0955 17.0331 12.1283 16.7752 13.1086C16.6307 13.6451 16.2076 14.0682 15.6711 14.2126C14.6908 14.4706 10.7698 14.4706 10.7698 14.4706C10.7698 14.4706 6.85903 14.4706 5.86852 14.2023C5.33198 14.0579 4.90892 13.6347 4.76438 13.0982C4.50636 12.1283 4.50636 10.0852 4.50636 10.0852C4.50636 10.0852 4.50636 8.05252 4.76438 7.07227C4.90877 6.53572 5.34223 6.10226 5.86852 5.95788C6.84878 5.69985 10.7698 5.69985 10.7698 5.69985C10.7698 5.69985 14.6908 5.69985 15.6711 5.96813C16.2076 6.11251 16.6307 6.53572 16.7752 7.07227C17.0435 8.05252 17.0331 10.0955 17.0331 10.0955Z" fill="white"/>
</svg>
