<svg width="601" height="88" viewBox="0 0 601 88" fill="none" xmlns="http://www.w3.org/2000/svg">
<path d="M77.5344 11.3695L63.121 25.9233H19.6211V61.7879H75.327L60.7837 76.3417H14.8166L0.0136719 61.7879V26.1832L14.8166 11.3695H77.5344ZM167.651 87.5169L148.043 76.2117V60.3585L142.2 54.641H104.673V76.3417H85.1956V11.3695H152.978L167.781 31.381L156.613 46.4545L167.781 57.6297V87.5169H167.651ZM147.524 32.6804L142.46 25.9233H104.803V39.9573H142.33L147.524 32.6804ZM253.482 11.3695L219.331 45.6748V87.5169L199.724 76.3417V45.6748L165.443 11.3695H188.686L209.463 32.2906L230.239 11.3695H253.482ZM339.053 56.4602L324.38 76.3417H249.197L263.61 61.7879H312.953L317.628 56.4602L312.953 50.6127H263.48L249.197 31.381L264 11.3695H339.183L324.64 25.9233H275.297L270.622 31.5109L275.297 37.3584H324.77L339.053 56.4602ZM434.104 11.3695L419.69 25.9233H400.473V87.5169L380.865 76.3417V25.9233H361.647L347.234 11.3695H434.104ZM510.975 87.5169L491.368 76.3417V57.6297H451.893V76.2117L432.286 76.0818V25.7934L447.089 11.2396H496.302L511.105 25.7934V87.5169H510.975ZM491.368 43.4658V25.9233H451.893V43.4658H491.368ZM600.183 61.7879L585.639 76.3417H524.869V11.4995L544.477 0.194336V61.7879H600.183Z" fill="url(#paint0_linear)"/>
<defs>
<linearGradient id="paint0_linear" x1="57.8764" y1="120.868" x2="615.578" y2="-56.1121" gradientUnits="userSpaceOnUse">
<stop offset="0.0224197" stop-color="#545454"/>
<stop offset="0.3081" stop-color="#E0E0E0"/>
<stop offset="0.3632" stop-color="#BDBDBD"/>
<stop offset="0.44" stop-color="#939393"/>
<stop offset="0.5148" stop-color="#727272"/>
<stop offset="0.5861" stop-color="#5B5B5B"/>
<stop offset="0.6524" stop-color="#4C4C4C"/>
<stop offset="0.7087" stop-color="#474747"/>
<stop offset="0.9839" stop-color="#DEDEDE"/>
</linearGradient>
</defs>
</svg>
